<?xml version="1.0" encoding="utf-8" standalone="no"?>
<!DOCTYPE svg PUBLIC "-//W3C//DTD SVG 1.1//EN"
  "http://www.w3.org/Graphics/SVG/1.1/DTD/svg11.dtd">
<!-- Created with matplotlib (https://matplotlib.org/) -->
<svg height="720pt" version="1.1" viewBox="0 0 1080 720" width="1080pt" xmlns="http://www.w3.org/2000/svg" xmlns:xlink="http://www.w3.org/1999/xlink">
 <defs>
  <style type="text/css">
*{stroke-linecap:butt;stroke-linejoin:round;}
  </style>
 </defs>
 <g id="figure_1">
  <g id="patch_1">
   <path d="M 0 720 
L 1080 720 
L 1080 0 
L 0 0 
z
" style="fill:#ffffff;"/>
  </g>
  <g id="axes_1">
   <g id="patch_2">
    <path d="M 135 630 
L 972 630 
L 972 86.4 
L 135 86.4 
z
" style="fill:#ffffff;"/>
   </g>
   <g id="PolyCollection_1">
    <defs>
     <path d="M 173.045455 -608.890909 
L 173.045455 -575.882296 
L 204.75 -457.008747 
L 236.454545 -358.449725 
L 268.159091 -212.895743 
L 299.863636 -221.045005 
L 331.568182 -246.527716 
L 363.272727 -281.502223 
L 394.977273 -284.536526 
L 426.681818 -337.550072 
L 458.386364 -323.277637 
L 490.090909 -292.622382 
L 521.795455 -268.719474 
L 553.5 -259.449452 
L 585.204545 -238.449583 
L 616.909091 -205.589945 
L 648.613636 -201.425043 
L 680.318182 -210.612599 
L 712.022727 -266.035065 
L 743.727273 -242.015692 
L 775.431818 -248.435814 
L 807.136364 -262.443967 
L 838.840909 -272.094941 
L 870.545455 -263.035529 
L 902.25 -254.310101 
L 933.954545 -245.129606 
L 933.954545 -278.138219 
L 933.954545 -278.138219 
L 902.25 -287.318714 
L 870.545455 -296.044142 
L 838.840909 -305.103554 
L 807.136364 -295.45258 
L 775.431818 -281.444427 
L 743.727273 -275.024305 
L 712.022727 -299.043678 
L 680.318182 -243.621212 
L 648.613636 -234.433656 
L 616.909091 -238.598557 
L 585.204545 -271.458196 
L 553.5 -292.458065 
L 521.795455 -301.728087 
L 490.090909 -325.630995 
L 458.386364 -356.28625 
L 426.681818 -370.558685 
L 394.977273 -317.545139 
L 363.272727 -314.510836 
L 331.568182 -279.536329 
L 299.863636 -254.053618 
L 268.159091 -245.904356 
L 236.454545 -391.458338 
L 204.75 -490.01736 
L 173.045455 -608.890909 
z
" id="m37f05bc858" style="stroke:#f77189;stroke-opacity:0.3;"/>
    </defs>
    <g clip-path="url(#p7b08e0a775)">
     <use style="fill:#f77189;fill-opacity:0.3;stroke:#f77189;stroke-opacity:0.3;" x="0" xlink:href="#m37f05bc858" y="720"/>
    </g>
   </g>
   <g id="PolyCollection_2">
    <defs>
     <path d="M 173.045455 -439.324778 
L 173.045455 -411.715119 
L 204.75 -360.069497 
L 236.454545 -286.693199 
L 268.159091 -185.743606 
L 299.863636 -128.951369 
L 331.568182 -146.388781 
L 363.272727 -204.421688 
L 394.977273 -245.537957 
L 426.681818 -242.010573 
L 458.386364 -237.414142 
L 490.090909 -175.467946 
L 521.795455 -222.37567 
L 553.5 -222.139669 
L 585.204545 -194.763853 
L 616.909091 -154.56687 
L 648.613636 -117.75167 
L 680.318182 -114.709091 
L 712.022727 -147.183358 
L 743.727273 -171.266396 
L 775.431818 -205.390545 
L 807.136364 -231.477419 
L 838.840909 -253.596943 
L 870.545455 -235.650754 
L 902.25 -224.97366 
L 933.954545 -225.722654 
L 933.954545 -253.332313 
L 933.954545 -253.332313 
L 902.25 -252.583319 
L 870.545455 -263.260413 
L 838.840909 -281.206602 
L 807.136364 -259.087078 
L 775.431818 -233.000205 
L 743.727273 -198.876055 
L 712.022727 -174.793017 
L 680.318182 -142.31875 
L 648.613636 -145.36133 
L 616.909091 -182.176529 
L 585.204545 -222.373513 
L 553.5 -249.749328 
L 521.795455 -249.985329 
L 490.090909 -203.077605 
L 458.386364 -265.023801 
L 426.681818 -269.620233 
L 394.977273 -273.147616 
L 363.272727 -232.031348 
L 331.568182 -173.99844 
L 299.863636 -156.561029 
L 268.159091 -213.353265 
L 236.454545 -314.302859 
L 204.75 -387.679156 
L 173.045455 -439.324778 
z
" id="m448bbf1f4a" style="stroke:#97a431;stroke-opacity:0.3;"/>
    </defs>
    <g clip-path="url(#p7b08e0a775)">
     <use style="fill:#97a431;fill-opacity:0.3;stroke:#97a431;stroke-opacity:0.3;" x="0" xlink:href="#m448bbf1f4a" y="720"/>
    </g>
   </g>
   <g id="PolyCollection_3">
    <defs>
     <path d="M 173.045455 -413.85867 
L 173.045455 -386.909402 
L 204.75 -296.762723 
L 236.454545 -216.368421 
L 268.159091 -250.52034 
L 299.863636 -285.853836 
L 331.568182 -331.773499 
L 363.272727 -355.897558 
L 394.977273 -342.359109 
L 426.681818 -307.593313 
L 458.386364 -294.015116 
L 490.090909 -243.11399 
L 521.795455 -200.860187 
L 553.5 -182.635077 
L 585.204545 -164.70418 
L 616.909091 -161.31964 
L 648.613636 -157.231064 
L 680.318182 -158.626423 
L 712.022727 -191.240649 
L 743.727273 -202.354383 
L 775.431818 -228.005851 
L 807.136364 -240.373632 
L 838.840909 -248.530317 
L 870.545455 -236.315611 
L 902.25 -192.552794 
L 933.954545 -168.020247 
L 933.954545 -194.969515 
L 933.954545 -194.969515 
L 902.25 -219.502062 
L 870.545455 -263.26488 
L 838.840909 -275.479585 
L 807.136364 -267.322901 
L 775.431818 -254.955119 
L 743.727273 -229.303651 
L 712.022727 -218.189917 
L 680.318182 -185.575691 
L 648.613636 -184.180332 
L 616.909091 -188.268909 
L 585.204545 -191.653448 
L 553.5 -209.584345 
L 521.795455 -227.809455 
L 490.090909 -270.063259 
L 458.386364 -320.964384 
L 426.681818 -334.542581 
L 394.977273 -369.308377 
L 363.272727 -382.846826 
L 331.568182 -358.722767 
L 299.863636 -312.803104 
L 268.159091 -277.469608 
L 236.454545 -243.317689 
L 204.75 -323.711991 
L 173.045455 -413.85867 
z
" id="maedaca902b" style="stroke:#36ada4;stroke-opacity:0.3;"/>
    </defs>
    <g clip-path="url(#p7b08e0a775)">
     <use style="fill:#36ada4;fill-opacity:0.3;stroke:#36ada4;stroke-opacity:0.3;" x="0" xlink:href="#maedaca902b" y="720"/>
    </g>
   </g>
   <g id="PolyCollection_4">
    <defs>
     <path d="M 173.045455 -367.753488 
L 173.045455 -349.835216 
L 204.75 -273.178085 
L 236.454545 -218.616097 
L 268.159091 -183.676132 
L 299.863636 -246.176912 
L 331.568182 -272.362094 
L 363.272727 -243.667363 
L 394.977273 -230.5226 
L 426.681818 -213.066272 
L 458.386364 -222.866887 
L 490.090909 -217.262398 
L 521.795455 -194.15467 
L 553.5 -187.126629 
L 585.204545 -195.694809 
L 616.909091 -156.564334 
L 648.613636 -168.030457 
L 680.318182 -159.298556 
L 712.022727 -174.47164 
L 743.727273 -181.536083 
L 775.431818 -198.612907 
L 807.136364 -174.324905 
L 838.840909 -180.920923 
L 870.545455 -168.497692 
L 902.25 -171.708112 
L 933.954545 -170.358049 
L 933.954545 -188.276321 
L 933.954545 -188.276321 
L 902.25 -189.626384 
L 870.545455 -186.415964 
L 838.840909 -198.839195 
L 807.136364 -192.243177 
L 775.431818 -216.531179 
L 743.727273 -199.454355 
L 712.022727 -192.389912 
L 680.318182 -177.216828 
L 648.613636 -185.948729 
L 616.909091 -174.482606 
L 585.204545 -213.613081 
L 553.5 -205.044901 
L 521.795455 -212.072942 
L 490.090909 -235.18067 
L 458.386364 -240.785159 
L 426.681818 -230.984544 
L 394.977273 -248.440872 
L 363.272727 -261.585635 
L 331.568182 -290.280366 
L 299.863636 -264.095184 
L 268.159091 -201.594404 
L 236.454545 -236.534369 
L 204.75 -291.096357 
L 173.045455 -367.753488 
z
" id="m6cab2a8af3" style="stroke:#a48cf4;stroke-opacity:0.3;"/>
    </defs>
    <g clip-path="url(#p7b08e0a775)">
     <use style="fill:#a48cf4;fill-opacity:0.3;stroke:#a48cf4;stroke-opacity:0.3;" x="0" xlink:href="#m6cab2a8af3" y="720"/>
    </g>
   </g>
   <g id="matplotlib.axis_1">
    <g id="xtick_1">
     <g id="line2d_1">
      <defs>
       <path d="M 0 0 
L 0 3.5 
" id="me0937bae8f" style="stroke:#000000;stroke-width:0.8;"/>
      </defs>
      <g>
       <use style="stroke:#000000;stroke-width:0.8;" x="173.045455" xlink:href="#me0937bae8f" y="630"/>
      </g>
     </g>
     <g id="text_1">
      <!-- 0 -->
      <defs>
       <path d="M 31.78125 66.40625 
Q 24.171875 66.40625 20.328125 58.90625 
Q 16.5 51.421875 16.5 36.375 
Q 16.5 21.390625 20.328125 13.890625 
Q 24.171875 6.390625 31.78125 6.390625 
Q 39.453125 6.390625 43.28125 13.890625 
Q 47.125 21.390625 47.125 36.375 
Q 47.125 51.421875 43.28125 58.90625 
Q 39.453125 66.40625 31.78125 66.40625 
z
M 31.78125 74.21875 
Q 44.046875 74.21875 50.515625 64.515625 
Q 56.984375 54.828125 56.984375 36.375 
Q 56.984375 17.96875 50.515625 8.265625 
Q 44.046875 -1.421875 31.78125 -1.421875 
Q 19.53125 -1.421875 13.0625 8.265625 
Q 6.59375 17.96875 6.59375 36.375 
Q 6.59375 54.828125 13.0625 64.515625 
Q 19.53125 74.21875 31.78125 74.21875 
z
" id="DejaVuSans-48"/>
      </defs>
      <g transform="translate(169.864205 644.598438)scale(0.1 -0.1)">
       <use xlink:href="#DejaVuSans-48"/>
      </g>
     </g>
    </g>
    <g id="xtick_2">
     <g id="line2d_2">
      <g>
       <use style="stroke:#000000;stroke-width:0.8;" x="331.568182" xlink:href="#me0937bae8f" y="630"/>
      </g>
     </g>
     <g id="text_2">
      <!-- 5 -->
      <defs>
       <path d="M 10.796875 72.90625 
L 49.515625 72.90625 
L 49.515625 64.59375 
L 19.828125 64.59375 
L 19.828125 46.734375 
Q 21.96875 47.46875 24.109375 47.828125 
Q 26.265625 48.1875 28.421875 48.1875 
Q 40.625 48.1875 47.75 41.5 
Q 54.890625 34.8125 54.890625 23.390625 
Q 54.890625 11.625 47.5625 5.09375 
Q 40.234375 -1.421875 26.90625 -1.421875 
Q 22.3125 -1.421875 17.546875 -0.640625 
Q 12.796875 0.140625 7.71875 1.703125 
L 7.71875 11.625 
Q 12.109375 9.234375 16.796875 8.0625 
Q 21.484375 6.890625 26.703125 6.890625 
Q 35.15625 6.890625 40.078125 11.328125 
Q 45.015625 15.765625 45.015625 23.390625 
Q 45.015625 31 40.078125 35.4375 
Q 35.15625 39.890625 26.703125 39.890625 
Q 22.75 39.890625 18.8125 39.015625 
Q 14.890625 38.140625 10.796875 36.28125 
z
" id="DejaVuSans-53"/>
      </defs>
      <g transform="translate(328.386932 644.598438)scale(0.1 -0.1)">
       <use xlink:href="#DejaVuSans-53"/>
      </g>
     </g>
    </g>
    <g id="xtick_3">
     <g id="line2d_3">
      <g>
       <use style="stroke:#000000;stroke-width:0.8;" x="490.090909" xlink:href="#me0937bae8f" y="630"/>
      </g>
     </g>
     <g id="text_3">
      <!-- 10 -->
      <defs>
       <path d="M 12.40625 8.296875 
L 28.515625 8.296875 
L 28.515625 63.921875 
L 10.984375 60.40625 
L 10.984375 69.390625 
L 28.421875 72.90625 
L 38.28125 72.90625 
L 38.28125 8.296875 
L 54.390625 8.296875 
L 54.390625 0 
L 12.40625 0 
z
" id="DejaVuSans-49"/>
      </defs>
      <g transform="translate(483.728409 644.598438)scale(0.1 -0.1)">
       <use xlink:href="#DejaVuSans-49"/>
       <use x="63.623047" xlink:href="#DejaVuSans-48"/>
      </g>
     </g>
    </g>
    <g id="xtick_4">
     <g id="line2d_4">
      <g>
       <use style="stroke:#000000;stroke-width:0.8;" x="648.613636" xlink:href="#me0937bae8f" y="630"/>
      </g>
     </g>
     <g id="text_4">
      <!-- 15 -->
      <g transform="translate(642.251136 644.598438)scale(0.1 -0.1)">
       <use xlink:href="#DejaVuSans-49"/>
       <use x="63.623047" xlink:href="#DejaVuSans-53"/>
      </g>
     </g>
    </g>
    <g id="xtick_5">
     <g id="line2d_5">
      <g>
       <use style="stroke:#000000;stroke-width:0.8;" x="807.136364" xlink:href="#me0937bae8f" y="630"/>
      </g>
     </g>
     <g id="text_5">
      <!-- 20 -->
      <defs>
       <path d="M 19.1875 8.296875 
L 53.609375 8.296875 
L 53.609375 0 
L 7.328125 0 
L 7.328125 8.296875 
Q 12.9375 14.109375 22.625 23.890625 
Q 32.328125 33.6875 34.8125 36.53125 
Q 39.546875 41.84375 41.421875 45.53125 
Q 43.3125 49.21875 43.3125 52.78125 
Q 43.3125 58.59375 39.234375 62.25 
Q 35.15625 65.921875 28.609375 65.921875 
Q 23.96875 65.921875 18.8125 64.3125 
Q 13.671875 62.703125 7.8125 59.421875 
L 7.8125 69.390625 
Q 13.765625 71.78125 18.9375 73 
Q 24.125 74.21875 28.421875 74.21875 
Q 39.75 74.21875 46.484375 68.546875 
Q 53.21875 62.890625 53.21875 53.421875 
Q 53.21875 48.921875 51.53125 44.890625 
Q 49.859375 40.875 45.40625 35.40625 
Q 44.1875 33.984375 37.640625 27.21875 
Q 31.109375 20.453125 19.1875 8.296875 
z
" id="DejaVuSans-50"/>
      </defs>
      <g transform="translate(800.773864 644.598438)scale(0.1 -0.1)">
       <use xlink:href="#DejaVuSans-50"/>
       <use x="63.623047" xlink:href="#DejaVuSans-48"/>
      </g>
     </g>
    </g>
    <g id="xtick_6">
     <g id="line2d_6">
      <g>
       <use style="stroke:#000000;stroke-width:0.8;" x="965.659091" xlink:href="#me0937bae8f" y="630"/>
      </g>
     </g>
     <g id="text_6">
      <!-- 25 -->
      <g transform="translate(959.296591 644.598438)scale(0.1 -0.1)">
       <use xlink:href="#DejaVuSans-50"/>
       <use x="63.623047" xlink:href="#DejaVuSans-53"/>
      </g>
     </g>
    </g>
    <g id="text_7">
     <!-- Index -->
     <defs>
      <path d="M 9.8125 72.90625 
L 19.671875 72.90625 
L 19.671875 0 
L 9.8125 0 
z
" id="DejaVuSans-73"/>
      <path d="M 54.890625 33.015625 
L 54.890625 0 
L 45.90625 0 
L 45.90625 32.71875 
Q 45.90625 40.484375 42.875 44.328125 
Q 39.84375 48.1875 33.796875 48.1875 
Q 26.515625 48.1875 22.3125 43.546875 
Q 18.109375 38.921875 18.109375 30.90625 
L 18.109375 0 
L 9.078125 0 
L 9.078125 54.6875 
L 18.109375 54.6875 
L 18.109375 46.1875 
Q 21.34375 51.125 25.703125 53.5625 
Q 30.078125 56 35.796875 56 
Q 45.21875 56 50.046875 50.171875 
Q 54.890625 44.34375 54.890625 33.015625 
z
" id="DejaVuSans-110"/>
      <path d="M 45.40625 46.390625 
L 45.40625 75.984375 
L 54.390625 75.984375 
L 54.390625 0 
L 45.40625 0 
L 45.40625 8.203125 
Q 42.578125 3.328125 38.25 0.953125 
Q 33.9375 -1.421875 27.875 -1.421875 
Q 17.96875 -1.421875 11.734375 6.484375 
Q 5.515625 14.40625 5.515625 27.296875 
Q 5.515625 40.1875 11.734375 48.09375 
Q 17.96875 56 27.875 56 
Q 33.9375 56 38.25 53.625 
Q 42.578125 51.265625 45.40625 46.390625 
z
M 14.796875 27.296875 
Q 14.796875 17.390625 18.875 11.75 
Q 22.953125 6.109375 30.078125 6.109375 
Q 37.203125 6.109375 41.296875 11.75 
Q 45.40625 17.390625 45.40625 27.296875 
Q 45.40625 37.203125 41.296875 42.84375 
Q 37.203125 48.484375 30.078125 48.484375 
Q 22.953125 48.484375 18.875 42.84375 
Q 14.796875 37.203125 14.796875 27.296875 
z
" id="DejaVuSans-100"/>
      <path d="M 56.203125 29.59375 
L 56.203125 25.203125 
L 14.890625 25.203125 
Q 15.484375 15.921875 20.484375 11.0625 
Q 25.484375 6.203125 34.421875 6.203125 
Q 39.59375 6.203125 44.453125 7.46875 
Q 49.3125 8.734375 54.109375 11.28125 
L 54.109375 2.78125 
Q 49.265625 0.734375 44.1875 -0.34375 
Q 39.109375 -1.421875 33.890625 -1.421875 
Q 20.796875 -1.421875 13.15625 6.1875 
Q 5.515625 13.8125 5.515625 26.8125 
Q 5.515625 40.234375 12.765625 48.109375 
Q 20.015625 56 32.328125 56 
Q 43.359375 56 49.78125 48.890625 
Q 56.203125 41.796875 56.203125 29.59375 
z
M 47.21875 32.234375 
Q 47.125 39.59375 43.09375 43.984375 
Q 39.0625 48.390625 32.421875 48.390625 
Q 24.90625 48.390625 20.390625 44.140625 
Q 15.875 39.890625 15.1875 32.171875 
z
" id="DejaVuSans-101"/>
      <path d="M 54.890625 54.6875 
L 35.109375 28.078125 
L 55.90625 0 
L 45.3125 0 
L 29.390625 21.484375 
L 13.484375 0 
L 2.875 0 
L 24.125 28.609375 
L 4.6875 54.6875 
L 15.28125 54.6875 
L 29.78125 35.203125 
L 44.28125 54.6875 
z
" id="DejaVuSans-120"/>
     </defs>
     <g transform="translate(539.646875 658.276562)scale(0.1 -0.1)">
      <use xlink:href="#DejaVuSans-73"/>
      <use x="29.492188" xlink:href="#DejaVuSans-110"/>
      <use x="92.871094" xlink:href="#DejaVuSans-100"/>
      <use x="156.347656" xlink:href="#DejaVuSans-101"/>
      <use x="217.855469" xlink:href="#DejaVuSans-120"/>
     </g>
    </g>
   </g>
   <g id="matplotlib.axis_2">
    <g id="ytick_1">
     <g id="line2d_7">
      <defs>
       <path d="M 0 0 
L -3.5 0 
" id="m08cba74234" style="stroke:#000000;stroke-width:0.8;"/>
      </defs>
      <g>
       <use style="stroke:#000000;stroke-width:0.8;" x="135" xlink:href="#m08cba74234" y="619.464999"/>
      </g>
     </g>
     <g id="text_8">
      <!-- 0.00 -->
      <defs>
       <path d="M 10.6875 12.40625 
L 21 12.40625 
L 21 0 
L 10.6875 0 
z
" id="DejaVuSans-46"/>
      </defs>
      <g transform="translate(105.734375 623.264218)scale(0.1 -0.1)">
       <use xlink:href="#DejaVuSans-48"/>
       <use x="63.623047" xlink:href="#DejaVuSans-46"/>
       <use x="95.410156" xlink:href="#DejaVuSans-48"/>
       <use x="159.033203" xlink:href="#DejaVuSans-48"/>
      </g>
     </g>
    </g>
    <g id="ytick_2">
     <g id="line2d_8">
      <g>
       <use style="stroke:#000000;stroke-width:0.8;" x="135" xlink:href="#m08cba74234" y="553.486091"/>
      </g>
     </g>
     <g id="text_9">
      <!-- 0.05 -->
      <g transform="translate(105.734375 557.28531)scale(0.1 -0.1)">
       <use xlink:href="#DejaVuSans-48"/>
       <use x="63.623047" xlink:href="#DejaVuSans-46"/>
       <use x="95.410156" xlink:href="#DejaVuSans-48"/>
       <use x="159.033203" xlink:href="#DejaVuSans-53"/>
      </g>
     </g>
    </g>
    <g id="ytick_3">
     <g id="line2d_9">
      <g>
       <use style="stroke:#000000;stroke-width:0.8;" x="135" xlink:href="#m08cba74234" y="487.507183"/>
      </g>
     </g>
     <g id="text_10">
      <!-- 0.10 -->
      <g transform="translate(105.734375 491.306402)scale(0.1 -0.1)">
       <use xlink:href="#DejaVuSans-48"/>
       <use x="63.623047" xlink:href="#DejaVuSans-46"/>
       <use x="95.410156" xlink:href="#DejaVuSans-49"/>
       <use x="159.033203" xlink:href="#DejaVuSans-48"/>
      </g>
     </g>
    </g>
    <g id="ytick_4">
     <g id="line2d_10">
      <g>
       <use style="stroke:#000000;stroke-width:0.8;" x="135" xlink:href="#m08cba74234" y="421.528275"/>
      </g>
     </g>
     <g id="text_11">
      <!-- 0.15 -->
      <g transform="translate(105.734375 425.327494)scale(0.1 -0.1)">
       <use xlink:href="#DejaVuSans-48"/>
       <use x="63.623047" xlink:href="#DejaVuSans-46"/>
       <use x="95.410156" xlink:href="#DejaVuSans-49"/>
       <use x="159.033203" xlink:href="#DejaVuSans-53"/>
      </g>
     </g>
    </g>
    <g id="ytick_5">
     <g id="line2d_11">
      <g>
       <use style="stroke:#000000;stroke-width:0.8;" x="135" xlink:href="#m08cba74234" y="355.549367"/>
      </g>
     </g>
     <g id="text_12">
      <!-- 0.20 -->
      <g transform="translate(105.734375 359.348585)scale(0.1 -0.1)">
       <use xlink:href="#DejaVuSans-48"/>
       <use x="63.623047" xlink:href="#DejaVuSans-46"/>
       <use x="95.410156" xlink:href="#DejaVuSans-50"/>
       <use x="159.033203" xlink:href="#DejaVuSans-48"/>
      </g>
     </g>
    </g>
    <g id="ytick_6">
     <g id="line2d_12">
      <g>
       <use style="stroke:#000000;stroke-width:0.8;" x="135" xlink:href="#m08cba74234" y="289.570458"/>
      </g>
     </g>
     <g id="text_13">
      <!-- 0.25 -->
      <g transform="translate(105.734375 293.369677)scale(0.1 -0.1)">
       <use xlink:href="#DejaVuSans-48"/>
       <use x="63.623047" xlink:href="#DejaVuSans-46"/>
       <use x="95.410156" xlink:href="#DejaVuSans-50"/>
       <use x="159.033203" xlink:href="#DejaVuSans-53"/>
      </g>
     </g>
    </g>
    <g id="ytick_7">
     <g id="line2d_13">
      <g>
       <use style="stroke:#000000;stroke-width:0.8;" x="135" xlink:href="#m08cba74234" y="223.59155"/>
      </g>
     </g>
     <g id="text_14">
      <!-- 0.30 -->
      <defs>
       <path d="M 40.578125 39.3125 
Q 47.65625 37.796875 51.625 33 
Q 55.609375 28.21875 55.609375 21.1875 
Q 55.609375 10.40625 48.1875 4.484375 
Q 40.765625 -1.421875 27.09375 -1.421875 
Q 22.515625 -1.421875 17.65625 -0.515625 
Q 12.796875 0.390625 7.625 2.203125 
L 7.625 11.71875 
Q 11.71875 9.328125 16.59375 8.109375 
Q 21.484375 6.890625 26.8125 6.890625 
Q 36.078125 6.890625 40.9375 10.546875 
Q 45.796875 14.203125 45.796875 21.1875 
Q 45.796875 27.640625 41.28125 31.265625 
Q 36.765625 34.90625 28.71875 34.90625 
L 20.21875 34.90625 
L 20.21875 43.015625 
L 29.109375 43.015625 
Q 36.375 43.015625 40.234375 45.921875 
Q 44.09375 48.828125 44.09375 54.296875 
Q 44.09375 59.90625 40.109375 62.90625 
Q 36.140625 65.921875 28.71875 65.921875 
Q 24.65625 65.921875 20.015625 65.03125 
Q 15.375 64.15625 9.8125 62.3125 
L 9.8125 71.09375 
Q 15.4375 72.65625 20.34375 73.4375 
Q 25.25 74.21875 29.59375 74.21875 
Q 40.828125 74.21875 47.359375 69.109375 
Q 53.90625 64.015625 53.90625 55.328125 
Q 53.90625 49.265625 50.4375 45.09375 
Q 46.96875 40.921875 40.578125 39.3125 
z
" id="DejaVuSans-51"/>
      </defs>
      <g transform="translate(105.734375 227.390769)scale(0.1 -0.1)">
       <use xlink:href="#DejaVuSans-48"/>
       <use x="63.623047" xlink:href="#DejaVuSans-46"/>
       <use x="95.410156" xlink:href="#DejaVuSans-51"/>
       <use x="159.033203" xlink:href="#DejaVuSans-48"/>
      </g>
     </g>
    </g>
    <g id="ytick_8">
     <g id="line2d_14">
      <g>
       <use style="stroke:#000000;stroke-width:0.8;" x="135" xlink:href="#m08cba74234" y="157.612642"/>
      </g>
     </g>
     <g id="text_15">
      <!-- 0.35 -->
      <g transform="translate(105.734375 161.411861)scale(0.1 -0.1)">
       <use xlink:href="#DejaVuSans-48"/>
       <use x="63.623047" xlink:href="#DejaVuSans-46"/>
       <use x="95.410156" xlink:href="#DejaVuSans-51"/>
       <use x="159.033203" xlink:href="#DejaVuSans-53"/>
      </g>
     </g>
    </g>
    <g id="ytick_9">
     <g id="line2d_15">
      <g>
       <use style="stroke:#000000;stroke-width:0.8;" x="135" xlink:href="#m08cba74234" y="91.633734"/>
      </g>
     </g>
     <g id="text_16">
      <!-- 0.40 -->
      <defs>
       <path d="M 37.796875 64.3125 
L 12.890625 25.390625 
L 37.796875 25.390625 
z
M 35.203125 72.90625 
L 47.609375 72.90625 
L 47.609375 25.390625 
L 58.015625 25.390625 
L 58.015625 17.1875 
L 47.609375 17.1875 
L 47.609375 0 
L 37.796875 0 
L 37.796875 17.1875 
L 4.890625 17.1875 
L 4.890625 26.703125 
z
" id="DejaVuSans-52"/>
      </defs>
      <g transform="translate(105.734375 95.432952)scale(0.1 -0.1)">
       <use xlink:href="#DejaVuSans-48"/>
       <use x="63.623047" xlink:href="#DejaVuSans-46"/>
       <use x="95.410156" xlink:href="#DejaVuSans-52"/>
       <use x="159.033203" xlink:href="#DejaVuSans-48"/>
      </g>
     </g>
    </g>
    <g id="text_17">
     <!-- Cross Correlation Max -->
     <defs>
      <path d="M 64.40625 67.28125 
L 64.40625 56.890625 
Q 59.421875 61.53125 53.78125 63.8125 
Q 48.140625 66.109375 41.796875 66.109375 
Q 29.296875 66.109375 22.65625 58.46875 
Q 16.015625 50.828125 16.015625 36.375 
Q 16.015625 21.96875 22.65625 14.328125 
Q 29.296875 6.6875 41.796875 6.6875 
Q 48.140625 6.6875 53.78125 8.984375 
Q 59.421875 11.28125 64.40625 15.921875 
L 64.40625 5.609375 
Q 59.234375 2.09375 53.4375 0.328125 
Q 47.65625 -1.421875 41.21875 -1.421875 
Q 24.65625 -1.421875 15.125 8.703125 
Q 5.609375 18.84375 5.609375 36.375 
Q 5.609375 53.953125 15.125 64.078125 
Q 24.65625 74.21875 41.21875 74.21875 
Q 47.75 74.21875 53.53125 72.484375 
Q 59.328125 70.75 64.40625 67.28125 
z
" id="DejaVuSans-67"/>
      <path d="M 41.109375 46.296875 
Q 39.59375 47.171875 37.8125 47.578125 
Q 36.03125 48 33.890625 48 
Q 26.265625 48 22.1875 43.046875 
Q 18.109375 38.09375 18.109375 28.8125 
L 18.109375 0 
L 9.078125 0 
L 9.078125 54.6875 
L 18.109375 54.6875 
L 18.109375 46.1875 
Q 20.953125 51.171875 25.484375 53.578125 
Q 30.03125 56 36.53125 56 
Q 37.453125 56 38.578125 55.875 
Q 39.703125 55.765625 41.0625 55.515625 
z
" id="DejaVuSans-114"/>
      <path d="M 30.609375 48.390625 
Q 23.390625 48.390625 19.1875 42.75 
Q 14.984375 37.109375 14.984375 27.296875 
Q 14.984375 17.484375 19.15625 11.84375 
Q 23.34375 6.203125 30.609375 6.203125 
Q 37.796875 6.203125 41.984375 11.859375 
Q 46.1875 17.53125 46.1875 27.296875 
Q 46.1875 37.015625 41.984375 42.703125 
Q 37.796875 48.390625 30.609375 48.390625 
z
M 30.609375 56 
Q 42.328125 56 49.015625 48.375 
Q 55.71875 40.765625 55.71875 27.296875 
Q 55.71875 13.875 49.015625 6.21875 
Q 42.328125 -1.421875 30.609375 -1.421875 
Q 18.84375 -1.421875 12.171875 6.21875 
Q 5.515625 13.875 5.515625 27.296875 
Q 5.515625 40.765625 12.171875 48.375 
Q 18.84375 56 30.609375 56 
z
" id="DejaVuSans-111"/>
      <path d="M 44.28125 53.078125 
L 44.28125 44.578125 
Q 40.484375 46.53125 36.375 47.5 
Q 32.28125 48.484375 27.875 48.484375 
Q 21.1875 48.484375 17.84375 46.4375 
Q 14.5 44.390625 14.5 40.28125 
Q 14.5 37.15625 16.890625 35.375 
Q 19.28125 33.59375 26.515625 31.984375 
L 29.59375 31.296875 
Q 39.15625 29.25 43.1875 25.515625 
Q 47.21875 21.78125 47.21875 15.09375 
Q 47.21875 7.46875 41.1875 3.015625 
Q 35.15625 -1.421875 24.609375 -1.421875 
Q 20.21875 -1.421875 15.453125 -0.5625 
Q 10.6875 0.296875 5.421875 2 
L 5.421875 11.28125 
Q 10.40625 8.6875 15.234375 7.390625 
Q 20.0625 6.109375 24.8125 6.109375 
Q 31.15625 6.109375 34.5625 8.28125 
Q 37.984375 10.453125 37.984375 14.40625 
Q 37.984375 18.0625 35.515625 20.015625 
Q 33.0625 21.96875 24.703125 23.78125 
L 21.578125 24.515625 
Q 13.234375 26.265625 9.515625 29.90625 
Q 5.8125 33.546875 5.8125 39.890625 
Q 5.8125 47.609375 11.28125 51.796875 
Q 16.75 56 26.8125 56 
Q 31.78125 56 36.171875 55.265625 
Q 40.578125 54.546875 44.28125 53.078125 
z
" id="DejaVuSans-115"/>
      <path id="DejaVuSans-32"/>
      <path d="M 9.421875 75.984375 
L 18.40625 75.984375 
L 18.40625 0 
L 9.421875 0 
z
" id="DejaVuSans-108"/>
      <path d="M 34.28125 27.484375 
Q 23.390625 27.484375 19.1875 25 
Q 14.984375 22.515625 14.984375 16.5 
Q 14.984375 11.71875 18.140625 8.90625 
Q 21.296875 6.109375 26.703125 6.109375 
Q 34.1875 6.109375 38.703125 11.40625 
Q 43.21875 16.703125 43.21875 25.484375 
L 43.21875 27.484375 
z
M 52.203125 31.203125 
L 52.203125 0 
L 43.21875 0 
L 43.21875 8.296875 
Q 40.140625 3.328125 35.546875 0.953125 
Q 30.953125 -1.421875 24.3125 -1.421875 
Q 15.921875 -1.421875 10.953125 3.296875 
Q 6 8.015625 6 15.921875 
Q 6 25.140625 12.171875 29.828125 
Q 18.359375 34.515625 30.609375 34.515625 
L 43.21875 34.515625 
L 43.21875 35.40625 
Q 43.21875 41.609375 39.140625 45 
Q 35.0625 48.390625 27.6875 48.390625 
Q 23 48.390625 18.546875 47.265625 
Q 14.109375 46.140625 10.015625 43.890625 
L 10.015625 52.203125 
Q 14.9375 54.109375 19.578125 55.046875 
Q 24.21875 56 28.609375 56 
Q 40.484375 56 46.34375 49.84375 
Q 52.203125 43.703125 52.203125 31.203125 
z
" id="DejaVuSans-97"/>
      <path d="M 18.3125 70.21875 
L 18.3125 54.6875 
L 36.8125 54.6875 
L 36.8125 47.703125 
L 18.3125 47.703125 
L 18.3125 18.015625 
Q 18.3125 11.328125 20.140625 9.421875 
Q 21.96875 7.515625 27.59375 7.515625 
L 36.8125 7.515625 
L 36.8125 0 
L 27.59375 0 
Q 17.1875 0 13.234375 3.875 
Q 9.28125 7.765625 9.28125 18.015625 
L 9.28125 47.703125 
L 2.6875 47.703125 
L 2.6875 54.6875 
L 9.28125 54.6875 
L 9.28125 70.21875 
z
" id="DejaVuSans-116"/>
      <path d="M 9.421875 54.6875 
L 18.40625 54.6875 
L 18.40625 0 
L 9.421875 0 
z
M 9.421875 75.984375 
L 18.40625 75.984375 
L 18.40625 64.59375 
L 9.421875 64.59375 
z
" id="DejaVuSans-105"/>
      <path d="M 9.8125 72.90625 
L 24.515625 72.90625 
L 43.109375 23.296875 
L 61.8125 72.90625 
L 76.515625 72.90625 
L 76.515625 0 
L 66.890625 0 
L 66.890625 64.015625 
L 48.09375 14.015625 
L 38.1875 14.015625 
L 19.390625 64.015625 
L 19.390625 0 
L 9.8125 0 
z
" id="DejaVuSans-77"/>
     </defs>
     <g transform="translate(99.654687 413.296094)rotate(-90)scale(0.1 -0.1)">
      <use xlink:href="#DejaVuSans-67"/>
      <use x="69.824219" xlink:href="#DejaVuSans-114"/>
      <use x="110.90625" xlink:href="#DejaVuSans-111"/>
      <use x="172.087891" xlink:href="#DejaVuSans-115"/>
      <use x="224.1875" xlink:href="#DejaVuSans-115"/>
      <use x="276.287109" xlink:href="#DejaVuSans-32"/>
      <use x="308.074219" xlink:href="#DejaVuSans-67"/>
      <use x="377.898438" xlink:href="#DejaVuSans-111"/>
      <use x="439.080078" xlink:href="#DejaVuSans-114"/>
      <use x="480.177734" xlink:href="#DejaVuSans-114"/>
      <use x="521.259766" xlink:href="#DejaVuSans-101"/>
      <use x="582.783203" xlink:href="#DejaVuSans-108"/>
      <use x="610.566406" xlink:href="#DejaVuSans-97"/>
      <use x="671.845703" xlink:href="#DejaVuSans-116"/>
      <use x="711.054688" xlink:href="#DejaVuSans-105"/>
      <use x="738.837891" xlink:href="#DejaVuSans-111"/>
      <use x="800.019531" xlink:href="#DejaVuSans-110"/>
      <use x="863.398438" xlink:href="#DejaVuSans-32"/>
      <use x="895.185547" xlink:href="#DejaVuSans-77"/>
      <use x="981.464844" xlink:href="#DejaVuSans-97"/>
      <use x="1042.744141" xlink:href="#DejaVuSans-120"/>
     </g>
    </g>
   </g>
   <g id="line2d_16"/>
   <g id="line2d_17"/>
   <g id="line2d_18"/>
   <g id="line2d_19"/>
   <g id="line2d_20"/>
   <g id="line2d_21"/>
   <g id="line2d_22"/>
   <g id="line2d_23"/>
   <g id="line2d_24"/>
   <g id="line2d_25"/>
   <g id="line2d_26"/>
   <g id="line2d_27"/>
   <g id="line2d_28"/>
   <g id="line2d_29"/>
   <g id="line2d_30"/>
   <g id="line2d_31"/>
   <g id="line2d_32"/>
   <g id="line2d_33"/>
   <g id="line2d_34"/>
   <g id="line2d_35"/>
   <g id="line2d_36"/>
   <g id="line2d_37"/>
   <g id="line2d_38"/>
   <g id="line2d_39"/>
   <g id="line2d_40"/>
   <g id="line2d_41">
    <path clip-path="url(#p7b08e0a775)" d="M 173.045455 127.613397 
L 204.75 246.486947 
L 236.454545 345.045969 
L 268.159091 490.599951 
L 299.863636 482.450689 
L 331.568182 456.967978 
L 363.272727 421.99347 
L 394.977273 418.959167 
L 426.681818 365.945622 
L 458.386364 380.218056 
L 490.090909 410.873312 
L 521.795455 434.77622 
L 553.5 444.046242 
L 585.204545 465.04611 
L 616.909091 497.905749 
L 648.613636 502.070651 
L 680.318182 492.883094 
L 712.022727 437.460629 
L 743.727273 461.480001 
L 775.431818 455.059879 
L 807.136364 441.051727 
L 838.840909 431.400752 
L 870.545455 440.460164 
L 902.25 449.185592 
L 933.954545 458.366087 
" style="fill:none;stroke:#f77189;stroke-linecap:square;stroke-width:3;"/>
   </g>
   <g id="line2d_42"/>
   <g id="line2d_43"/>
   <g id="line2d_44"/>
   <g id="line2d_45"/>
   <g id="line2d_46"/>
   <g id="line2d_47"/>
   <g id="line2d_48"/>
   <g id="line2d_49"/>
   <g id="line2d_50"/>
   <g id="line2d_51"/>
   <g id="line2d_52"/>
   <g id="line2d_53"/>
   <g id="line2d_54"/>
   <g id="line2d_55"/>
   <g id="line2d_56"/>
   <g id="line2d_57"/>
   <g id="line2d_58"/>
   <g id="line2d_59"/>
   <g id="line2d_60"/>
   <g id="line2d_61"/>
   <g id="line2d_62"/>
   <g id="line2d_63"/>
   <g id="line2d_64"/>
   <g id="line2d_65"/>
   <g id="line2d_66"/>
   <g id="line2d_67">
    <path clip-path="url(#p7b08e0a775)" d="M 173.045455 294.480052 
L 204.75 346.125674 
L 236.454545 419.501971 
L 268.159091 520.451564 
L 299.863636 577.243801 
L 331.568182 559.806389 
L 363.272727 501.773482 
L 394.977273 460.657213 
L 426.681818 464.184597 
L 458.386364 468.781028 
L 490.090909 530.727225 
L 521.795455 483.819501 
L 553.5 484.055501 
L 585.204545 511.431317 
L 616.909091 551.628301 
L 648.613636 588.4435 
L 680.318182 591.486079 
L 712.022727 559.011812 
L 743.727273 534.928775 
L 775.431818 500.804625 
L 807.136364 474.717752 
L 838.840909 452.598228 
L 870.545455 470.544417 
L 902.25 481.22151 
L 933.954545 480.472517 
" style="fill:none;stroke:#97a431;stroke-linecap:square;stroke-width:3;"/>
   </g>
   <g id="line2d_68"/>
   <g id="line2d_69"/>
   <g id="line2d_70"/>
   <g id="line2d_71"/>
   <g id="line2d_72"/>
   <g id="line2d_73"/>
   <g id="line2d_74"/>
   <g id="line2d_75"/>
   <g id="line2d_76"/>
   <g id="line2d_77"/>
   <g id="line2d_78"/>
   <g id="line2d_79"/>
   <g id="line2d_80"/>
   <g id="line2d_81"/>
   <g id="line2d_82"/>
   <g id="line2d_83"/>
   <g id="line2d_84"/>
   <g id="line2d_85"/>
   <g id="line2d_86"/>
   <g id="line2d_87"/>
   <g id="line2d_88"/>
   <g id="line2d_89"/>
   <g id="line2d_90"/>
   <g id="line2d_91"/>
   <g id="line2d_92"/>
   <g id="line2d_93">
    <path clip-path="url(#p7b08e0a775)" d="M 173.045455 319.615964 
L 204.75 409.762643 
L 236.454545 490.156945 
L 268.159091 456.005026 
L 299.863636 420.67153 
L 331.568182 374.751867 
L 363.272727 350.627808 
L 394.977273 364.166257 
L 426.681818 398.932053 
L 458.386364 412.51025 
L 490.090909 463.411376 
L 521.795455 505.665179 
L 553.5 523.890289 
L 585.204545 541.821186 
L 616.909091 545.205726 
L 648.613636 549.294302 
L 680.318182 547.898943 
L 712.022727 515.284717 
L 743.727273 504.170983 
L 775.431818 478.519515 
L 807.136364 466.151734 
L 838.840909 457.995049 
L 870.545455 470.209754 
L 902.25 513.972572 
L 933.954545 538.505119 
" style="fill:none;stroke:#36ada4;stroke-linecap:square;stroke-width:3;"/>
   </g>
   <g id="line2d_94"/>
   <g id="line2d_95"/>
   <g id="line2d_96"/>
   <g id="line2d_97"/>
   <g id="line2d_98"/>
   <g id="line2d_99"/>
   <g id="line2d_100"/>
   <g id="line2d_101"/>
   <g id="line2d_102"/>
   <g id="line2d_103"/>
   <g id="line2d_104"/>
   <g id="line2d_105"/>
   <g id="line2d_106"/>
   <g id="line2d_107"/>
   <g id="line2d_108"/>
   <g id="line2d_109"/>
   <g id="line2d_110"/>
   <g id="line2d_111"/>
   <g id="line2d_112"/>
   <g id="line2d_113"/>
   <g id="line2d_114"/>
   <g id="line2d_115"/>
   <g id="line2d_116"/>
   <g id="line2d_117"/>
   <g id="line2d_118"/>
   <g id="line2d_119">
    <path clip-path="url(#p7b08e0a775)" d="M 173.045455 361.205648 
L 204.75 437.862779 
L 236.454545 492.424767 
L 268.159091 527.364732 
L 299.863636 464.863952 
L 331.568182 438.67877 
L 363.272727 467.373501 
L 394.977273 480.518264 
L 426.681818 497.974592 
L 458.386364 488.173977 
L 490.090909 493.778466 
L 521.795455 516.886194 
L 553.5 523.914235 
L 585.204545 515.346055 
L 616.909091 554.47653 
L 648.613636 543.010407 
L 680.318182 551.742308 
L 712.022727 536.569224 
L 743.727273 529.504781 
L 775.431818 512.427957 
L 807.136364 536.715959 
L 838.840909 530.119941 
L 870.545455 542.543172 
L 902.25 539.332752 
L 933.954545 540.682815 
" style="fill:none;stroke:#a48cf4;stroke-linecap:square;stroke-width:3;"/>
   </g>
   <g id="patch_3">
    <path d="M 135 630 
L 135 86.4 
" style="fill:none;stroke:#000000;stroke-linecap:square;stroke-linejoin:miter;stroke-width:0.8;"/>
   </g>
   <g id="patch_4">
    <path d="M 972 630 
L 972 86.4 
" style="fill:none;stroke:#000000;stroke-linecap:square;stroke-linejoin:miter;stroke-width:0.8;"/>
   </g>
   <g id="patch_5">
    <path d="M 135 630 
L 972 630 
" style="fill:none;stroke:#000000;stroke-linecap:square;stroke-linejoin:miter;stroke-width:0.8;"/>
   </g>
   <g id="patch_6">
    <path d="M 135 86.4 
L 972 86.4 
" style="fill:none;stroke:#000000;stroke-linecap:square;stroke-linejoin:miter;stroke-width:0.8;"/>
   </g>
   <g id="text_18">
    <!-- Cross Correlation Max with SEM -->
    <defs>
     <path d="M 4.203125 54.6875 
L 13.1875 54.6875 
L 24.421875 12.015625 
L 35.59375 54.6875 
L 46.1875 54.6875 
L 57.421875 12.015625 
L 68.609375 54.6875 
L 77.59375 54.6875 
L 63.28125 0 
L 52.6875 0 
L 40.921875 44.828125 
L 29.109375 0 
L 18.5 0 
z
" id="DejaVuSans-119"/>
     <path d="M 54.890625 33.015625 
L 54.890625 0 
L 45.90625 0 
L 45.90625 32.71875 
Q 45.90625 40.484375 42.875 44.328125 
Q 39.84375 48.1875 33.796875 48.1875 
Q 26.515625 48.1875 22.3125 43.546875 
Q 18.109375 38.921875 18.109375 30.90625 
L 18.109375 0 
L 9.078125 0 
L 9.078125 75.984375 
L 18.109375 75.984375 
L 18.109375 46.1875 
Q 21.34375 51.125 25.703125 53.5625 
Q 30.078125 56 35.796875 56 
Q 45.21875 56 50.046875 50.171875 
Q 54.890625 44.34375 54.890625 33.015625 
z
" id="DejaVuSans-104"/>
     <path d="M 53.515625 70.515625 
L 53.515625 60.890625 
Q 47.90625 63.578125 42.921875 64.890625 
Q 37.9375 66.21875 33.296875 66.21875 
Q 25.25 66.21875 20.875 63.09375 
Q 16.5 59.96875 16.5 54.203125 
Q 16.5 49.359375 19.40625 46.890625 
Q 22.3125 44.4375 30.421875 42.921875 
L 36.375 41.703125 
Q 47.40625 39.59375 52.65625 34.296875 
Q 57.90625 29 57.90625 20.125 
Q 57.90625 9.515625 50.796875 4.046875 
Q 43.703125 -1.421875 29.984375 -1.421875 
Q 24.8125 -1.421875 18.96875 -0.25 
Q 13.140625 0.921875 6.890625 3.21875 
L 6.890625 13.375 
Q 12.890625 10.015625 18.65625 8.296875 
Q 24.421875 6.59375 29.984375 6.59375 
Q 38.421875 6.59375 43.015625 9.90625 
Q 47.609375 13.234375 47.609375 19.390625 
Q 47.609375 24.75 44.3125 27.78125 
Q 41.015625 30.8125 33.5 32.328125 
L 27.484375 33.5 
Q 16.453125 35.6875 11.515625 40.375 
Q 6.59375 45.0625 6.59375 53.421875 
Q 6.59375 63.09375 13.40625 68.65625 
Q 20.21875 74.21875 32.171875 74.21875 
Q 37.3125 74.21875 42.625 73.28125 
Q 47.953125 72.359375 53.515625 70.515625 
z
" id="DejaVuSans-83"/>
     <path d="M 9.8125 72.90625 
L 55.90625 72.90625 
L 55.90625 64.59375 
L 19.671875 64.59375 
L 19.671875 43.015625 
L 54.390625 43.015625 
L 54.390625 34.71875 
L 19.671875 34.71875 
L 19.671875 8.296875 
L 56.78125 8.296875 
L 56.78125 0 
L 9.8125 0 
z
" id="DejaVuSans-69"/>
    </defs>
    <g transform="translate(458.065313 80.4)scale(0.12 -0.12)">
     <use xlink:href="#DejaVuSans-67"/>
     <use x="69.824219" xlink:href="#DejaVuSans-114"/>
     <use x="110.90625" xlink:href="#DejaVuSans-111"/>
     <use x="172.087891" xlink:href="#DejaVuSans-115"/>
     <use x="224.1875" xlink:href="#DejaVuSans-115"/>
     <use x="276.287109" xlink:href="#DejaVuSans-32"/>
     <use x="308.074219" xlink:href="#DejaVuSans-67"/>
     <use x="377.898438" xlink:href="#DejaVuSans-111"/>
     <use x="439.080078" xlink:href="#DejaVuSans-114"/>
     <use x="480.177734" xlink:href="#DejaVuSans-114"/>
     <use x="521.259766" xlink:href="#DejaVuSans-101"/>
     <use x="582.783203" xlink:href="#DejaVuSans-108"/>
     <use x="610.566406" xlink:href="#DejaVuSans-97"/>
     <use x="671.845703" xlink:href="#DejaVuSans-116"/>
     <use x="711.054688" xlink:href="#DejaVuSans-105"/>
     <use x="738.837891" xlink:href="#DejaVuSans-111"/>
     <use x="800.019531" xlink:href="#DejaVuSans-110"/>
     <use x="863.398438" xlink:href="#DejaVuSans-32"/>
     <use x="895.185547" xlink:href="#DejaVuSans-77"/>
     <use x="981.464844" xlink:href="#DejaVuSans-97"/>
     <use x="1042.744141" xlink:href="#DejaVuSans-120"/>
     <use x="1101.923828" xlink:href="#DejaVuSans-32"/>
     <use x="1133.710938" xlink:href="#DejaVuSans-119"/>
     <use x="1215.498047" xlink:href="#DejaVuSans-105"/>
     <use x="1243.28125" xlink:href="#DejaVuSans-116"/>
     <use x="1282.490234" xlink:href="#DejaVuSans-104"/>
     <use x="1345.869141" xlink:href="#DejaVuSans-32"/>
     <use x="1377.65625" xlink:href="#DejaVuSans-83"/>
     <use x="1441.132812" xlink:href="#DejaVuSans-69"/>
     <use x="1504.316406" xlink:href="#DejaVuSans-77"/>
    </g>
   </g>
  </g>
 </g>
 <defs>
  <clipPath id="p7b08e0a775">
   <rect height="543.6" width="837" x="135" y="86.4"/>
  </clipPath>
 </defs>
</svg>
