<?xml version="1.0" encoding="utf-8" standalone="no"?>
<!DOCTYPE svg PUBLIC "-//W3C//DTD SVG 1.1//EN"
  "http://www.w3.org/Graphics/SVG/1.1/DTD/svg11.dtd">
<!-- Created with matplotlib (https://matplotlib.org/) -->
<svg height="720pt" version="1.1" viewBox="0 0 1080 720" width="1080pt" xmlns="http://www.w3.org/2000/svg" xmlns:xlink="http://www.w3.org/1999/xlink">
 <defs>
  <style type="text/css">
*{stroke-linecap:butt;stroke-linejoin:round;}
  </style>
 </defs>
 <g id="figure_1">
  <g id="patch_1">
   <path d="M 0 720 
L 1080 720 
L 1080 0 
L 0 0 
z
" style="fill:#ffffff;"/>
  </g>
  <g id="axes_1">
   <g id="patch_2">
    <path d="M 135 630 
L 972 630 
L 972 86.4 
L 135 86.4 
z
" style="fill:#ffffff;"/>
   </g>
   <g id="matplotlib.axis_1">
    <g id="xtick_1">
     <g id="line2d_1">
      <defs>
       <path d="M 0 0 
L 0 3.5 
" id="m1c61fe7d14" style="stroke:#000000;stroke-width:0.8;"/>
      </defs>
      <g>
       <use style="stroke:#000000;stroke-width:0.8;" x="173.045455" xlink:href="#m1c61fe7d14" y="630"/>
      </g>
     </g>
     <g id="text_1">
      <!-- 0 -->
      <defs>
       <path d="M 31.78125 66.40625 
Q 24.171875 66.40625 20.328125 58.90625 
Q 16.5 51.421875 16.5 36.375 
Q 16.5 21.390625 20.328125 13.890625 
Q 24.171875 6.390625 31.78125 6.390625 
Q 39.453125 6.390625 43.28125 13.890625 
Q 47.125 21.390625 47.125 36.375 
Q 47.125 51.421875 43.28125 58.90625 
Q 39.453125 66.40625 31.78125 66.40625 
z
M 31.78125 74.21875 
Q 44.046875 74.21875 50.515625 64.515625 
Q 56.984375 54.828125 56.984375 36.375 
Q 56.984375 17.96875 50.515625 8.265625 
Q 44.046875 -1.421875 31.78125 -1.421875 
Q 19.53125 -1.421875 13.0625 8.265625 
Q 6.59375 17.96875 6.59375 36.375 
Q 6.59375 54.828125 13.0625 64.515625 
Q 19.53125 74.21875 31.78125 74.21875 
z
" id="DejaVuSans-48"/>
      </defs>
      <g transform="translate(169.864205 644.598438)scale(0.1 -0.1)">
       <use xlink:href="#DejaVuSans-48"/>
      </g>
     </g>
    </g>
    <g id="xtick_2">
     <g id="line2d_2">
      <g>
       <use style="stroke:#000000;stroke-width:0.8;" x="300.287777" xlink:href="#m1c61fe7d14" y="630"/>
      </g>
     </g>
     <g id="text_2">
      <!-- 50 -->
      <defs>
       <path d="M 10.796875 72.90625 
L 49.515625 72.90625 
L 49.515625 64.59375 
L 19.828125 64.59375 
L 19.828125 46.734375 
Q 21.96875 47.46875 24.109375 47.828125 
Q 26.265625 48.1875 28.421875 48.1875 
Q 40.625 48.1875 47.75 41.5 
Q 54.890625 34.8125 54.890625 23.390625 
Q 54.890625 11.625 47.5625 5.09375 
Q 40.234375 -1.421875 26.90625 -1.421875 
Q 22.3125 -1.421875 17.546875 -0.640625 
Q 12.796875 0.140625 7.71875 1.703125 
L 7.71875 11.625 
Q 12.109375 9.234375 16.796875 8.0625 
Q 21.484375 6.890625 26.703125 6.890625 
Q 35.15625 6.890625 40.078125 11.328125 
Q 45.015625 15.765625 45.015625 23.390625 
Q 45.015625 31 40.078125 35.4375 
Q 35.15625 39.890625 26.703125 39.890625 
Q 22.75 39.890625 18.8125 39.015625 
Q 14.890625 38.140625 10.796875 36.28125 
z
" id="DejaVuSans-53"/>
      </defs>
      <g transform="translate(293.925277 644.598438)scale(0.1 -0.1)">
       <use xlink:href="#DejaVuSans-53"/>
       <use x="63.623047" xlink:href="#DejaVuSans-48"/>
      </g>
     </g>
    </g>
    <g id="xtick_3">
     <g id="line2d_3">
      <g>
       <use style="stroke:#000000;stroke-width:0.8;" x="427.5301" xlink:href="#m1c61fe7d14" y="630"/>
      </g>
     </g>
     <g id="text_3">
      <!-- 100 -->
      <defs>
       <path d="M 12.40625 8.296875 
L 28.515625 8.296875 
L 28.515625 63.921875 
L 10.984375 60.40625 
L 10.984375 69.390625 
L 28.421875 72.90625 
L 38.28125 72.90625 
L 38.28125 8.296875 
L 54.390625 8.296875 
L 54.390625 0 
L 12.40625 0 
z
" id="DejaVuSans-49"/>
      </defs>
      <g transform="translate(417.98635 644.598438)scale(0.1 -0.1)">
       <use xlink:href="#DejaVuSans-49"/>
       <use x="63.623047" xlink:href="#DejaVuSans-48"/>
       <use x="127.246094" xlink:href="#DejaVuSans-48"/>
      </g>
     </g>
    </g>
    <g id="xtick_4">
     <g id="line2d_4">
      <g>
       <use style="stroke:#000000;stroke-width:0.8;" x="554.772423" xlink:href="#m1c61fe7d14" y="630"/>
      </g>
     </g>
     <g id="text_4">
      <!-- 150 -->
      <g transform="translate(545.228673 644.598438)scale(0.1 -0.1)">
       <use xlink:href="#DejaVuSans-49"/>
       <use x="63.623047" xlink:href="#DejaVuSans-53"/>
       <use x="127.246094" xlink:href="#DejaVuSans-48"/>
      </g>
     </g>
    </g>
    <g id="xtick_5">
     <g id="line2d_5">
      <g>
       <use style="stroke:#000000;stroke-width:0.8;" x="682.014746" xlink:href="#m1c61fe7d14" y="630"/>
      </g>
     </g>
     <g id="text_5">
      <!-- 200 -->
      <defs>
       <path d="M 19.1875 8.296875 
L 53.609375 8.296875 
L 53.609375 0 
L 7.328125 0 
L 7.328125 8.296875 
Q 12.9375 14.109375 22.625 23.890625 
Q 32.328125 33.6875 34.8125 36.53125 
Q 39.546875 41.84375 41.421875 45.53125 
Q 43.3125 49.21875 43.3125 52.78125 
Q 43.3125 58.59375 39.234375 62.25 
Q 35.15625 65.921875 28.609375 65.921875 
Q 23.96875 65.921875 18.8125 64.3125 
Q 13.671875 62.703125 7.8125 59.421875 
L 7.8125 69.390625 
Q 13.765625 71.78125 18.9375 73 
Q 24.125 74.21875 28.421875 74.21875 
Q 39.75 74.21875 46.484375 68.546875 
Q 53.21875 62.890625 53.21875 53.421875 
Q 53.21875 48.921875 51.53125 44.890625 
Q 49.859375 40.875 45.40625 35.40625 
Q 44.1875 33.984375 37.640625 27.21875 
Q 31.109375 20.453125 19.1875 8.296875 
z
" id="DejaVuSans-50"/>
      </defs>
      <g transform="translate(672.470996 644.598438)scale(0.1 -0.1)">
       <use xlink:href="#DejaVuSans-50"/>
       <use x="63.623047" xlink:href="#DejaVuSans-48"/>
       <use x="127.246094" xlink:href="#DejaVuSans-48"/>
      </g>
     </g>
    </g>
    <g id="xtick_6">
     <g id="line2d_6">
      <g>
       <use style="stroke:#000000;stroke-width:0.8;" x="809.257069" xlink:href="#m1c61fe7d14" y="630"/>
      </g>
     </g>
     <g id="text_6">
      <!-- 250 -->
      <g transform="translate(799.713319 644.598438)scale(0.1 -0.1)">
       <use xlink:href="#DejaVuSans-50"/>
       <use x="63.623047" xlink:href="#DejaVuSans-53"/>
       <use x="127.246094" xlink:href="#DejaVuSans-48"/>
      </g>
     </g>
    </g>
    <g id="xtick_7">
     <g id="line2d_7">
      <g>
       <use style="stroke:#000000;stroke-width:0.8;" x="936.499392" xlink:href="#m1c61fe7d14" y="630"/>
      </g>
     </g>
     <g id="text_7">
      <!-- 300 -->
      <defs>
       <path d="M 40.578125 39.3125 
Q 47.65625 37.796875 51.625 33 
Q 55.609375 28.21875 55.609375 21.1875 
Q 55.609375 10.40625 48.1875 4.484375 
Q 40.765625 -1.421875 27.09375 -1.421875 
Q 22.515625 -1.421875 17.65625 -0.515625 
Q 12.796875 0.390625 7.625 2.203125 
L 7.625 11.71875 
Q 11.71875 9.328125 16.59375 8.109375 
Q 21.484375 6.890625 26.8125 6.890625 
Q 36.078125 6.890625 40.9375 10.546875 
Q 45.796875 14.203125 45.796875 21.1875 
Q 45.796875 27.640625 41.28125 31.265625 
Q 36.765625 34.90625 28.71875 34.90625 
L 20.21875 34.90625 
L 20.21875 43.015625 
L 29.109375 43.015625 
Q 36.375 43.015625 40.234375 45.921875 
Q 44.09375 48.828125 44.09375 54.296875 
Q 44.09375 59.90625 40.109375 62.90625 
Q 36.140625 65.921875 28.71875 65.921875 
Q 24.65625 65.921875 20.015625 65.03125 
Q 15.375 64.15625 9.8125 62.3125 
L 9.8125 71.09375 
Q 15.4375 72.65625 20.34375 73.4375 
Q 25.25 74.21875 29.59375 74.21875 
Q 40.828125 74.21875 47.359375 69.109375 
Q 53.90625 64.015625 53.90625 55.328125 
Q 53.90625 49.265625 50.4375 45.09375 
Q 46.96875 40.921875 40.578125 39.3125 
z
" id="DejaVuSans-51"/>
      </defs>
      <g transform="translate(926.955642 644.598438)scale(0.1 -0.1)">
       <use xlink:href="#DejaVuSans-51"/>
       <use x="63.623047" xlink:href="#DejaVuSans-48"/>
       <use x="127.246094" xlink:href="#DejaVuSans-48"/>
      </g>
     </g>
    </g>
   </g>
   <g id="matplotlib.axis_2">
    <g id="ytick_1">
     <g id="line2d_8">
      <defs>
       <path d="M 0 0 
L -3.5 0 
" id="m0fd872d574" style="stroke:#000000;stroke-width:0.8;"/>
      </defs>
      <g>
       <use style="stroke:#000000;stroke-width:0.8;" x="135" xlink:href="#m0fd872d574" y="630"/>
      </g>
     </g>
     <g id="text_8">
      <!-- 0 -->
      <g transform="translate(121.6375 633.799219)scale(0.1 -0.1)">
       <use xlink:href="#DejaVuSans-48"/>
      </g>
     </g>
    </g>
    <g id="ytick_2">
     <g id="line2d_9">
      <g>
       <use style="stroke:#000000;stroke-width:0.8;" x="135" xlink:href="#m0fd872d574" y="562.05"/>
      </g>
     </g>
     <g id="text_9">
      <!-- 25 -->
      <g transform="translate(115.275 565.849219)scale(0.1 -0.1)">
       <use xlink:href="#DejaVuSans-50"/>
       <use x="63.623047" xlink:href="#DejaVuSans-53"/>
      </g>
     </g>
    </g>
    <g id="ytick_3">
     <g id="line2d_10">
      <g>
       <use style="stroke:#000000;stroke-width:0.8;" x="135" xlink:href="#m0fd872d574" y="494.1"/>
      </g>
     </g>
     <g id="text_10">
      <!-- 50 -->
      <g transform="translate(115.275 497.899219)scale(0.1 -0.1)">
       <use xlink:href="#DejaVuSans-53"/>
       <use x="63.623047" xlink:href="#DejaVuSans-48"/>
      </g>
     </g>
    </g>
    <g id="ytick_4">
     <g id="line2d_11">
      <g>
       <use style="stroke:#000000;stroke-width:0.8;" x="135" xlink:href="#m0fd872d574" y="426.15"/>
      </g>
     </g>
     <g id="text_11">
      <!-- 75 -->
      <defs>
       <path d="M 8.203125 72.90625 
L 55.078125 72.90625 
L 55.078125 68.703125 
L 28.609375 0 
L 18.3125 0 
L 43.21875 64.59375 
L 8.203125 64.59375 
z
" id="DejaVuSans-55"/>
      </defs>
      <g transform="translate(115.275 429.949219)scale(0.1 -0.1)">
       <use xlink:href="#DejaVuSans-55"/>
       <use x="63.623047" xlink:href="#DejaVuSans-53"/>
      </g>
     </g>
    </g>
    <g id="ytick_5">
     <g id="line2d_12">
      <g>
       <use style="stroke:#000000;stroke-width:0.8;" x="135" xlink:href="#m0fd872d574" y="358.2"/>
      </g>
     </g>
     <g id="text_12">
      <!-- 100 -->
      <g transform="translate(108.9125 361.999219)scale(0.1 -0.1)">
       <use xlink:href="#DejaVuSans-49"/>
       <use x="63.623047" xlink:href="#DejaVuSans-48"/>
       <use x="127.246094" xlink:href="#DejaVuSans-48"/>
      </g>
     </g>
    </g>
    <g id="ytick_6">
     <g id="line2d_13">
      <g>
       <use style="stroke:#000000;stroke-width:0.8;" x="135" xlink:href="#m0fd872d574" y="290.25"/>
      </g>
     </g>
     <g id="text_13">
      <!-- 125 -->
      <g transform="translate(108.9125 294.049219)scale(0.1 -0.1)">
       <use xlink:href="#DejaVuSans-49"/>
       <use x="63.623047" xlink:href="#DejaVuSans-50"/>
       <use x="127.246094" xlink:href="#DejaVuSans-53"/>
      </g>
     </g>
    </g>
    <g id="ytick_7">
     <g id="line2d_14">
      <g>
       <use style="stroke:#000000;stroke-width:0.8;" x="135" xlink:href="#m0fd872d574" y="222.3"/>
      </g>
     </g>
     <g id="text_14">
      <!-- 150 -->
      <g transform="translate(108.9125 226.099219)scale(0.1 -0.1)">
       <use xlink:href="#DejaVuSans-49"/>
       <use x="63.623047" xlink:href="#DejaVuSans-53"/>
       <use x="127.246094" xlink:href="#DejaVuSans-48"/>
      </g>
     </g>
    </g>
    <g id="ytick_8">
     <g id="line2d_15">
      <g>
       <use style="stroke:#000000;stroke-width:0.8;" x="135" xlink:href="#m0fd872d574" y="154.35"/>
      </g>
     </g>
     <g id="text_15">
      <!-- 175 -->
      <g transform="translate(108.9125 158.149219)scale(0.1 -0.1)">
       <use xlink:href="#DejaVuSans-49"/>
       <use x="63.623047" xlink:href="#DejaVuSans-55"/>
       <use x="127.246094" xlink:href="#DejaVuSans-53"/>
      </g>
     </g>
    </g>
    <g id="ytick_9">
     <g id="line2d_16">
      <g>
       <use style="stroke:#000000;stroke-width:0.8;" x="135" xlink:href="#m0fd872d574" y="86.4"/>
      </g>
     </g>
     <g id="text_16">
      <!-- 200 -->
      <g transform="translate(108.9125 90.199219)scale(0.1 -0.1)">
       <use xlink:href="#DejaVuSans-50"/>
       <use x="63.623047" xlink:href="#DejaVuSans-48"/>
       <use x="127.246094" xlink:href="#DejaVuSans-48"/>
      </g>
     </g>
    </g>
   </g>
   <g id="line2d_17">
    <path clip-path="url(#peda7397808)" d="M 173.045455 346.894816 
L 178.135147 331.985061 
L 183.22484 316.123759 
L 188.314533 299.307507 
L 201.038766 255.83156 
L 203.583612 248.126434 
L 206.128458 241.021266 
L 208.673305 234.535094 
L 211.218151 228.632206 
L 213.762998 223.233289 
L 216.307844 218.266891 
L 218.852691 213.682046 
L 221.397537 209.468679 
L 223.942384 205.622266 
L 226.48723 202.127122 
L 229.032077 198.981116 
L 231.576923 196.219158 
L 234.12177 193.899493 
L 236.666616 192.056232 
L 239.211462 190.665894 
L 241.756309 189.634211 
L 244.301155 188.868745 
L 246.846002 188.302541 
L 249.390848 187.871157 
L 251.935695 187.557395 
L 254.480541 187.374562 
L 257.025388 187.342779 
L 259.570234 187.51378 
L 262.115081 187.95817 
L 264.659927 188.749251 
L 267.204773 189.937637 
L 269.74962 191.566154 
L 272.294466 193.673573 
L 274.839313 196.285288 
L 277.384159 199.411423 
L 279.929006 203.037979 
L 282.473852 207.151605 
L 285.018699 211.710662 
L 287.563545 216.640745 
L 292.653238 227.295548 
L 300.287777 243.619262 
L 302.832624 248.701017 
L 307.922317 258.124929 
L 315.556856 271.500371 
L 318.101703 276.380185 
L 320.646549 281.767627 
L 323.191396 287.820111 
L 325.736242 294.631277 
L 328.281088 302.208519 
L 330.825935 310.450714 
L 341.005321 345.256919 
L 343.550167 352.881296 
L 346.095014 359.525717 
L 348.63986 365.049232 
L 351.184707 369.412283 
L 353.729553 372.669133 
L 356.2744 374.954388 
L 358.819246 376.49252 
L 361.364092 377.52168 
L 368.998632 379.766777 
L 371.543478 380.825364 
L 374.088325 382.173743 
L 376.633171 383.777566 
L 384.267711 389.030999 
L 386.812557 390.597764 
L 389.357403 391.967353 
L 391.90225 393.081804 
L 394.447096 393.876387 
L 396.991943 394.301273 
L 399.536789 394.296156 
L 402.081636 393.792064 
L 404.626482 392.736119 
L 407.171329 391.103927 
L 409.716175 388.88998 
L 412.261022 386.099961 
L 414.805868 382.751207 
L 417.350715 378.893079 
L 419.895561 374.59309 
L 422.440407 369.901678 
L 424.985254 364.884883 
L 427.5301 359.596723 
L 430.074947 354.036523 
L 432.619793 348.173639 
L 435.16464 341.963335 
L 437.709486 335.359611 
L 440.254333 328.353057 
L 445.344026 313.28029 
L 452.978565 289.685302 
L 455.523411 282.161531 
L 458.068258 275.068202 
L 460.613104 268.517944 
L 463.157951 262.591353 
L 465.702797 257.321053 
L 468.247644 252.680019 
L 470.79249 248.608535 
L 473.337337 244.961834 
L 486.061569 227.754252 
L 493.696108 216.857664 
L 496.240955 213.606071 
L 498.785801 210.783253 
L 501.330648 208.537604 
L 503.875494 206.970789 
L 506.420341 206.150283 
L 508.965187 206.10431 
L 511.510033 206.799175 
L 514.05488 208.177638 
L 516.599726 210.196898 
L 519.144573 212.794085 
L 521.689419 215.928501 
L 524.234266 219.599278 
L 526.779112 223.788971 
L 529.323959 228.466689 
L 531.868805 233.583844 
L 536.958498 244.802137 
L 544.593037 262.235664 
L 547.137884 267.598116 
L 549.68273 272.519017 
L 552.227577 276.934125 
L 554.772423 280.867799 
L 559.862116 287.835769 
L 562.406963 291.296693 
L 564.951809 295.050963 
L 567.496656 299.317948 
L 570.041502 304.254713 
L 572.586348 309.930085 
L 575.131195 316.333393 
L 577.676041 323.365938 
L 582.765734 338.555797 
L 587.855427 353.628801 
L 590.400274 360.548884 
L 592.94512 366.877416 
L 595.489967 372.583561 
L 598.034813 377.667343 
L 600.579659 382.196229 
L 603.124506 386.281463 
L 605.669352 390.010747 
L 610.759045 396.760232 
L 615.848738 402.87702 
L 620.938431 408.450659 
L 623.483278 410.998494 
L 626.028124 413.334194 
L 628.572971 415.41881 
L 631.117817 417.220524 
L 633.662663 418.730119 
L 636.20751 419.941582 
L 638.752356 420.842999 
L 641.297203 421.388618 
L 643.842049 421.520011 
L 646.386896 421.245107 
L 648.931742 420.567188 
L 651.476589 419.468953 
L 654.021435 417.946559 
L 656.566282 415.981981 
L 659.111128 413.563798 
L 661.655974 410.72176 
L 664.200821 407.523876 
L 674.380207 393.814947 
L 676.925053 390.962344 
L 679.4699 388.51104 
L 682.014746 386.436941 
L 684.559593 384.6712 
L 689.649285 381.708529 
L 692.194132 380.30605 
L 694.738978 378.764116 
L 697.283825 376.930945 
L 699.828671 374.648722 
L 702.373518 371.796047 
L 704.918364 368.285354 
L 707.463211 364.068222 
L 710.008057 359.152549 
L 712.552904 353.578216 
L 715.09775 347.44129 
L 717.642597 340.866404 
L 722.732289 326.916704 
L 727.821982 312.962046 
L 730.366829 306.385278 
L 732.911675 300.225938 
L 735.456522 294.534817 
L 738.001368 289.292359 
L 740.546215 284.448291 
L 743.091061 279.93715 
L 748.180754 271.604616 
L 753.270447 263.840941 
L 758.36014 256.539846 
L 760.904986 253.133687 
L 763.449833 249.93028 
L 765.994679 246.960602 
L 768.539526 244.260606 
L 771.084372 241.872601 
L 773.629219 239.824307 
L 776.174065 238.134844 
L 778.718912 236.807004 
L 781.263758 235.8116 
L 783.808604 235.109619 
L 786.353451 234.681327 
L 788.898297 234.494389 
L 791.443144 234.502944 
L 793.98799 234.67266 
L 796.532837 234.983517 
L 801.62253 235.900226 
L 806.712223 236.834517 
L 809.257069 237.136535 
L 811.801915 237.287505 
L 816.891608 237.362299 
L 819.436455 237.547132 
L 821.981301 238.048452 
L 824.526148 239.040045 
L 827.070994 240.678378 
L 829.615841 243.046112 
L 832.160687 246.131132 
L 834.705534 249.814917 
L 842.340073 262.181916 
L 844.884919 265.84239 
L 847.429766 268.86201 
L 849.974612 271.108644 
L 852.519459 272.544857 
L 855.064305 273.230179 
L 857.609152 273.304119 
L 860.153998 272.937632 
L 862.698845 272.294916 
L 870.333384 269.980799 
L 875.423077 268.758762 
L 880.51277 267.491324 
L 883.057616 266.607022 
L 885.602463 265.472514 
L 888.147309 264.028205 
L 890.692156 262.19056 
L 893.237002 259.905027 
L 895.781849 257.158613 
L 898.326695 253.967031 
L 900.871542 250.368193 
L 903.416388 246.409804 
L 913.595774 229.544148 
L 916.14062 225.930838 
L 918.685467 222.838066 
L 921.230313 220.303268 
L 923.77516 218.33178 
L 926.320006 216.945796 
L 928.864853 216.16312 
L 931.409699 215.933082 
L 933.954545 216.131324 
L 933.954545 216.131324 
" style="fill:none;stroke:#1f77b4;stroke-linecap:square;stroke-width:1.5;"/>
   </g>
   <g id="patch_3">
    <path d="M 135 630 
L 135 86.4 
" style="fill:none;stroke:#000000;stroke-linecap:square;stroke-linejoin:miter;stroke-width:0.8;"/>
   </g>
   <g id="patch_4">
    <path d="M 972 630 
L 972 86.4 
" style="fill:none;stroke:#000000;stroke-linecap:square;stroke-linejoin:miter;stroke-width:0.8;"/>
   </g>
   <g id="patch_5">
    <path d="M 135 630 
L 972 630 
" style="fill:none;stroke:#000000;stroke-linecap:square;stroke-linejoin:miter;stroke-width:0.8;"/>
   </g>
   <g id="patch_6">
    <path d="M 135 86.4 
L 972 86.4 
" style="fill:none;stroke:#000000;stroke-linecap:square;stroke-linejoin:miter;stroke-width:0.8;"/>
   </g>
  </g>
 </g>
 <defs>
  <clipPath id="peda7397808">
   <rect height="543.6" width="837" x="135" y="86.4"/>
  </clipPath>
 </defs>
</svg>
