<?xml version="1.0" encoding="utf-8" standalone="no"?>
<!DOCTYPE svg PUBLIC "-//W3C//DTD SVG 1.1//EN"
  "http://www.w3.org/Graphics/SVG/1.1/DTD/svg11.dtd">
<!-- Created with matplotlib (https://matplotlib.org/) -->
<svg height="720pt" version="1.1" viewBox="0 0 1080 720" width="1080pt" xmlns="http://www.w3.org/2000/svg" xmlns:xlink="http://www.w3.org/1999/xlink">
 <defs>
  <style type="text/css">
*{stroke-linecap:butt;stroke-linejoin:round;}
  </style>
 </defs>
 <g id="figure_1">
  <g id="patch_1">
   <path d="M 0 720 
L 1080 720 
L 1080 0 
L 0 0 
z
" style="fill:#ffffff;"/>
  </g>
  <g id="axes_1">
   <g id="patch_2">
    <path d="M 135 630 
L 972 630 
L 972 86.4 
L 135 86.4 
z
" style="fill:#ffffff;"/>
   </g>
   <g id="matplotlib.axis_1">
    <g id="xtick_1">
     <g id="line2d_1">
      <defs>
       <path d="M 0 0 
L 0 3.5 
" id="mfbc8529cac" style="stroke:#000000;stroke-width:0.8;"/>
      </defs>
      <g>
       <use style="stroke:#000000;stroke-width:0.8;" x="173.045455" xlink:href="#mfbc8529cac" y="630"/>
      </g>
     </g>
     <g id="text_1">
      <!-- 0 -->
      <defs>
       <path d="M 31.78125 66.40625 
Q 24.171875 66.40625 20.328125 58.90625 
Q 16.5 51.421875 16.5 36.375 
Q 16.5 21.390625 20.328125 13.890625 
Q 24.171875 6.390625 31.78125 6.390625 
Q 39.453125 6.390625 43.28125 13.890625 
Q 47.125 21.390625 47.125 36.375 
Q 47.125 51.421875 43.28125 58.90625 
Q 39.453125 66.40625 31.78125 66.40625 
z
M 31.78125 74.21875 
Q 44.046875 74.21875 50.515625 64.515625 
Q 56.984375 54.828125 56.984375 36.375 
Q 56.984375 17.96875 50.515625 8.265625 
Q 44.046875 -1.421875 31.78125 -1.421875 
Q 19.53125 -1.421875 13.0625 8.265625 
Q 6.59375 17.96875 6.59375 36.375 
Q 6.59375 54.828125 13.0625 64.515625 
Q 19.53125 74.21875 31.78125 74.21875 
z
" id="DejaVuSans-48"/>
      </defs>
      <g transform="translate(169.864205 644.598438)scale(0.1 -0.1)">
       <use xlink:href="#DejaVuSans-48"/>
      </g>
     </g>
    </g>
    <g id="xtick_2">
     <g id="line2d_2">
      <g>
       <use style="stroke:#000000;stroke-width:0.8;" x="300.287777" xlink:href="#mfbc8529cac" y="630"/>
      </g>
     </g>
     <g id="text_2">
      <!-- 50 -->
      <defs>
       <path d="M 10.796875 72.90625 
L 49.515625 72.90625 
L 49.515625 64.59375 
L 19.828125 64.59375 
L 19.828125 46.734375 
Q 21.96875 47.46875 24.109375 47.828125 
Q 26.265625 48.1875 28.421875 48.1875 
Q 40.625 48.1875 47.75 41.5 
Q 54.890625 34.8125 54.890625 23.390625 
Q 54.890625 11.625 47.5625 5.09375 
Q 40.234375 -1.421875 26.90625 -1.421875 
Q 22.3125 -1.421875 17.546875 -0.640625 
Q 12.796875 0.140625 7.71875 1.703125 
L 7.71875 11.625 
Q 12.109375 9.234375 16.796875 8.0625 
Q 21.484375 6.890625 26.703125 6.890625 
Q 35.15625 6.890625 40.078125 11.328125 
Q 45.015625 15.765625 45.015625 23.390625 
Q 45.015625 31 40.078125 35.4375 
Q 35.15625 39.890625 26.703125 39.890625 
Q 22.75 39.890625 18.8125 39.015625 
Q 14.890625 38.140625 10.796875 36.28125 
z
" id="DejaVuSans-53"/>
      </defs>
      <g transform="translate(293.925277 644.598438)scale(0.1 -0.1)">
       <use xlink:href="#DejaVuSans-53"/>
       <use x="63.623047" xlink:href="#DejaVuSans-48"/>
      </g>
     </g>
    </g>
    <g id="xtick_3">
     <g id="line2d_3">
      <g>
       <use style="stroke:#000000;stroke-width:0.8;" x="427.5301" xlink:href="#mfbc8529cac" y="630"/>
      </g>
     </g>
     <g id="text_3">
      <!-- 100 -->
      <defs>
       <path d="M 12.40625 8.296875 
L 28.515625 8.296875 
L 28.515625 63.921875 
L 10.984375 60.40625 
L 10.984375 69.390625 
L 28.421875 72.90625 
L 38.28125 72.90625 
L 38.28125 8.296875 
L 54.390625 8.296875 
L 54.390625 0 
L 12.40625 0 
z
" id="DejaVuSans-49"/>
      </defs>
      <g transform="translate(417.98635 644.598438)scale(0.1 -0.1)">
       <use xlink:href="#DejaVuSans-49"/>
       <use x="63.623047" xlink:href="#DejaVuSans-48"/>
       <use x="127.246094" xlink:href="#DejaVuSans-48"/>
      </g>
     </g>
    </g>
    <g id="xtick_4">
     <g id="line2d_4">
      <g>
       <use style="stroke:#000000;stroke-width:0.8;" x="554.772423" xlink:href="#mfbc8529cac" y="630"/>
      </g>
     </g>
     <g id="text_4">
      <!-- 150 -->
      <g transform="translate(545.228673 644.598438)scale(0.1 -0.1)">
       <use xlink:href="#DejaVuSans-49"/>
       <use x="63.623047" xlink:href="#DejaVuSans-53"/>
       <use x="127.246094" xlink:href="#DejaVuSans-48"/>
      </g>
     </g>
    </g>
    <g id="xtick_5">
     <g id="line2d_5">
      <g>
       <use style="stroke:#000000;stroke-width:0.8;" x="682.014746" xlink:href="#mfbc8529cac" y="630"/>
      </g>
     </g>
     <g id="text_5">
      <!-- 200 -->
      <defs>
       <path d="M 19.1875 8.296875 
L 53.609375 8.296875 
L 53.609375 0 
L 7.328125 0 
L 7.328125 8.296875 
Q 12.9375 14.109375 22.625 23.890625 
Q 32.328125 33.6875 34.8125 36.53125 
Q 39.546875 41.84375 41.421875 45.53125 
Q 43.3125 49.21875 43.3125 52.78125 
Q 43.3125 58.59375 39.234375 62.25 
Q 35.15625 65.921875 28.609375 65.921875 
Q 23.96875 65.921875 18.8125 64.3125 
Q 13.671875 62.703125 7.8125 59.421875 
L 7.8125 69.390625 
Q 13.765625 71.78125 18.9375 73 
Q 24.125 74.21875 28.421875 74.21875 
Q 39.75 74.21875 46.484375 68.546875 
Q 53.21875 62.890625 53.21875 53.421875 
Q 53.21875 48.921875 51.53125 44.890625 
Q 49.859375 40.875 45.40625 35.40625 
Q 44.1875 33.984375 37.640625 27.21875 
Q 31.109375 20.453125 19.1875 8.296875 
z
" id="DejaVuSans-50"/>
      </defs>
      <g transform="translate(672.470996 644.598438)scale(0.1 -0.1)">
       <use xlink:href="#DejaVuSans-50"/>
       <use x="63.623047" xlink:href="#DejaVuSans-48"/>
       <use x="127.246094" xlink:href="#DejaVuSans-48"/>
      </g>
     </g>
    </g>
    <g id="xtick_6">
     <g id="line2d_6">
      <g>
       <use style="stroke:#000000;stroke-width:0.8;" x="809.257069" xlink:href="#mfbc8529cac" y="630"/>
      </g>
     </g>
     <g id="text_6">
      <!-- 250 -->
      <g transform="translate(799.713319 644.598438)scale(0.1 -0.1)">
       <use xlink:href="#DejaVuSans-50"/>
       <use x="63.623047" xlink:href="#DejaVuSans-53"/>
       <use x="127.246094" xlink:href="#DejaVuSans-48"/>
      </g>
     </g>
    </g>
    <g id="xtick_7">
     <g id="line2d_7">
      <g>
       <use style="stroke:#000000;stroke-width:0.8;" x="936.499392" xlink:href="#mfbc8529cac" y="630"/>
      </g>
     </g>
     <g id="text_7">
      <!-- 300 -->
      <defs>
       <path d="M 40.578125 39.3125 
Q 47.65625 37.796875 51.625 33 
Q 55.609375 28.21875 55.609375 21.1875 
Q 55.609375 10.40625 48.1875 4.484375 
Q 40.765625 -1.421875 27.09375 -1.421875 
Q 22.515625 -1.421875 17.65625 -0.515625 
Q 12.796875 0.390625 7.625 2.203125 
L 7.625 11.71875 
Q 11.71875 9.328125 16.59375 8.109375 
Q 21.484375 6.890625 26.8125 6.890625 
Q 36.078125 6.890625 40.9375 10.546875 
Q 45.796875 14.203125 45.796875 21.1875 
Q 45.796875 27.640625 41.28125 31.265625 
Q 36.765625 34.90625 28.71875 34.90625 
L 20.21875 34.90625 
L 20.21875 43.015625 
L 29.109375 43.015625 
Q 36.375 43.015625 40.234375 45.921875 
Q 44.09375 48.828125 44.09375 54.296875 
Q 44.09375 59.90625 40.109375 62.90625 
Q 36.140625 65.921875 28.71875 65.921875 
Q 24.65625 65.921875 20.015625 65.03125 
Q 15.375 64.15625 9.8125 62.3125 
L 9.8125 71.09375 
Q 15.4375 72.65625 20.34375 73.4375 
Q 25.25 74.21875 29.59375 74.21875 
Q 40.828125 74.21875 47.359375 69.109375 
Q 53.90625 64.015625 53.90625 55.328125 
Q 53.90625 49.265625 50.4375 45.09375 
Q 46.96875 40.921875 40.578125 39.3125 
z
" id="DejaVuSans-51"/>
      </defs>
      <g transform="translate(926.955642 644.598438)scale(0.1 -0.1)">
       <use xlink:href="#DejaVuSans-51"/>
       <use x="63.623047" xlink:href="#DejaVuSans-48"/>
       <use x="127.246094" xlink:href="#DejaVuSans-48"/>
      </g>
     </g>
    </g>
   </g>
   <g id="matplotlib.axis_2">
    <g id="ytick_1">
     <g id="line2d_8">
      <defs>
       <path d="M 0 0 
L -3.5 0 
" id="mbc01d35ec1" style="stroke:#000000;stroke-width:0.8;"/>
      </defs>
      <g>
       <use style="stroke:#000000;stroke-width:0.8;" x="135" xlink:href="#mbc01d35ec1" y="630"/>
      </g>
     </g>
     <g id="text_8">
      <!-- 0 -->
      <g transform="translate(121.6375 633.799219)scale(0.1 -0.1)">
       <use xlink:href="#DejaVuSans-48"/>
      </g>
     </g>
    </g>
    <g id="ytick_2">
     <g id="line2d_9">
      <g>
       <use style="stroke:#000000;stroke-width:0.8;" x="135" xlink:href="#mbc01d35ec1" y="562.05"/>
      </g>
     </g>
     <g id="text_9">
      <!-- 25 -->
      <g transform="translate(115.275 565.849219)scale(0.1 -0.1)">
       <use xlink:href="#DejaVuSans-50"/>
       <use x="63.623047" xlink:href="#DejaVuSans-53"/>
      </g>
     </g>
    </g>
    <g id="ytick_3">
     <g id="line2d_10">
      <g>
       <use style="stroke:#000000;stroke-width:0.8;" x="135" xlink:href="#mbc01d35ec1" y="494.1"/>
      </g>
     </g>
     <g id="text_10">
      <!-- 50 -->
      <g transform="translate(115.275 497.899219)scale(0.1 -0.1)">
       <use xlink:href="#DejaVuSans-53"/>
       <use x="63.623047" xlink:href="#DejaVuSans-48"/>
      </g>
     </g>
    </g>
    <g id="ytick_4">
     <g id="line2d_11">
      <g>
       <use style="stroke:#000000;stroke-width:0.8;" x="135" xlink:href="#mbc01d35ec1" y="426.15"/>
      </g>
     </g>
     <g id="text_11">
      <!-- 75 -->
      <defs>
       <path d="M 8.203125 72.90625 
L 55.078125 72.90625 
L 55.078125 68.703125 
L 28.609375 0 
L 18.3125 0 
L 43.21875 64.59375 
L 8.203125 64.59375 
z
" id="DejaVuSans-55"/>
      </defs>
      <g transform="translate(115.275 429.949219)scale(0.1 -0.1)">
       <use xlink:href="#DejaVuSans-55"/>
       <use x="63.623047" xlink:href="#DejaVuSans-53"/>
      </g>
     </g>
    </g>
    <g id="ytick_5">
     <g id="line2d_12">
      <g>
       <use style="stroke:#000000;stroke-width:0.8;" x="135" xlink:href="#mbc01d35ec1" y="358.2"/>
      </g>
     </g>
     <g id="text_12">
      <!-- 100 -->
      <g transform="translate(108.9125 361.999219)scale(0.1 -0.1)">
       <use xlink:href="#DejaVuSans-49"/>
       <use x="63.623047" xlink:href="#DejaVuSans-48"/>
       <use x="127.246094" xlink:href="#DejaVuSans-48"/>
      </g>
     </g>
    </g>
    <g id="ytick_6">
     <g id="line2d_13">
      <g>
       <use style="stroke:#000000;stroke-width:0.8;" x="135" xlink:href="#mbc01d35ec1" y="290.25"/>
      </g>
     </g>
     <g id="text_13">
      <!-- 125 -->
      <g transform="translate(108.9125 294.049219)scale(0.1 -0.1)">
       <use xlink:href="#DejaVuSans-49"/>
       <use x="63.623047" xlink:href="#DejaVuSans-50"/>
       <use x="127.246094" xlink:href="#DejaVuSans-53"/>
      </g>
     </g>
    </g>
    <g id="ytick_7">
     <g id="line2d_14">
      <g>
       <use style="stroke:#000000;stroke-width:0.8;" x="135" xlink:href="#mbc01d35ec1" y="222.3"/>
      </g>
     </g>
     <g id="text_14">
      <!-- 150 -->
      <g transform="translate(108.9125 226.099219)scale(0.1 -0.1)">
       <use xlink:href="#DejaVuSans-49"/>
       <use x="63.623047" xlink:href="#DejaVuSans-53"/>
       <use x="127.246094" xlink:href="#DejaVuSans-48"/>
      </g>
     </g>
    </g>
    <g id="ytick_8">
     <g id="line2d_15">
      <g>
       <use style="stroke:#000000;stroke-width:0.8;" x="135" xlink:href="#mbc01d35ec1" y="154.35"/>
      </g>
     </g>
     <g id="text_15">
      <!-- 175 -->
      <g transform="translate(108.9125 158.149219)scale(0.1 -0.1)">
       <use xlink:href="#DejaVuSans-49"/>
       <use x="63.623047" xlink:href="#DejaVuSans-55"/>
       <use x="127.246094" xlink:href="#DejaVuSans-53"/>
      </g>
     </g>
    </g>
    <g id="ytick_9">
     <g id="line2d_16">
      <g>
       <use style="stroke:#000000;stroke-width:0.8;" x="135" xlink:href="#mbc01d35ec1" y="86.4"/>
      </g>
     </g>
     <g id="text_16">
      <!-- 200 -->
      <g transform="translate(108.9125 90.199219)scale(0.1 -0.1)">
       <use xlink:href="#DejaVuSans-50"/>
       <use x="63.623047" xlink:href="#DejaVuSans-48"/>
       <use x="127.246094" xlink:href="#DejaVuSans-48"/>
      </g>
     </g>
    </g>
   </g>
   <g id="line2d_17">
    <path clip-path="url(#p92f53e7a24)" d="M 173.045455 438.681645 
L 175.590301 441.516736 
L 178.135147 443.614473 
L 180.679994 444.937976 
L 183.22484 445.487991 
L 185.769687 445.296144 
L 188.314533 444.40671 
L 190.85938 442.88259 
L 193.404226 440.770664 
L 195.949073 438.086487 
L 198.493919 434.877394 
L 201.038766 431.194975 
L 203.583612 427.08367 
L 208.673305 418.048951 
L 213.762998 408.863779 
L 218.852691 400.310924 
L 221.397537 396.377068 
L 223.942384 392.712879 
L 226.48723 389.338733 
L 229.032077 386.243338 
L 231.576923 383.397757 
L 234.12177 380.801396 
L 236.666616 378.48014 
L 239.211462 376.490286 
L 241.756309 374.920813 
L 244.301155 373.861112 
L 246.846002 373.35804 
L 249.390848 373.457587 
L 251.935695 374.2195 
L 254.480541 375.669883 
L 257.025388 377.791392 
L 259.570234 380.534106 
L 262.115081 383.811946 
L 264.659927 387.497665 
L 269.74962 395.584622 
L 277.384159 408.042188 
L 279.929006 411.911055 
L 282.473852 415.520984 
L 285.018699 418.820275 
L 287.563545 421.753146 
L 290.108392 424.225389 
L 292.653238 426.171246 
L 295.198085 427.575099 
L 297.742931 428.432321 
L 300.287777 428.723032 
L 302.832624 428.401313 
L 305.37747 427.425446 
L 307.922317 425.796313 
L 310.467163 423.566826 
L 313.01201 420.817286 
L 315.556856 417.634358 
L 318.101703 414.045867 
L 320.646549 410.04267 
L 323.191396 405.680405 
L 325.736242 401.012306 
L 330.825935 390.921676 
L 335.915628 380.442467 
L 338.460474 375.447295 
L 341.005321 370.877945 
L 343.550167 366.907911 
L 346.095014 363.678375 
L 348.63986 361.294064 
L 351.184707 359.803693 
L 353.729553 359.178246 
L 356.2744 359.291649 
L 358.819246 359.931327 
L 363.908939 361.917931 
L 368.998632 363.801583 
L 371.543478 364.528203 
L 379.178018 366.284712 
L 381.722864 367.31421 
L 384.267711 368.891512 
L 386.812557 371.14085 
L 389.357403 374.123243 
L 391.90225 377.820039 
L 394.447096 382.173226 
L 396.991943 387.07955 
L 402.081636 397.872082 
L 407.171329 408.560743 
L 409.716175 413.335309 
L 412.261022 417.572814 
L 414.805868 421.248034 
L 417.350715 424.397302 
L 419.895561 427.125491 
L 422.440407 429.57931 
L 424.985254 431.863035 
L 427.5301 433.996599 
L 430.074947 435.950864 
L 432.619793 437.705894 
L 435.16464 439.223733 
L 437.709486 440.452598 
L 440.254333 441.361869 
L 442.799179 441.879288 
L 445.344026 441.903983 
L 447.888872 441.355847 
L 450.433718 440.168945 
L 452.978565 438.321294 
L 455.523411 435.884295 
L 458.068258 432.993523 
L 468.247644 420.25583 
L 470.79249 417.378949 
L 473.337337 414.729304 
L 475.882183 412.324832 
L 478.427029 410.146595 
L 483.516722 406.244593 
L 488.606415 402.498557 
L 491.151262 400.47221 
L 493.696108 398.256722 
L 501.330648 391.156094 
L 503.875494 389.161555 
L 506.420341 387.595108 
L 508.965187 386.567594 
L 511.510033 386.192762 
L 514.05488 386.552855 
L 516.599726 387.730308 
L 519.144573 389.749756 
L 521.689419 392.579779 
L 524.234266 396.162197 
L 526.779112 400.391477 
L 531.868805 409.998476 
L 534.413652 414.868937 
L 536.958498 419.439428 
L 539.503344 423.523697 
L 542.048191 427.027246 
L 544.593037 429.891691 
L 547.137884 432.106043 
L 549.68273 433.713722 
L 552.227577 434.807685 
L 554.772423 435.511525 
L 557.31727 435.943211 
L 559.862116 436.189823 
L 564.951809 436.371705 
L 570.041502 436.337753 
L 572.586348 436.220169 
L 575.131195 435.964078 
L 577.676041 435.542043 
L 580.220888 434.965926 
L 585.310581 433.454933 
L 598.034813 429.431881 
L 603.124506 428.182829 
L 613.303892 426.065924 
L 615.848738 425.352552 
L 618.393585 424.487562 
L 620.938431 423.467959 
L 626.028124 421.055202 
L 631.117817 418.250753 
L 633.662663 416.683165 
L 636.20751 414.937651 
L 638.752356 412.947192 
L 641.297203 410.653257 
L 643.842049 407.997568 
L 646.386896 404.94725 
L 648.931742 401.494369 
L 651.476589 397.660814 
L 656.566282 389.191155 
L 661.655974 380.502763 
L 664.200821 376.396179 
L 666.745667 372.636619 
L 669.290514 369.312149 
L 671.83536 366.442604 
L 674.380207 363.97116 
L 676.925053 361.887529 
L 679.4699 360.212493 
L 682.014746 358.954565 
L 684.559593 358.142091 
L 687.104439 357.828932 
L 689.649285 358.017711 
L 692.194132 358.603716 
L 694.738978 359.446478 
L 707.463211 364.273942 
L 712.552904 365.756461 
L 743.091061 372.667903 
L 748.180754 374.192725 
L 753.270447 376.205285 
L 758.36014 378.646399 
L 760.904986 380.064686 
L 765.994679 383.231423 
L 768.539526 384.90497 
L 771.084372 386.73626 
L 773.629219 388.844325 
L 776.174065 391.331147 
L 778.718912 394.217438 
L 781.263758 397.439695 
L 788.898297 407.585376 
L 791.443144 410.641944 
L 793.98799 413.320389 
L 796.532837 415.56764 
L 799.077683 417.371384 
L 801.62253 418.732722 
L 804.167376 419.66264 
L 806.712223 420.16454 
L 809.257069 420.186205 
L 811.801915 419.653898 
L 814.346762 418.50439 
L 816.891608 416.661883 
L 819.436455 414.049255 
L 821.981301 410.632841 
L 824.526148 406.415389 
L 827.070994 401.48397 
L 832.160687 390.398308 
L 834.705534 384.838544 
L 837.25038 379.673692 
L 839.795227 375.244015 
L 842.340073 371.81716 
L 844.884919 369.516757 
L 847.429766 368.304763 
L 849.974612 368.117036 
L 852.519459 368.8892 
L 855.064305 370.505878 
L 857.609152 372.827533 
L 860.153998 375.697837 
L 865.243691 382.380276 
L 867.788538 385.779389 
L 870.333384 388.936178 
L 872.87823 391.67334 
L 875.423077 393.888966 
L 877.967923 395.517589 
L 880.51277 396.500227 
L 883.057616 396.821238 
L 885.602463 396.527762 
L 888.147309 395.676019 
L 890.692156 394.348076 
L 893.237002 392.656058 
L 898.326695 388.750434 
L 903.416388 384.696896 
L 905.961234 382.803221 
L 908.506081 381.137934 
L 911.050927 379.815765 
L 913.595774 378.943331 
L 916.14062 378.562311 
L 918.685467 378.703298 
L 921.230313 379.360936 
L 923.77516 380.429079 
L 928.864853 383.159544 
L 931.409699 384.564655 
L 933.954545 385.841791 
L 933.954545 385.841791 
" style="fill:none;stroke:#1f77b4;stroke-linecap:square;stroke-width:1.5;"/>
   </g>
   <g id="patch_3">
    <path d="M 135 630 
L 135 86.4 
" style="fill:none;stroke:#000000;stroke-linecap:square;stroke-linejoin:miter;stroke-width:0.8;"/>
   </g>
   <g id="patch_4">
    <path d="M 972 630 
L 972 86.4 
" style="fill:none;stroke:#000000;stroke-linecap:square;stroke-linejoin:miter;stroke-width:0.8;"/>
   </g>
   <g id="patch_5">
    <path d="M 135 630 
L 972 630 
" style="fill:none;stroke:#000000;stroke-linecap:square;stroke-linejoin:miter;stroke-width:0.8;"/>
   </g>
   <g id="patch_6">
    <path d="M 135 86.4 
L 972 86.4 
" style="fill:none;stroke:#000000;stroke-linecap:square;stroke-linejoin:miter;stroke-width:0.8;"/>
   </g>
  </g>
 </g>
 <defs>
  <clipPath id="p92f53e7a24">
   <rect height="543.6" width="837" x="135" y="86.4"/>
  </clipPath>
 </defs>
</svg>
