<?xml version="1.0" encoding="utf-8" standalone="no"?>
<!DOCTYPE svg PUBLIC "-//W3C//DTD SVG 1.1//EN"
  "http://www.w3.org/Graphics/SVG/1.1/DTD/svg11.dtd">
<!-- Created with matplotlib (https://matplotlib.org/) -->
<svg height="720pt" version="1.1" viewBox="0 0 1080 720" width="1080pt" xmlns="http://www.w3.org/2000/svg" xmlns:xlink="http://www.w3.org/1999/xlink">
 <defs>
  <style type="text/css">
*{stroke-linecap:butt;stroke-linejoin:round;}
  </style>
 </defs>
 <g id="figure_1">
  <g id="patch_1">
   <path d="M 0 720 
L 1080 720 
L 1080 0 
L 0 0 
z
" style="fill:#ffffff;"/>
  </g>
  <g id="axes_1">
   <g id="patch_2">
    <path d="M 135 630 
L 972 630 
L 972 86.4 
L 135 86.4 
z
" style="fill:#ffffff;"/>
   </g>
   <g id="matplotlib.axis_1">
    <g id="xtick_1">
     <g id="line2d_1">
      <defs>
       <path d="M 0 0 
L 0 3.5 
" id="m81902aafb1" style="stroke:#000000;stroke-width:0.8;"/>
      </defs>
      <g>
       <use style="stroke:#000000;stroke-width:0.8;" x="173.045455" xlink:href="#m81902aafb1" y="630"/>
      </g>
     </g>
     <g id="text_1">
      <!-- 0 -->
      <defs>
       <path d="M 31.78125 66.40625 
Q 24.171875 66.40625 20.328125 58.90625 
Q 16.5 51.421875 16.5 36.375 
Q 16.5 21.390625 20.328125 13.890625 
Q 24.171875 6.390625 31.78125 6.390625 
Q 39.453125 6.390625 43.28125 13.890625 
Q 47.125 21.390625 47.125 36.375 
Q 47.125 51.421875 43.28125 58.90625 
Q 39.453125 66.40625 31.78125 66.40625 
z
M 31.78125 74.21875 
Q 44.046875 74.21875 50.515625 64.515625 
Q 56.984375 54.828125 56.984375 36.375 
Q 56.984375 17.96875 50.515625 8.265625 
Q 44.046875 -1.421875 31.78125 -1.421875 
Q 19.53125 -1.421875 13.0625 8.265625 
Q 6.59375 17.96875 6.59375 36.375 
Q 6.59375 54.828125 13.0625 64.515625 
Q 19.53125 74.21875 31.78125 74.21875 
z
" id="DejaVuSans-48"/>
      </defs>
      <g transform="translate(169.864205 644.598438)scale(0.1 -0.1)">
       <use xlink:href="#DejaVuSans-48"/>
      </g>
     </g>
    </g>
    <g id="xtick_2">
     <g id="line2d_2">
      <g>
       <use style="stroke:#000000;stroke-width:0.8;" x="300.287777" xlink:href="#m81902aafb1" y="630"/>
      </g>
     </g>
     <g id="text_2">
      <!-- 50 -->
      <defs>
       <path d="M 10.796875 72.90625 
L 49.515625 72.90625 
L 49.515625 64.59375 
L 19.828125 64.59375 
L 19.828125 46.734375 
Q 21.96875 47.46875 24.109375 47.828125 
Q 26.265625 48.1875 28.421875 48.1875 
Q 40.625 48.1875 47.75 41.5 
Q 54.890625 34.8125 54.890625 23.390625 
Q 54.890625 11.625 47.5625 5.09375 
Q 40.234375 -1.421875 26.90625 -1.421875 
Q 22.3125 -1.421875 17.546875 -0.640625 
Q 12.796875 0.140625 7.71875 1.703125 
L 7.71875 11.625 
Q 12.109375 9.234375 16.796875 8.0625 
Q 21.484375 6.890625 26.703125 6.890625 
Q 35.15625 6.890625 40.078125 11.328125 
Q 45.015625 15.765625 45.015625 23.390625 
Q 45.015625 31 40.078125 35.4375 
Q 35.15625 39.890625 26.703125 39.890625 
Q 22.75 39.890625 18.8125 39.015625 
Q 14.890625 38.140625 10.796875 36.28125 
z
" id="DejaVuSans-53"/>
      </defs>
      <g transform="translate(293.925277 644.598438)scale(0.1 -0.1)">
       <use xlink:href="#DejaVuSans-53"/>
       <use x="63.623047" xlink:href="#DejaVuSans-48"/>
      </g>
     </g>
    </g>
    <g id="xtick_3">
     <g id="line2d_3">
      <g>
       <use style="stroke:#000000;stroke-width:0.8;" x="427.5301" xlink:href="#m81902aafb1" y="630"/>
      </g>
     </g>
     <g id="text_3">
      <!-- 100 -->
      <defs>
       <path d="M 12.40625 8.296875 
L 28.515625 8.296875 
L 28.515625 63.921875 
L 10.984375 60.40625 
L 10.984375 69.390625 
L 28.421875 72.90625 
L 38.28125 72.90625 
L 38.28125 8.296875 
L 54.390625 8.296875 
L 54.390625 0 
L 12.40625 0 
z
" id="DejaVuSans-49"/>
      </defs>
      <g transform="translate(417.98635 644.598438)scale(0.1 -0.1)">
       <use xlink:href="#DejaVuSans-49"/>
       <use x="63.623047" xlink:href="#DejaVuSans-48"/>
       <use x="127.246094" xlink:href="#DejaVuSans-48"/>
      </g>
     </g>
    </g>
    <g id="xtick_4">
     <g id="line2d_4">
      <g>
       <use style="stroke:#000000;stroke-width:0.8;" x="554.772423" xlink:href="#m81902aafb1" y="630"/>
      </g>
     </g>
     <g id="text_4">
      <!-- 150 -->
      <g transform="translate(545.228673 644.598438)scale(0.1 -0.1)">
       <use xlink:href="#DejaVuSans-49"/>
       <use x="63.623047" xlink:href="#DejaVuSans-53"/>
       <use x="127.246094" xlink:href="#DejaVuSans-48"/>
      </g>
     </g>
    </g>
    <g id="xtick_5">
     <g id="line2d_5">
      <g>
       <use style="stroke:#000000;stroke-width:0.8;" x="682.014746" xlink:href="#m81902aafb1" y="630"/>
      </g>
     </g>
     <g id="text_5">
      <!-- 200 -->
      <defs>
       <path d="M 19.1875 8.296875 
L 53.609375 8.296875 
L 53.609375 0 
L 7.328125 0 
L 7.328125 8.296875 
Q 12.9375 14.109375 22.625 23.890625 
Q 32.328125 33.6875 34.8125 36.53125 
Q 39.546875 41.84375 41.421875 45.53125 
Q 43.3125 49.21875 43.3125 52.78125 
Q 43.3125 58.59375 39.234375 62.25 
Q 35.15625 65.921875 28.609375 65.921875 
Q 23.96875 65.921875 18.8125 64.3125 
Q 13.671875 62.703125 7.8125 59.421875 
L 7.8125 69.390625 
Q 13.765625 71.78125 18.9375 73 
Q 24.125 74.21875 28.421875 74.21875 
Q 39.75 74.21875 46.484375 68.546875 
Q 53.21875 62.890625 53.21875 53.421875 
Q 53.21875 48.921875 51.53125 44.890625 
Q 49.859375 40.875 45.40625 35.40625 
Q 44.1875 33.984375 37.640625 27.21875 
Q 31.109375 20.453125 19.1875 8.296875 
z
" id="DejaVuSans-50"/>
      </defs>
      <g transform="translate(672.470996 644.598438)scale(0.1 -0.1)">
       <use xlink:href="#DejaVuSans-50"/>
       <use x="63.623047" xlink:href="#DejaVuSans-48"/>
       <use x="127.246094" xlink:href="#DejaVuSans-48"/>
      </g>
     </g>
    </g>
    <g id="xtick_6">
     <g id="line2d_6">
      <g>
       <use style="stroke:#000000;stroke-width:0.8;" x="809.257069" xlink:href="#m81902aafb1" y="630"/>
      </g>
     </g>
     <g id="text_6">
      <!-- 250 -->
      <g transform="translate(799.713319 644.598438)scale(0.1 -0.1)">
       <use xlink:href="#DejaVuSans-50"/>
       <use x="63.623047" xlink:href="#DejaVuSans-53"/>
       <use x="127.246094" xlink:href="#DejaVuSans-48"/>
      </g>
     </g>
    </g>
    <g id="xtick_7">
     <g id="line2d_7">
      <g>
       <use style="stroke:#000000;stroke-width:0.8;" x="936.499392" xlink:href="#m81902aafb1" y="630"/>
      </g>
     </g>
     <g id="text_7">
      <!-- 300 -->
      <defs>
       <path d="M 40.578125 39.3125 
Q 47.65625 37.796875 51.625 33 
Q 55.609375 28.21875 55.609375 21.1875 
Q 55.609375 10.40625 48.1875 4.484375 
Q 40.765625 -1.421875 27.09375 -1.421875 
Q 22.515625 -1.421875 17.65625 -0.515625 
Q 12.796875 0.390625 7.625 2.203125 
L 7.625 11.71875 
Q 11.71875 9.328125 16.59375 8.109375 
Q 21.484375 6.890625 26.8125 6.890625 
Q 36.078125 6.890625 40.9375 10.546875 
Q 45.796875 14.203125 45.796875 21.1875 
Q 45.796875 27.640625 41.28125 31.265625 
Q 36.765625 34.90625 28.71875 34.90625 
L 20.21875 34.90625 
L 20.21875 43.015625 
L 29.109375 43.015625 
Q 36.375 43.015625 40.234375 45.921875 
Q 44.09375 48.828125 44.09375 54.296875 
Q 44.09375 59.90625 40.109375 62.90625 
Q 36.140625 65.921875 28.71875 65.921875 
Q 24.65625 65.921875 20.015625 65.03125 
Q 15.375 64.15625 9.8125 62.3125 
L 9.8125 71.09375 
Q 15.4375 72.65625 20.34375 73.4375 
Q 25.25 74.21875 29.59375 74.21875 
Q 40.828125 74.21875 47.359375 69.109375 
Q 53.90625 64.015625 53.90625 55.328125 
Q 53.90625 49.265625 50.4375 45.09375 
Q 46.96875 40.921875 40.578125 39.3125 
z
" id="DejaVuSans-51"/>
      </defs>
      <g transform="translate(926.955642 644.598438)scale(0.1 -0.1)">
       <use xlink:href="#DejaVuSans-51"/>
       <use x="63.623047" xlink:href="#DejaVuSans-48"/>
       <use x="127.246094" xlink:href="#DejaVuSans-48"/>
      </g>
     </g>
    </g>
   </g>
   <g id="matplotlib.axis_2">
    <g id="ytick_1">
     <g id="line2d_8">
      <defs>
       <path d="M 0 0 
L -3.5 0 
" id="mf7b8fae207" style="stroke:#000000;stroke-width:0.8;"/>
      </defs>
      <g>
       <use style="stroke:#000000;stroke-width:0.8;" x="135" xlink:href="#mf7b8fae207" y="630"/>
      </g>
     </g>
     <g id="text_8">
      <!-- 0 -->
      <g transform="translate(121.6375 633.799219)scale(0.1 -0.1)">
       <use xlink:href="#DejaVuSans-48"/>
      </g>
     </g>
    </g>
    <g id="ytick_2">
     <g id="line2d_9">
      <g>
       <use style="stroke:#000000;stroke-width:0.8;" x="135" xlink:href="#mf7b8fae207" y="562.05"/>
      </g>
     </g>
     <g id="text_9">
      <!-- 25 -->
      <g transform="translate(115.275 565.849219)scale(0.1 -0.1)">
       <use xlink:href="#DejaVuSans-50"/>
       <use x="63.623047" xlink:href="#DejaVuSans-53"/>
      </g>
     </g>
    </g>
    <g id="ytick_3">
     <g id="line2d_10">
      <g>
       <use style="stroke:#000000;stroke-width:0.8;" x="135" xlink:href="#mf7b8fae207" y="494.1"/>
      </g>
     </g>
     <g id="text_10">
      <!-- 50 -->
      <g transform="translate(115.275 497.899219)scale(0.1 -0.1)">
       <use xlink:href="#DejaVuSans-53"/>
       <use x="63.623047" xlink:href="#DejaVuSans-48"/>
      </g>
     </g>
    </g>
    <g id="ytick_4">
     <g id="line2d_11">
      <g>
       <use style="stroke:#000000;stroke-width:0.8;" x="135" xlink:href="#mf7b8fae207" y="426.15"/>
      </g>
     </g>
     <g id="text_11">
      <!-- 75 -->
      <defs>
       <path d="M 8.203125 72.90625 
L 55.078125 72.90625 
L 55.078125 68.703125 
L 28.609375 0 
L 18.3125 0 
L 43.21875 64.59375 
L 8.203125 64.59375 
z
" id="DejaVuSans-55"/>
      </defs>
      <g transform="translate(115.275 429.949219)scale(0.1 -0.1)">
       <use xlink:href="#DejaVuSans-55"/>
       <use x="63.623047" xlink:href="#DejaVuSans-53"/>
      </g>
     </g>
    </g>
    <g id="ytick_5">
     <g id="line2d_12">
      <g>
       <use style="stroke:#000000;stroke-width:0.8;" x="135" xlink:href="#mf7b8fae207" y="358.2"/>
      </g>
     </g>
     <g id="text_12">
      <!-- 100 -->
      <g transform="translate(108.9125 361.999219)scale(0.1 -0.1)">
       <use xlink:href="#DejaVuSans-49"/>
       <use x="63.623047" xlink:href="#DejaVuSans-48"/>
       <use x="127.246094" xlink:href="#DejaVuSans-48"/>
      </g>
     </g>
    </g>
    <g id="ytick_6">
     <g id="line2d_13">
      <g>
       <use style="stroke:#000000;stroke-width:0.8;" x="135" xlink:href="#mf7b8fae207" y="290.25"/>
      </g>
     </g>
     <g id="text_13">
      <!-- 125 -->
      <g transform="translate(108.9125 294.049219)scale(0.1 -0.1)">
       <use xlink:href="#DejaVuSans-49"/>
       <use x="63.623047" xlink:href="#DejaVuSans-50"/>
       <use x="127.246094" xlink:href="#DejaVuSans-53"/>
      </g>
     </g>
    </g>
    <g id="ytick_7">
     <g id="line2d_14">
      <g>
       <use style="stroke:#000000;stroke-width:0.8;" x="135" xlink:href="#mf7b8fae207" y="222.3"/>
      </g>
     </g>
     <g id="text_14">
      <!-- 150 -->
      <g transform="translate(108.9125 226.099219)scale(0.1 -0.1)">
       <use xlink:href="#DejaVuSans-49"/>
       <use x="63.623047" xlink:href="#DejaVuSans-53"/>
       <use x="127.246094" xlink:href="#DejaVuSans-48"/>
      </g>
     </g>
    </g>
    <g id="ytick_8">
     <g id="line2d_15">
      <g>
       <use style="stroke:#000000;stroke-width:0.8;" x="135" xlink:href="#mf7b8fae207" y="154.35"/>
      </g>
     </g>
     <g id="text_15">
      <!-- 175 -->
      <g transform="translate(108.9125 158.149219)scale(0.1 -0.1)">
       <use xlink:href="#DejaVuSans-49"/>
       <use x="63.623047" xlink:href="#DejaVuSans-55"/>
       <use x="127.246094" xlink:href="#DejaVuSans-53"/>
      </g>
     </g>
    </g>
    <g id="ytick_9">
     <g id="line2d_16">
      <g>
       <use style="stroke:#000000;stroke-width:0.8;" x="135" xlink:href="#mf7b8fae207" y="86.4"/>
      </g>
     </g>
     <g id="text_16">
      <!-- 200 -->
      <g transform="translate(108.9125 90.199219)scale(0.1 -0.1)">
       <use xlink:href="#DejaVuSans-50"/>
       <use x="63.623047" xlink:href="#DejaVuSans-48"/>
       <use x="127.246094" xlink:href="#DejaVuSans-48"/>
      </g>
     </g>
    </g>
   </g>
   <g id="line2d_17">
    <path clip-path="url(#pa4253bad16)" d="M 173.045455 265.425687 
L 175.590301 263.488643 
L 178.135147 261.918585 
L 180.679994 260.8176 
L 183.22484 260.22051 
L 185.769687 260.082964 
L 188.314533 260.327086 
L 190.85938 260.889529 
L 193.404226 261.710969 
L 195.949073 262.728823 
L 201.038766 265.132054 
L 213.762998 271.432188 
L 216.307844 273.034608 
L 218.852691 275.02695 
L 221.397537 277.587063 
L 223.942384 280.864598 
L 226.48723 284.908288 
L 229.032077 289.667485 
L 231.576923 295.038732 
L 234.12177 300.882163 
L 244.301155 325.223111 
L 246.846002 330.542748 
L 249.390848 335.254185 
L 251.935695 339.321146 
L 254.480541 342.766499 
L 257.025388 345.658073 
L 259.570234 348.088983 
L 262.115081 350.1501 
L 264.659927 351.928496 
L 267.204773 353.488013 
L 269.74962 354.874975 
L 272.294466 356.107202 
L 274.839313 357.169443 
L 277.384159 358.022315 
L 279.929006 358.599439 
L 282.473852 358.83254 
L 285.018699 358.673336 
L 287.563545 358.093195 
L 290.108392 357.039881 
L 292.653238 355.477943 
L 295.198085 353.370621 
L 297.742931 350.629104 
L 300.287777 347.176959 
L 302.832624 342.986701 
L 305.37747 338.066804 
L 307.922317 332.430636 
L 310.467163 326.133913 
L 315.556856 312.200689 
L 320.646549 297.919898 
L 323.191396 291.210731 
L 325.736242 285.051482 
L 328.281088 279.58734 
L 330.825935 274.896306 
L 333.370781 270.946174 
L 335.915628 267.580111 
L 338.460474 264.617834 
L 343.550167 259.242112 
L 353.729553 248.586303 
L 358.819246 243.433262 
L 361.364092 241.137569 
L 363.908939 239.147532 
L 366.453785 237.545253 
L 368.998632 236.389648 
L 371.543478 235.732854 
L 374.088325 235.624574 
L 376.633171 236.085611 
L 379.178018 237.087475 
L 381.722864 238.5819 
L 384.267711 240.538865 
L 386.812557 242.904654 
L 391.90225 248.331933 
L 394.447096 251.036816 
L 396.991943 253.495251 
L 399.536789 255.564612 
L 402.081636 257.14428 
L 404.626482 258.224604 
L 407.171329 258.882134 
L 409.716175 259.238693 
L 417.350715 259.812552 
L 419.895561 260.213898 
L 422.440407 260.874752 
L 424.985254 261.848216 
L 427.5301 263.141652 
L 430.074947 264.701709 
L 435.16464 268.063922 
L 437.709486 269.530487 
L 440.254333 270.662029 
L 442.799179 271.342827 
L 445.344026 271.463684 
L 447.888872 270.953758 
L 450.433718 269.799478 
L 452.978565 268.002689 
L 455.523411 265.572618 
L 458.068258 262.560691 
L 460.613104 259.077818 
L 465.702797 251.359555 
L 470.79249 243.752292 
L 473.337337 240.274078 
L 475.882183 237.079448 
L 478.427029 234.16502 
L 483.516722 228.957964 
L 488.606415 223.858186 
L 491.151262 221.100068 
L 493.696108 218.157136 
L 498.785801 211.738154 
L 506.420341 201.653986 
L 508.965187 198.482375 
L 511.510033 195.505633 
L 514.05488 192.784506 
L 516.599726 190.372196 
L 519.144573 188.291616 
L 521.689419 186.579958 
L 524.234266 185.264663 
L 526.779112 184.345104 
L 529.323959 183.80606 
L 531.868805 183.646416 
L 534.413652 183.876497 
L 536.958498 184.489197 
L 539.503344 185.444784 
L 542.048191 186.661718 
L 547.137884 189.484901 
L 552.227577 192.496369 
L 554.772423 194.155288 
L 557.31727 195.991374 
L 559.862116 198.03819 
L 562.406963 200.318863 
L 564.951809 202.822263 
L 570.041502 208.394866 
L 575.131195 214.470587 
L 580.220888 221.00936 
L 587.855427 231.076745 
L 590.400274 234.266945 
L 592.94512 237.275166 
L 595.489967 240.021746 
L 598.034813 242.397476 
L 600.579659 244.255517 
L 603.124506 245.411883 
L 605.669352 245.703749 
L 608.214199 245.02128 
L 610.759045 243.301315 
L 613.303892 240.549876 
L 615.848738 236.877394 
L 618.393585 232.472951 
L 623.483278 222.432916 
L 626.028124 217.343369 
L 628.572971 212.591982 
L 631.117817 208.416467 
L 633.662663 204.966474 
L 636.20751 202.327914 
L 638.752356 200.54535 
L 641.297203 199.614612 
L 643.842049 199.467509 
L 646.386896 199.935741 
L 648.931742 200.782468 
L 654.021435 202.795597 
L 656.566282 203.682844 
L 659.111128 204.37627 
L 661.655974 204.823674 
L 664.200821 204.978977 
L 666.745667 204.826123 
L 669.290514 204.377801 
L 671.83536 203.653838 
L 674.380207 202.659749 
L 676.925053 201.407613 
L 682.014746 198.356678 
L 687.104439 195.263762 
L 689.649285 194.010922 
L 692.194132 193.114982 
L 694.738978 192.67497 
L 697.283825 192.761743 
L 699.828671 193.404809 
L 702.373518 194.570212 
L 704.918364 196.176464 
L 707.463211 198.092753 
L 715.09775 204.175211 
L 717.642597 205.862354 
L 720.187443 207.23475 
L 722.732289 208.337686 
L 727.821982 210.354739 
L 730.366829 211.75461 
L 732.911675 213.754746 
L 735.456522 216.5568 
L 738.001368 220.294281 
L 740.546215 225.076453 
L 743.091061 230.961224 
L 745.635908 237.945694 
L 748.180754 245.925931 
L 750.7256 254.702185 
L 760.904986 291.872752 
L 763.449833 300.340069 
L 765.994679 308.100667 
L 768.539526 315.072386 
L 771.084372 321.206468 
L 773.629219 326.484699 
L 776.174065 330.888522 
L 778.718912 334.436234 
L 781.263758 337.209298 
L 783.808604 339.312275 
L 786.353451 340.848165 
L 788.898297 341.909336 
L 791.443144 342.56643 
L 793.98799 342.862412 
L 796.532837 342.838378 
L 799.077683 342.548708 
L 809.257069 340.803858 
L 811.801915 340.616405 
L 814.346762 340.632833 
L 816.891608 340.843611 
L 824.526148 341.778653 
L 827.070994 341.857156 
L 829.615841 341.709153 
L 832.160687 341.3582 
L 839.795227 339.911928 
L 842.340073 339.620338 
L 844.884919 339.622277 
L 847.429766 339.98737 
L 849.974612 340.709539 
L 852.519459 341.726027 
L 862.698845 346.56167 
L 865.243691 347.288361 
L 867.788538 347.653037 
L 870.333384 347.680899 
L 880.51277 346.914026 
L 883.057616 347.041447 
L 885.602463 347.469732 
L 888.147309 348.278656 
L 890.692156 349.525735 
L 893.237002 351.279293 
L 895.781849 353.66973 
L 898.326695 356.789435 
L 900.871542 360.658823 
L 903.416388 365.231252 
L 905.961234 370.372425 
L 916.14062 392.254716 
L 918.685467 396.987031 
L 921.230313 401.134408 
L 923.77516 404.662943 
L 926.320006 407.641839 
L 928.864853 410.166605 
L 931.409699 412.329492 
L 933.954545 414.241654 
L 933.954545 414.241654 
" style="fill:none;stroke:#1f77b4;stroke-linecap:square;stroke-width:1.5;"/>
   </g>
   <g id="patch_3">
    <path d="M 135 630 
L 135 86.4 
" style="fill:none;stroke:#000000;stroke-linecap:square;stroke-linejoin:miter;stroke-width:0.8;"/>
   </g>
   <g id="patch_4">
    <path d="M 972 630 
L 972 86.4 
" style="fill:none;stroke:#000000;stroke-linecap:square;stroke-linejoin:miter;stroke-width:0.8;"/>
   </g>
   <g id="patch_5">
    <path d="M 135 630 
L 972 630 
" style="fill:none;stroke:#000000;stroke-linecap:square;stroke-linejoin:miter;stroke-width:0.8;"/>
   </g>
   <g id="patch_6">
    <path d="M 135 86.4 
L 972 86.4 
" style="fill:none;stroke:#000000;stroke-linecap:square;stroke-linejoin:miter;stroke-width:0.8;"/>
   </g>
  </g>
 </g>
 <defs>
  <clipPath id="pa4253bad16">
   <rect height="543.6" width="837" x="135" y="86.4"/>
  </clipPath>
 </defs>
</svg>
