<?xml version="1.0" encoding="utf-8" standalone="no"?>
<!DOCTYPE svg PUBLIC "-//W3C//DTD SVG 1.1//EN"
  "http://www.w3.org/Graphics/SVG/1.1/DTD/svg11.dtd">
<!-- Created with matplotlib (https://matplotlib.org/) -->
<svg height="720pt" version="1.1" viewBox="0 0 1080 720" width="1080pt" xmlns="http://www.w3.org/2000/svg" xmlns:xlink="http://www.w3.org/1999/xlink">
 <defs>
  <style type="text/css">
*{stroke-linecap:butt;stroke-linejoin:round;}
  </style>
 </defs>
 <g id="figure_1">
  <g id="patch_1">
   <path d="M 0 720 
L 1080 720 
L 1080 0 
L 0 0 
z
" style="fill:#ffffff;"/>
  </g>
  <g id="axes_1">
   <g id="patch_2">
    <path d="M 135 630 
L 972 630 
L 972 86.4 
L 135 86.4 
z
" style="fill:#ffffff;"/>
   </g>
   <g id="matplotlib.axis_1">
    <g id="xtick_1">
     <g id="line2d_1">
      <defs>
       <path d="M 0 0 
L 0 3.5 
" id="m7ff4d62898" style="stroke:#000000;stroke-width:0.8;"/>
      </defs>
      <g>
       <use style="stroke:#000000;stroke-width:0.8;" x="173.045455" xlink:href="#m7ff4d62898" y="630"/>
      </g>
     </g>
     <g id="text_1">
      <!-- 0 -->
      <defs>
       <path d="M 31.78125 66.40625 
Q 24.171875 66.40625 20.328125 58.90625 
Q 16.5 51.421875 16.5 36.375 
Q 16.5 21.390625 20.328125 13.890625 
Q 24.171875 6.390625 31.78125 6.390625 
Q 39.453125 6.390625 43.28125 13.890625 
Q 47.125 21.390625 47.125 36.375 
Q 47.125 51.421875 43.28125 58.90625 
Q 39.453125 66.40625 31.78125 66.40625 
z
M 31.78125 74.21875 
Q 44.046875 74.21875 50.515625 64.515625 
Q 56.984375 54.828125 56.984375 36.375 
Q 56.984375 17.96875 50.515625 8.265625 
Q 44.046875 -1.421875 31.78125 -1.421875 
Q 19.53125 -1.421875 13.0625 8.265625 
Q 6.59375 17.96875 6.59375 36.375 
Q 6.59375 54.828125 13.0625 64.515625 
Q 19.53125 74.21875 31.78125 74.21875 
z
" id="DejaVuSans-48"/>
      </defs>
      <g transform="translate(169.864205 644.598438)scale(0.1 -0.1)">
       <use xlink:href="#DejaVuSans-48"/>
      </g>
     </g>
    </g>
    <g id="xtick_2">
     <g id="line2d_2">
      <g>
       <use style="stroke:#000000;stroke-width:0.8;" x="300.287777" xlink:href="#m7ff4d62898" y="630"/>
      </g>
     </g>
     <g id="text_2">
      <!-- 50 -->
      <defs>
       <path d="M 10.796875 72.90625 
L 49.515625 72.90625 
L 49.515625 64.59375 
L 19.828125 64.59375 
L 19.828125 46.734375 
Q 21.96875 47.46875 24.109375 47.828125 
Q 26.265625 48.1875 28.421875 48.1875 
Q 40.625 48.1875 47.75 41.5 
Q 54.890625 34.8125 54.890625 23.390625 
Q 54.890625 11.625 47.5625 5.09375 
Q 40.234375 -1.421875 26.90625 -1.421875 
Q 22.3125 -1.421875 17.546875 -0.640625 
Q 12.796875 0.140625 7.71875 1.703125 
L 7.71875 11.625 
Q 12.109375 9.234375 16.796875 8.0625 
Q 21.484375 6.890625 26.703125 6.890625 
Q 35.15625 6.890625 40.078125 11.328125 
Q 45.015625 15.765625 45.015625 23.390625 
Q 45.015625 31 40.078125 35.4375 
Q 35.15625 39.890625 26.703125 39.890625 
Q 22.75 39.890625 18.8125 39.015625 
Q 14.890625 38.140625 10.796875 36.28125 
z
" id="DejaVuSans-53"/>
      </defs>
      <g transform="translate(293.925277 644.598438)scale(0.1 -0.1)">
       <use xlink:href="#DejaVuSans-53"/>
       <use x="63.623047" xlink:href="#DejaVuSans-48"/>
      </g>
     </g>
    </g>
    <g id="xtick_3">
     <g id="line2d_3">
      <g>
       <use style="stroke:#000000;stroke-width:0.8;" x="427.5301" xlink:href="#m7ff4d62898" y="630"/>
      </g>
     </g>
     <g id="text_3">
      <!-- 100 -->
      <defs>
       <path d="M 12.40625 8.296875 
L 28.515625 8.296875 
L 28.515625 63.921875 
L 10.984375 60.40625 
L 10.984375 69.390625 
L 28.421875 72.90625 
L 38.28125 72.90625 
L 38.28125 8.296875 
L 54.390625 8.296875 
L 54.390625 0 
L 12.40625 0 
z
" id="DejaVuSans-49"/>
      </defs>
      <g transform="translate(417.98635 644.598438)scale(0.1 -0.1)">
       <use xlink:href="#DejaVuSans-49"/>
       <use x="63.623047" xlink:href="#DejaVuSans-48"/>
       <use x="127.246094" xlink:href="#DejaVuSans-48"/>
      </g>
     </g>
    </g>
    <g id="xtick_4">
     <g id="line2d_4">
      <g>
       <use style="stroke:#000000;stroke-width:0.8;" x="554.772423" xlink:href="#m7ff4d62898" y="630"/>
      </g>
     </g>
     <g id="text_4">
      <!-- 150 -->
      <g transform="translate(545.228673 644.598438)scale(0.1 -0.1)">
       <use xlink:href="#DejaVuSans-49"/>
       <use x="63.623047" xlink:href="#DejaVuSans-53"/>
       <use x="127.246094" xlink:href="#DejaVuSans-48"/>
      </g>
     </g>
    </g>
    <g id="xtick_5">
     <g id="line2d_5">
      <g>
       <use style="stroke:#000000;stroke-width:0.8;" x="682.014746" xlink:href="#m7ff4d62898" y="630"/>
      </g>
     </g>
     <g id="text_5">
      <!-- 200 -->
      <defs>
       <path d="M 19.1875 8.296875 
L 53.609375 8.296875 
L 53.609375 0 
L 7.328125 0 
L 7.328125 8.296875 
Q 12.9375 14.109375 22.625 23.890625 
Q 32.328125 33.6875 34.8125 36.53125 
Q 39.546875 41.84375 41.421875 45.53125 
Q 43.3125 49.21875 43.3125 52.78125 
Q 43.3125 58.59375 39.234375 62.25 
Q 35.15625 65.921875 28.609375 65.921875 
Q 23.96875 65.921875 18.8125 64.3125 
Q 13.671875 62.703125 7.8125 59.421875 
L 7.8125 69.390625 
Q 13.765625 71.78125 18.9375 73 
Q 24.125 74.21875 28.421875 74.21875 
Q 39.75 74.21875 46.484375 68.546875 
Q 53.21875 62.890625 53.21875 53.421875 
Q 53.21875 48.921875 51.53125 44.890625 
Q 49.859375 40.875 45.40625 35.40625 
Q 44.1875 33.984375 37.640625 27.21875 
Q 31.109375 20.453125 19.1875 8.296875 
z
" id="DejaVuSans-50"/>
      </defs>
      <g transform="translate(672.470996 644.598438)scale(0.1 -0.1)">
       <use xlink:href="#DejaVuSans-50"/>
       <use x="63.623047" xlink:href="#DejaVuSans-48"/>
       <use x="127.246094" xlink:href="#DejaVuSans-48"/>
      </g>
     </g>
    </g>
    <g id="xtick_6">
     <g id="line2d_6">
      <g>
       <use style="stroke:#000000;stroke-width:0.8;" x="809.257069" xlink:href="#m7ff4d62898" y="630"/>
      </g>
     </g>
     <g id="text_6">
      <!-- 250 -->
      <g transform="translate(799.713319 644.598438)scale(0.1 -0.1)">
       <use xlink:href="#DejaVuSans-50"/>
       <use x="63.623047" xlink:href="#DejaVuSans-53"/>
       <use x="127.246094" xlink:href="#DejaVuSans-48"/>
      </g>
     </g>
    </g>
    <g id="xtick_7">
     <g id="line2d_7">
      <g>
       <use style="stroke:#000000;stroke-width:0.8;" x="936.499392" xlink:href="#m7ff4d62898" y="630"/>
      </g>
     </g>
     <g id="text_7">
      <!-- 300 -->
      <defs>
       <path d="M 40.578125 39.3125 
Q 47.65625 37.796875 51.625 33 
Q 55.609375 28.21875 55.609375 21.1875 
Q 55.609375 10.40625 48.1875 4.484375 
Q 40.765625 -1.421875 27.09375 -1.421875 
Q 22.515625 -1.421875 17.65625 -0.515625 
Q 12.796875 0.390625 7.625 2.203125 
L 7.625 11.71875 
Q 11.71875 9.328125 16.59375 8.109375 
Q 21.484375 6.890625 26.8125 6.890625 
Q 36.078125 6.890625 40.9375 10.546875 
Q 45.796875 14.203125 45.796875 21.1875 
Q 45.796875 27.640625 41.28125 31.265625 
Q 36.765625 34.90625 28.71875 34.90625 
L 20.21875 34.90625 
L 20.21875 43.015625 
L 29.109375 43.015625 
Q 36.375 43.015625 40.234375 45.921875 
Q 44.09375 48.828125 44.09375 54.296875 
Q 44.09375 59.90625 40.109375 62.90625 
Q 36.140625 65.921875 28.71875 65.921875 
Q 24.65625 65.921875 20.015625 65.03125 
Q 15.375 64.15625 9.8125 62.3125 
L 9.8125 71.09375 
Q 15.4375 72.65625 20.34375 73.4375 
Q 25.25 74.21875 29.59375 74.21875 
Q 40.828125 74.21875 47.359375 69.109375 
Q 53.90625 64.015625 53.90625 55.328125 
Q 53.90625 49.265625 50.4375 45.09375 
Q 46.96875 40.921875 40.578125 39.3125 
z
" id="DejaVuSans-51"/>
      </defs>
      <g transform="translate(926.955642 644.598438)scale(0.1 -0.1)">
       <use xlink:href="#DejaVuSans-51"/>
       <use x="63.623047" xlink:href="#DejaVuSans-48"/>
       <use x="127.246094" xlink:href="#DejaVuSans-48"/>
      </g>
     </g>
    </g>
   </g>
   <g id="matplotlib.axis_2">
    <g id="ytick_1">
     <g id="line2d_8">
      <defs>
       <path d="M 0 0 
L -3.5 0 
" id="me6b789f5c6" style="stroke:#000000;stroke-width:0.8;"/>
      </defs>
      <g>
       <use style="stroke:#000000;stroke-width:0.8;" x="135" xlink:href="#me6b789f5c6" y="630"/>
      </g>
     </g>
     <g id="text_8">
      <!-- 0 -->
      <g transform="translate(121.6375 633.799219)scale(0.1 -0.1)">
       <use xlink:href="#DejaVuSans-48"/>
      </g>
     </g>
    </g>
    <g id="ytick_2">
     <g id="line2d_9">
      <g>
       <use style="stroke:#000000;stroke-width:0.8;" x="135" xlink:href="#me6b789f5c6" y="562.05"/>
      </g>
     </g>
     <g id="text_9">
      <!-- 25 -->
      <g transform="translate(115.275 565.849219)scale(0.1 -0.1)">
       <use xlink:href="#DejaVuSans-50"/>
       <use x="63.623047" xlink:href="#DejaVuSans-53"/>
      </g>
     </g>
    </g>
    <g id="ytick_3">
     <g id="line2d_10">
      <g>
       <use style="stroke:#000000;stroke-width:0.8;" x="135" xlink:href="#me6b789f5c6" y="494.1"/>
      </g>
     </g>
     <g id="text_10">
      <!-- 50 -->
      <g transform="translate(115.275 497.899219)scale(0.1 -0.1)">
       <use xlink:href="#DejaVuSans-53"/>
       <use x="63.623047" xlink:href="#DejaVuSans-48"/>
      </g>
     </g>
    </g>
    <g id="ytick_4">
     <g id="line2d_11">
      <g>
       <use style="stroke:#000000;stroke-width:0.8;" x="135" xlink:href="#me6b789f5c6" y="426.15"/>
      </g>
     </g>
     <g id="text_11">
      <!-- 75 -->
      <defs>
       <path d="M 8.203125 72.90625 
L 55.078125 72.90625 
L 55.078125 68.703125 
L 28.609375 0 
L 18.3125 0 
L 43.21875 64.59375 
L 8.203125 64.59375 
z
" id="DejaVuSans-55"/>
      </defs>
      <g transform="translate(115.275 429.949219)scale(0.1 -0.1)">
       <use xlink:href="#DejaVuSans-55"/>
       <use x="63.623047" xlink:href="#DejaVuSans-53"/>
      </g>
     </g>
    </g>
    <g id="ytick_5">
     <g id="line2d_12">
      <g>
       <use style="stroke:#000000;stroke-width:0.8;" x="135" xlink:href="#me6b789f5c6" y="358.2"/>
      </g>
     </g>
     <g id="text_12">
      <!-- 100 -->
      <g transform="translate(108.9125 361.999219)scale(0.1 -0.1)">
       <use xlink:href="#DejaVuSans-49"/>
       <use x="63.623047" xlink:href="#DejaVuSans-48"/>
       <use x="127.246094" xlink:href="#DejaVuSans-48"/>
      </g>
     </g>
    </g>
    <g id="ytick_6">
     <g id="line2d_13">
      <g>
       <use style="stroke:#000000;stroke-width:0.8;" x="135" xlink:href="#me6b789f5c6" y="290.25"/>
      </g>
     </g>
     <g id="text_13">
      <!-- 125 -->
      <g transform="translate(108.9125 294.049219)scale(0.1 -0.1)">
       <use xlink:href="#DejaVuSans-49"/>
       <use x="63.623047" xlink:href="#DejaVuSans-50"/>
       <use x="127.246094" xlink:href="#DejaVuSans-53"/>
      </g>
     </g>
    </g>
    <g id="ytick_7">
     <g id="line2d_14">
      <g>
       <use style="stroke:#000000;stroke-width:0.8;" x="135" xlink:href="#me6b789f5c6" y="222.3"/>
      </g>
     </g>
     <g id="text_14">
      <!-- 150 -->
      <g transform="translate(108.9125 226.099219)scale(0.1 -0.1)">
       <use xlink:href="#DejaVuSans-49"/>
       <use x="63.623047" xlink:href="#DejaVuSans-53"/>
       <use x="127.246094" xlink:href="#DejaVuSans-48"/>
      </g>
     </g>
    </g>
    <g id="ytick_8">
     <g id="line2d_15">
      <g>
       <use style="stroke:#000000;stroke-width:0.8;" x="135" xlink:href="#me6b789f5c6" y="154.35"/>
      </g>
     </g>
     <g id="text_15">
      <!-- 175 -->
      <g transform="translate(108.9125 158.149219)scale(0.1 -0.1)">
       <use xlink:href="#DejaVuSans-49"/>
       <use x="63.623047" xlink:href="#DejaVuSans-55"/>
       <use x="127.246094" xlink:href="#DejaVuSans-53"/>
      </g>
     </g>
    </g>
    <g id="ytick_9">
     <g id="line2d_16">
      <g>
       <use style="stroke:#000000;stroke-width:0.8;" x="135" xlink:href="#me6b789f5c6" y="86.4"/>
      </g>
     </g>
     <g id="text_16">
      <!-- 200 -->
      <g transform="translate(108.9125 90.199219)scale(0.1 -0.1)">
       <use xlink:href="#DejaVuSans-50"/>
       <use x="63.623047" xlink:href="#DejaVuSans-48"/>
       <use x="127.246094" xlink:href="#DejaVuSans-48"/>
      </g>
     </g>
    </g>
   </g>
   <g id="line2d_17">
    <path clip-path="url(#p1954ae9490)" d="M 173.045455 405.233619 
L 175.590301 402.77372 
L 178.135147 399.950693 
L 183.22484 393.678873 
L 188.314533 387.388831 
L 190.85938 384.477972 
L 193.404226 381.795621 
L 195.949073 379.352022 
L 198.493919 377.159449 
L 201.038766 375.262812 
L 203.583612 373.714017 
L 206.128458 372.538126 
L 208.673305 371.743975 
L 211.218151 371.344997 
L 213.762998 371.359933 
L 216.307844 371.807162 
L 218.852691 372.698989 
L 221.397537 374.037672 
L 223.942384 375.812469 
L 226.48723 378.009093 
L 229.032077 380.595914 
L 231.576923 383.511267 
L 241.756309 396.016024 
L 244.301155 398.84801 
L 246.846002 401.47859 
L 249.390848 403.918633 
L 254.480541 408.400455 
L 259.570234 412.94439 
L 262.115081 415.48147 
L 264.659927 418.275924 
L 267.204773 421.327838 
L 272.294466 428.047787 
L 279.929006 438.55952 
L 285.018699 444.977696 
L 287.563545 447.933201 
L 290.108392 450.673476 
L 292.653238 453.096042 
L 295.198085 455.114014 
L 297.742931 456.657919 
L 300.287777 457.678733 
L 302.832624 458.110168 
L 305.37747 457.861448 
L 307.922317 456.85008 
L 310.467163 455.012506 
L 313.01201 452.351986 
L 315.556856 448.93244 
L 318.101703 444.879109 
L 320.646549 440.379327 
L 325.736242 430.715539 
L 330.825935 421.003483 
L 335.915628 411.867656 
L 338.460474 407.582129 
L 341.005321 403.536145 
L 343.550167 399.726887 
L 348.63986 392.675582 
L 353.729553 386.217094 
L 356.2744 383.277775 
L 358.819246 380.618042 
L 361.364092 378.273513 
L 363.908939 376.254485 
L 366.453785 374.555903 
L 368.998632 373.128996 
L 371.543478 371.913688 
L 374.088325 370.904019 
L 376.633171 370.130653 
L 379.178018 369.643369 
L 381.722864 369.480245 
L 384.267711 369.661826 
L 386.812557 370.196958 
L 389.357403 371.075242 
L 391.90225 372.293895 
L 394.447096 373.835572 
L 396.991943 375.678925 
L 399.536789 377.7848 
L 409.716175 386.893898 
L 412.261022 388.766798 
L 414.805868 390.27912 
L 417.350715 391.365649 
L 419.895561 392.063664 
L 422.440407 392.471455 
L 427.5301 392.820449 
L 440.254333 393.052935 
L 442.799179 392.987264 
L 445.344026 392.740095 
L 447.888872 392.248611 
L 450.433718 391.495615 
L 452.978565 390.517362 
L 458.068258 388.299956 
L 460.613104 387.33884 
L 463.157951 386.680196 
L 465.702797 386.496084 
L 468.247644 386.911171 
L 470.79249 387.979301 
L 473.337337 389.71781 
L 475.882183 392.136806 
L 478.427029 395.211645 
L 480.971876 398.853507 
L 483.516722 402.920345 
L 491.151262 415.76522 
L 493.696108 419.697954 
L 496.240955 423.24783 
L 498.785801 426.358262 
L 501.330648 429.027806 
L 503.875494 431.283879 
L 506.420341 433.186537 
L 516.599726 439.864306 
L 519.144573 441.928109 
L 524.234266 446.56984 
L 529.323959 451.312951 
L 531.868805 453.553206 
L 534.413652 455.642466 
L 536.958498 457.537794 
L 539.503344 459.198976 
L 542.048191 460.605435 
L 544.593037 461.746213 
L 547.137884 462.631938 
L 549.68273 463.296844 
L 554.772423 464.231437 
L 559.862116 464.981309 
L 562.406963 465.197425 
L 564.951809 465.103293 
L 567.496656 464.530686 
L 570.041502 463.324859 
L 572.586348 461.350083 
L 575.131195 458.514344 
L 577.676041 454.765681 
L 580.220888 450.120291 
L 582.765734 444.657827 
L 585.310581 438.517032 
L 595.489967 412.039135 
L 598.034813 406.080171 
L 600.579659 400.600169 
L 603.124506 395.510187 
L 608.214199 386.073011 
L 610.759045 381.607614 
L 613.303892 377.373206 
L 615.848738 373.476523 
L 618.393585 370.035218 
L 620.938431 367.155343 
L 623.483278 364.911565 
L 626.028124 363.330159 
L 628.572971 362.389495 
L 631.117817 362.056797 
L 633.662663 362.269913 
L 636.20751 362.88491 
L 648.931742 366.99507 
L 659.111128 369.470465 
L 661.655974 369.913667 
L 664.200821 370.145288 
L 666.745667 370.127052 
L 669.290514 369.86047 
L 671.83536 369.367377 
L 674.380207 368.689194 
L 676.925053 367.840969 
L 679.4699 366.82161 
L 684.559593 364.381421 
L 687.104439 363.135268 
L 689.649285 362.051194 
L 692.194132 361.257758 
L 694.738978 360.843654 
L 697.283825 360.890419 
L 699.828671 361.48065 
L 702.373518 362.648667 
L 704.918364 364.425089 
L 707.463211 366.869086 
L 710.008057 369.966249 
L 712.552904 373.623634 
L 717.642597 381.93189 
L 720.187443 386.133616 
L 722.732289 390.089279 
L 725.277136 393.680724 
L 727.821982 396.85159 
L 730.366829 399.638451 
L 740.546215 409.915243 
L 745.635908 415.734628 
L 753.270447 424.859267 
L 755.815293 427.583387 
L 758.36014 429.944064 
L 760.904986 431.873055 
L 763.449833 433.3513 
L 765.994679 434.428662 
L 768.539526 435.20689 
L 776.174065 437.063121 
L 781.263758 438.783994 
L 788.898297 441.621243 
L 791.443144 442.303977 
L 793.98799 442.69964 
L 796.532837 442.672422 
L 799.077683 442.062967 
L 801.62253 440.701689 
L 804.167376 438.424126 
L 806.712223 435.11969 
L 809.257069 430.760623 
L 811.801915 425.414542 
L 814.346762 419.262918 
L 824.526148 392.77024 
L 827.070994 387.477589 
L 829.615841 383.254293 
L 832.160687 380.13946 
L 834.705534 378.040839 
L 837.25038 376.761402 
L 839.795227 376.0724 
L 842.340073 375.741636 
L 847.429766 375.306593 
L 849.974612 374.933605 
L 852.519459 374.395132 
L 862.698845 371.704624 
L 865.243691 371.406581 
L 867.788538 371.440904 
L 870.333384 371.824492 
L 872.87823 372.538022 
L 875.423077 373.534789 
L 877.967923 374.774985 
L 880.51277 376.214517 
L 885.602463 379.51755 
L 890.692156 382.869762 
L 893.237002 384.307196 
L 895.781849 385.474886 
L 898.326695 386.348995 
L 905.961234 388.297768 
L 908.506081 389.444224 
L 911.050927 391.211057 
L 913.595774 393.71948 
L 916.14062 397.00414 
L 918.685467 401.019675 
L 921.230313 405.623073 
L 928.864853 420.673905 
L 931.409699 425.234616 
L 933.954545 429.230341 
L 933.954545 429.230341 
" style="fill:none;stroke:#1f77b4;stroke-linecap:square;stroke-width:1.5;"/>
   </g>
   <g id="patch_3">
    <path d="M 135 630 
L 135 86.4 
" style="fill:none;stroke:#000000;stroke-linecap:square;stroke-linejoin:miter;stroke-width:0.8;"/>
   </g>
   <g id="patch_4">
    <path d="M 972 630 
L 972 86.4 
" style="fill:none;stroke:#000000;stroke-linecap:square;stroke-linejoin:miter;stroke-width:0.8;"/>
   </g>
   <g id="patch_5">
    <path d="M 135 630 
L 972 630 
" style="fill:none;stroke:#000000;stroke-linecap:square;stroke-linejoin:miter;stroke-width:0.8;"/>
   </g>
   <g id="patch_6">
    <path d="M 135 86.4 
L 972 86.4 
" style="fill:none;stroke:#000000;stroke-linecap:square;stroke-linejoin:miter;stroke-width:0.8;"/>
   </g>
  </g>
 </g>
 <defs>
  <clipPath id="p1954ae9490">
   <rect height="543.6" width="837" x="135" y="86.4"/>
  </clipPath>
 </defs>
</svg>
