<?xml version="1.0" encoding="utf-8" standalone="no"?>
<!DOCTYPE svg PUBLIC "-//W3C//DTD SVG 1.1//EN"
  "http://www.w3.org/Graphics/SVG/1.1/DTD/svg11.dtd">
<!-- Created with matplotlib (https://matplotlib.org/) -->
<svg height="720pt" version="1.1" viewBox="0 0 1080 720" width="1080pt" xmlns="http://www.w3.org/2000/svg" xmlns:xlink="http://www.w3.org/1999/xlink">
 <defs>
  <style type="text/css">
*{stroke-linecap:butt;stroke-linejoin:round;}
  </style>
 </defs>
 <g id="figure_1">
  <g id="patch_1">
   <path d="M 0 720 
L 1080 720 
L 1080 0 
L 0 0 
z
" style="fill:#ffffff;"/>
  </g>
  <g id="axes_1">
   <g id="patch_2">
    <path d="M 135 630 
L 972 630 
L 972 86.4 
L 135 86.4 
z
" style="fill:#ffffff;"/>
   </g>
   <g id="matplotlib.axis_1">
    <g id="xtick_1">
     <g id="line2d_1">
      <defs>
       <path d="M 0 0 
L 0 3.5 
" id="m4795c06bc0" style="stroke:#000000;stroke-width:0.8;"/>
      </defs>
      <g>
       <use style="stroke:#000000;stroke-width:0.8;" x="173.045455" xlink:href="#m4795c06bc0" y="630"/>
      </g>
     </g>
     <g id="text_1">
      <!-- 0 -->
      <defs>
       <path d="M 31.78125 66.40625 
Q 24.171875 66.40625 20.328125 58.90625 
Q 16.5 51.421875 16.5 36.375 
Q 16.5 21.390625 20.328125 13.890625 
Q 24.171875 6.390625 31.78125 6.390625 
Q 39.453125 6.390625 43.28125 13.890625 
Q 47.125 21.390625 47.125 36.375 
Q 47.125 51.421875 43.28125 58.90625 
Q 39.453125 66.40625 31.78125 66.40625 
z
M 31.78125 74.21875 
Q 44.046875 74.21875 50.515625 64.515625 
Q 56.984375 54.828125 56.984375 36.375 
Q 56.984375 17.96875 50.515625 8.265625 
Q 44.046875 -1.421875 31.78125 -1.421875 
Q 19.53125 -1.421875 13.0625 8.265625 
Q 6.59375 17.96875 6.59375 36.375 
Q 6.59375 54.828125 13.0625 64.515625 
Q 19.53125 74.21875 31.78125 74.21875 
z
" id="DejaVuSans-48"/>
      </defs>
      <g transform="translate(169.864205 644.598438)scale(0.1 -0.1)">
       <use xlink:href="#DejaVuSans-48"/>
      </g>
     </g>
    </g>
    <g id="xtick_2">
     <g id="line2d_2">
      <g>
       <use style="stroke:#000000;stroke-width:0.8;" x="300.287777" xlink:href="#m4795c06bc0" y="630"/>
      </g>
     </g>
     <g id="text_2">
      <!-- 50 -->
      <defs>
       <path d="M 10.796875 72.90625 
L 49.515625 72.90625 
L 49.515625 64.59375 
L 19.828125 64.59375 
L 19.828125 46.734375 
Q 21.96875 47.46875 24.109375 47.828125 
Q 26.265625 48.1875 28.421875 48.1875 
Q 40.625 48.1875 47.75 41.5 
Q 54.890625 34.8125 54.890625 23.390625 
Q 54.890625 11.625 47.5625 5.09375 
Q 40.234375 -1.421875 26.90625 -1.421875 
Q 22.3125 -1.421875 17.546875 -0.640625 
Q 12.796875 0.140625 7.71875 1.703125 
L 7.71875 11.625 
Q 12.109375 9.234375 16.796875 8.0625 
Q 21.484375 6.890625 26.703125 6.890625 
Q 35.15625 6.890625 40.078125 11.328125 
Q 45.015625 15.765625 45.015625 23.390625 
Q 45.015625 31 40.078125 35.4375 
Q 35.15625 39.890625 26.703125 39.890625 
Q 22.75 39.890625 18.8125 39.015625 
Q 14.890625 38.140625 10.796875 36.28125 
z
" id="DejaVuSans-53"/>
      </defs>
      <g transform="translate(293.925277 644.598438)scale(0.1 -0.1)">
       <use xlink:href="#DejaVuSans-53"/>
       <use x="63.623047" xlink:href="#DejaVuSans-48"/>
      </g>
     </g>
    </g>
    <g id="xtick_3">
     <g id="line2d_3">
      <g>
       <use style="stroke:#000000;stroke-width:0.8;" x="427.5301" xlink:href="#m4795c06bc0" y="630"/>
      </g>
     </g>
     <g id="text_3">
      <!-- 100 -->
      <defs>
       <path d="M 12.40625 8.296875 
L 28.515625 8.296875 
L 28.515625 63.921875 
L 10.984375 60.40625 
L 10.984375 69.390625 
L 28.421875 72.90625 
L 38.28125 72.90625 
L 38.28125 8.296875 
L 54.390625 8.296875 
L 54.390625 0 
L 12.40625 0 
z
" id="DejaVuSans-49"/>
      </defs>
      <g transform="translate(417.98635 644.598438)scale(0.1 -0.1)">
       <use xlink:href="#DejaVuSans-49"/>
       <use x="63.623047" xlink:href="#DejaVuSans-48"/>
       <use x="127.246094" xlink:href="#DejaVuSans-48"/>
      </g>
     </g>
    </g>
    <g id="xtick_4">
     <g id="line2d_4">
      <g>
       <use style="stroke:#000000;stroke-width:0.8;" x="554.772423" xlink:href="#m4795c06bc0" y="630"/>
      </g>
     </g>
     <g id="text_4">
      <!-- 150 -->
      <g transform="translate(545.228673 644.598438)scale(0.1 -0.1)">
       <use xlink:href="#DejaVuSans-49"/>
       <use x="63.623047" xlink:href="#DejaVuSans-53"/>
       <use x="127.246094" xlink:href="#DejaVuSans-48"/>
      </g>
     </g>
    </g>
    <g id="xtick_5">
     <g id="line2d_5">
      <g>
       <use style="stroke:#000000;stroke-width:0.8;" x="682.014746" xlink:href="#m4795c06bc0" y="630"/>
      </g>
     </g>
     <g id="text_5">
      <!-- 200 -->
      <defs>
       <path d="M 19.1875 8.296875 
L 53.609375 8.296875 
L 53.609375 0 
L 7.328125 0 
L 7.328125 8.296875 
Q 12.9375 14.109375 22.625 23.890625 
Q 32.328125 33.6875 34.8125 36.53125 
Q 39.546875 41.84375 41.421875 45.53125 
Q 43.3125 49.21875 43.3125 52.78125 
Q 43.3125 58.59375 39.234375 62.25 
Q 35.15625 65.921875 28.609375 65.921875 
Q 23.96875 65.921875 18.8125 64.3125 
Q 13.671875 62.703125 7.8125 59.421875 
L 7.8125 69.390625 
Q 13.765625 71.78125 18.9375 73 
Q 24.125 74.21875 28.421875 74.21875 
Q 39.75 74.21875 46.484375 68.546875 
Q 53.21875 62.890625 53.21875 53.421875 
Q 53.21875 48.921875 51.53125 44.890625 
Q 49.859375 40.875 45.40625 35.40625 
Q 44.1875 33.984375 37.640625 27.21875 
Q 31.109375 20.453125 19.1875 8.296875 
z
" id="DejaVuSans-50"/>
      </defs>
      <g transform="translate(672.470996 644.598438)scale(0.1 -0.1)">
       <use xlink:href="#DejaVuSans-50"/>
       <use x="63.623047" xlink:href="#DejaVuSans-48"/>
       <use x="127.246094" xlink:href="#DejaVuSans-48"/>
      </g>
     </g>
    </g>
    <g id="xtick_6">
     <g id="line2d_6">
      <g>
       <use style="stroke:#000000;stroke-width:0.8;" x="809.257069" xlink:href="#m4795c06bc0" y="630"/>
      </g>
     </g>
     <g id="text_6">
      <!-- 250 -->
      <g transform="translate(799.713319 644.598438)scale(0.1 -0.1)">
       <use xlink:href="#DejaVuSans-50"/>
       <use x="63.623047" xlink:href="#DejaVuSans-53"/>
       <use x="127.246094" xlink:href="#DejaVuSans-48"/>
      </g>
     </g>
    </g>
    <g id="xtick_7">
     <g id="line2d_7">
      <g>
       <use style="stroke:#000000;stroke-width:0.8;" x="936.499392" xlink:href="#m4795c06bc0" y="630"/>
      </g>
     </g>
     <g id="text_7">
      <!-- 300 -->
      <defs>
       <path d="M 40.578125 39.3125 
Q 47.65625 37.796875 51.625 33 
Q 55.609375 28.21875 55.609375 21.1875 
Q 55.609375 10.40625 48.1875 4.484375 
Q 40.765625 -1.421875 27.09375 -1.421875 
Q 22.515625 -1.421875 17.65625 -0.515625 
Q 12.796875 0.390625 7.625 2.203125 
L 7.625 11.71875 
Q 11.71875 9.328125 16.59375 8.109375 
Q 21.484375 6.890625 26.8125 6.890625 
Q 36.078125 6.890625 40.9375 10.546875 
Q 45.796875 14.203125 45.796875 21.1875 
Q 45.796875 27.640625 41.28125 31.265625 
Q 36.765625 34.90625 28.71875 34.90625 
L 20.21875 34.90625 
L 20.21875 43.015625 
L 29.109375 43.015625 
Q 36.375 43.015625 40.234375 45.921875 
Q 44.09375 48.828125 44.09375 54.296875 
Q 44.09375 59.90625 40.109375 62.90625 
Q 36.140625 65.921875 28.71875 65.921875 
Q 24.65625 65.921875 20.015625 65.03125 
Q 15.375 64.15625 9.8125 62.3125 
L 9.8125 71.09375 
Q 15.4375 72.65625 20.34375 73.4375 
Q 25.25 74.21875 29.59375 74.21875 
Q 40.828125 74.21875 47.359375 69.109375 
Q 53.90625 64.015625 53.90625 55.328125 
Q 53.90625 49.265625 50.4375 45.09375 
Q 46.96875 40.921875 40.578125 39.3125 
z
" id="DejaVuSans-51"/>
      </defs>
      <g transform="translate(926.955642 644.598438)scale(0.1 -0.1)">
       <use xlink:href="#DejaVuSans-51"/>
       <use x="63.623047" xlink:href="#DejaVuSans-48"/>
       <use x="127.246094" xlink:href="#DejaVuSans-48"/>
      </g>
     </g>
    </g>
   </g>
   <g id="matplotlib.axis_2">
    <g id="ytick_1">
     <g id="line2d_8">
      <defs>
       <path d="M 0 0 
L -3.5 0 
" id="md693534c0a" style="stroke:#000000;stroke-width:0.8;"/>
      </defs>
      <g>
       <use style="stroke:#000000;stroke-width:0.8;" x="135" xlink:href="#md693534c0a" y="630"/>
      </g>
     </g>
     <g id="text_8">
      <!-- 0 -->
      <g transform="translate(121.6375 633.799219)scale(0.1 -0.1)">
       <use xlink:href="#DejaVuSans-48"/>
      </g>
     </g>
    </g>
    <g id="ytick_2">
     <g id="line2d_9">
      <g>
       <use style="stroke:#000000;stroke-width:0.8;" x="135" xlink:href="#md693534c0a" y="562.05"/>
      </g>
     </g>
     <g id="text_9">
      <!-- 25 -->
      <g transform="translate(115.275 565.849219)scale(0.1 -0.1)">
       <use xlink:href="#DejaVuSans-50"/>
       <use x="63.623047" xlink:href="#DejaVuSans-53"/>
      </g>
     </g>
    </g>
    <g id="ytick_3">
     <g id="line2d_10">
      <g>
       <use style="stroke:#000000;stroke-width:0.8;" x="135" xlink:href="#md693534c0a" y="494.1"/>
      </g>
     </g>
     <g id="text_10">
      <!-- 50 -->
      <g transform="translate(115.275 497.899219)scale(0.1 -0.1)">
       <use xlink:href="#DejaVuSans-53"/>
       <use x="63.623047" xlink:href="#DejaVuSans-48"/>
      </g>
     </g>
    </g>
    <g id="ytick_4">
     <g id="line2d_11">
      <g>
       <use style="stroke:#000000;stroke-width:0.8;" x="135" xlink:href="#md693534c0a" y="426.15"/>
      </g>
     </g>
     <g id="text_11">
      <!-- 75 -->
      <defs>
       <path d="M 8.203125 72.90625 
L 55.078125 72.90625 
L 55.078125 68.703125 
L 28.609375 0 
L 18.3125 0 
L 43.21875 64.59375 
L 8.203125 64.59375 
z
" id="DejaVuSans-55"/>
      </defs>
      <g transform="translate(115.275 429.949219)scale(0.1 -0.1)">
       <use xlink:href="#DejaVuSans-55"/>
       <use x="63.623047" xlink:href="#DejaVuSans-53"/>
      </g>
     </g>
    </g>
    <g id="ytick_5">
     <g id="line2d_12">
      <g>
       <use style="stroke:#000000;stroke-width:0.8;" x="135" xlink:href="#md693534c0a" y="358.2"/>
      </g>
     </g>
     <g id="text_12">
      <!-- 100 -->
      <g transform="translate(108.9125 361.999219)scale(0.1 -0.1)">
       <use xlink:href="#DejaVuSans-49"/>
       <use x="63.623047" xlink:href="#DejaVuSans-48"/>
       <use x="127.246094" xlink:href="#DejaVuSans-48"/>
      </g>
     </g>
    </g>
    <g id="ytick_6">
     <g id="line2d_13">
      <g>
       <use style="stroke:#000000;stroke-width:0.8;" x="135" xlink:href="#md693534c0a" y="290.25"/>
      </g>
     </g>
     <g id="text_13">
      <!-- 125 -->
      <g transform="translate(108.9125 294.049219)scale(0.1 -0.1)">
       <use xlink:href="#DejaVuSans-49"/>
       <use x="63.623047" xlink:href="#DejaVuSans-50"/>
       <use x="127.246094" xlink:href="#DejaVuSans-53"/>
      </g>
     </g>
    </g>
    <g id="ytick_7">
     <g id="line2d_14">
      <g>
       <use style="stroke:#000000;stroke-width:0.8;" x="135" xlink:href="#md693534c0a" y="222.3"/>
      </g>
     </g>
     <g id="text_14">
      <!-- 150 -->
      <g transform="translate(108.9125 226.099219)scale(0.1 -0.1)">
       <use xlink:href="#DejaVuSans-49"/>
       <use x="63.623047" xlink:href="#DejaVuSans-53"/>
       <use x="127.246094" xlink:href="#DejaVuSans-48"/>
      </g>
     </g>
    </g>
    <g id="ytick_8">
     <g id="line2d_15">
      <g>
       <use style="stroke:#000000;stroke-width:0.8;" x="135" xlink:href="#md693534c0a" y="154.35"/>
      </g>
     </g>
     <g id="text_15">
      <!-- 175 -->
      <g transform="translate(108.9125 158.149219)scale(0.1 -0.1)">
       <use xlink:href="#DejaVuSans-49"/>
       <use x="63.623047" xlink:href="#DejaVuSans-55"/>
       <use x="127.246094" xlink:href="#DejaVuSans-53"/>
      </g>
     </g>
    </g>
    <g id="ytick_9">
     <g id="line2d_16">
      <g>
       <use style="stroke:#000000;stroke-width:0.8;" x="135" xlink:href="#md693534c0a" y="86.4"/>
      </g>
     </g>
     <g id="text_16">
      <!-- 200 -->
      <g transform="translate(108.9125 90.199219)scale(0.1 -0.1)">
       <use xlink:href="#DejaVuSans-50"/>
       <use x="63.623047" xlink:href="#DejaVuSans-48"/>
       <use x="127.246094" xlink:href="#DejaVuSans-48"/>
      </g>
     </g>
    </g>
   </g>
   <g id="line2d_17">
    <path clip-path="url(#pbc739f29be)" d="M 173.045455 205.651844 
L 175.590301 206.854986 
L 178.135147 208.555623 
L 180.679994 210.606359 
L 185.769687 215.281909 
L 193.404226 222.444545 
L 201.038766 229.432303 
L 203.583612 231.944883 
L 208.673305 237.442318 
L 213.762998 243.443751 
L 229.032077 261.967017 
L 231.576923 265.419107 
L 234.12177 269.162692 
L 236.666616 273.278704 
L 239.211462 277.803374 
L 241.756309 282.713924 
L 246.846002 293.348314 
L 251.935695 304.169344 
L 254.480541 309.274313 
L 257.025388 313.995248 
L 259.570234 318.234854 
L 262.115081 321.925902 
L 264.659927 325.043481 
L 267.204773 327.615522 
L 269.74962 329.685435 
L 272.294466 331.292989 
L 274.839313 332.481861 
L 277.384159 333.322574 
L 279.929006 333.906713 
L 285.018699 334.658241 
L 290.108392 335.463536 
L 292.653238 336.10371 
L 295.198085 336.984361 
L 297.742931 338.145621 
L 300.287777 339.628917 
L 302.832624 341.485964 
L 305.37747 343.743789 
L 307.922317 346.401491 
L 310.467163 349.458937 
L 313.01201 352.901357 
L 315.556856 356.66885 
L 320.646549 364.853269 
L 325.736242 373.156242 
L 328.281088 376.957913 
L 330.825935 380.319468 
L 333.370781 383.105983 
L 335.915628 385.216942 
L 338.460474 386.604112 
L 341.005321 387.264363 
L 343.550167 387.219002 
L 346.095014 386.505267 
L 348.63986 385.160895 
L 351.184707 383.219955 
L 353.729553 380.744191 
L 356.2744 377.822456 
L 358.819246 374.533332 
L 361.364092 370.931889 
L 366.453785 363.014647 
L 376.633171 346.267201 
L 379.178018 342.37851 
L 381.722864 338.769615 
L 384.267711 335.500009 
L 386.812557 332.602805 
L 389.357403 330.101218 
L 391.90225 328.022722 
L 394.447096 326.371107 
L 396.991943 325.140958 
L 399.536789 324.319084 
L 402.081636 323.858287 
L 404.626482 323.675417 
L 407.171329 323.694101 
L 412.261022 324.091014 
L 419.895561 324.730722 
L 427.5301 325.265845 
L 430.074947 325.598542 
L 432.619793 326.124135 
L 435.16464 326.918598 
L 437.709486 328.024815 
L 440.254333 329.46359 
L 442.799179 331.229378 
L 452.978565 339.225132 
L 455.523411 340.61039 
L 458.068258 341.439421 
L 460.613104 341.63386 
L 463.157951 341.185424 
L 465.702797 340.120231 
L 468.247644 338.483719 
L 470.79249 336.347352 
L 473.337337 333.801803 
L 478.427029 328.029147 
L 488.606415 315.793408 
L 496.240955 306.186567 
L 501.330648 299.896865 
L 503.875494 297.032995 
L 506.420341 294.477443 
L 508.965187 292.284534 
L 511.510033 290.446197 
L 514.05488 288.949888 
L 516.599726 287.76212 
L 519.144573 286.809538 
L 529.323959 283.569795 
L 531.868805 282.469765 
L 534.413652 281.188165 
L 536.958498 279.733968 
L 539.503344 278.106174 
L 542.048191 276.295467 
L 544.593037 274.284756 
L 547.137884 272.05181 
L 549.68273 269.552202 
L 552.227577 266.733201 
L 554.772423 263.564284 
L 557.31727 260.06362 
L 562.406963 252.359877 
L 567.496656 244.59471 
L 570.041502 241.099945 
L 572.586348 238.061716 
L 575.131195 235.609985 
L 577.676041 233.840534 
L 580.220888 232.798925 
L 582.765734 232.466036 
L 585.310581 232.756325 
L 587.855427 233.53238 
L 592.94512 235.828755 
L 595.489967 236.961174 
L 598.034813 237.830245 
L 600.579659 238.28428 
L 603.124506 238.221757 
L 605.669352 237.60969 
L 608.214199 236.486888 
L 610.759045 234.955726 
L 618.393585 229.722315 
L 620.938431 228.487634 
L 623.483278 227.812043 
L 626.028124 227.787589 
L 628.572971 228.438158 
L 631.117817 229.756421 
L 633.662663 231.73323 
L 636.20751 234.352869 
L 638.752356 237.610108 
L 641.297203 241.506658 
L 643.842049 246.019833 
L 646.386896 251.126005 
L 648.931742 256.812086 
L 651.476589 263.037954 
L 654.021435 269.708481 
L 659.111128 283.884552 
L 664.200821 298.117104 
L 666.745667 304.822369 
L 669.290514 311.031228 
L 671.83536 316.626366 
L 674.380207 321.548839 
L 676.925053 325.792132 
L 679.4699 329.37109 
L 682.014746 332.315963 
L 684.559593 334.696653 
L 687.104439 336.607456 
L 689.649285 338.151037 
L 692.194132 339.440323 
L 697.283825 341.621675 
L 702.373518 343.583766 
L 704.918364 344.39541 
L 707.463211 344.938716 
L 710.008057 345.054046 
L 712.552904 344.588919 
L 715.09775 343.423062 
L 717.642597 341.485628 
L 720.187443 338.762721 
L 722.732289 335.267893 
L 725.277136 331.02169 
L 727.821982 326.12585 
L 730.366829 320.769945 
L 740.546215 298.501499 
L 743.091061 293.546379 
L 745.635908 289.063711 
L 748.180754 285.094433 
L 750.7256 281.657797 
L 753.270447 278.737349 
L 755.815293 276.282711 
L 758.36014 274.206746 
L 765.994679 268.799771 
L 768.539526 266.73974 
L 771.084372 264.344121 
L 773.629219 261.632391 
L 776.174065 258.643168 
L 781.263758 252.008794 
L 786.353451 245.198938 
L 791.443144 238.784283 
L 796.532837 232.889194 
L 806.712223 221.533973 
L 816.891608 209.679972 
L 819.436455 207.057284 
L 821.981301 204.767397 
L 824.526148 202.884443 
L 827.070994 201.476132 
L 829.615841 200.564936 
L 832.160687 200.123955 
L 834.705534 200.117806 
L 837.25038 200.504837 
L 839.795227 201.212334 
L 844.884919 203.17457 
L 849.974612 205.200699 
L 855.064305 206.892455 
L 860.153998 208.268279 
L 867.788538 210.221019 
L 870.333384 211.072497 
L 872.87823 212.156661 
L 875.423077 213.561969 
L 877.967923 215.372075 
L 880.51277 217.667535 
L 883.057616 220.508167 
L 885.602463 223.962611 
L 888.147309 228.123675 
L 890.692156 233.050537 
L 893.237002 238.759769 
L 895.781849 245.225405 
L 898.326695 252.340984 
L 903.416388 267.811851 
L 908.506081 283.626763 
L 911.050927 291.137735 
L 913.595774 298.125118 
L 916.14062 304.374832 
L 918.685467 309.712353 
L 921.230313 313.994882 
L 923.77516 317.108066 
L 926.320006 318.999004 
L 928.864853 319.664077 
L 931.409699 319.126705 
L 933.954545 317.42466 
L 933.954545 317.42466 
" style="fill:none;stroke:#1f77b4;stroke-linecap:square;stroke-width:1.5;"/>
   </g>
   <g id="patch_3">
    <path d="M 135 630 
L 135 86.4 
" style="fill:none;stroke:#000000;stroke-linecap:square;stroke-linejoin:miter;stroke-width:0.8;"/>
   </g>
   <g id="patch_4">
    <path d="M 972 630 
L 972 86.4 
" style="fill:none;stroke:#000000;stroke-linecap:square;stroke-linejoin:miter;stroke-width:0.8;"/>
   </g>
   <g id="patch_5">
    <path d="M 135 630 
L 972 630 
" style="fill:none;stroke:#000000;stroke-linecap:square;stroke-linejoin:miter;stroke-width:0.8;"/>
   </g>
   <g id="patch_6">
    <path d="M 135 86.4 
L 972 86.4 
" style="fill:none;stroke:#000000;stroke-linecap:square;stroke-linejoin:miter;stroke-width:0.8;"/>
   </g>
  </g>
 </g>
 <defs>
  <clipPath id="pbc739f29be">
   <rect height="543.6" width="837" x="135" y="86.4"/>
  </clipPath>
 </defs>
</svg>
