<?xml version="1.0" encoding="utf-8" standalone="no"?>
<!DOCTYPE svg PUBLIC "-//W3C//DTD SVG 1.1//EN"
  "http://www.w3.org/Graphics/SVG/1.1/DTD/svg11.dtd">
<!-- Created with matplotlib (https://matplotlib.org/) -->
<svg height="432pt" version="1.1" viewBox="0 0 1080 432" width="1080pt" xmlns="http://www.w3.org/2000/svg" xmlns:xlink="http://www.w3.org/1999/xlink">
 <defs>
  <style type="text/css">
*{stroke-linecap:butt;stroke-linejoin:round;}
  </style>
 </defs>
 <g id="figure_1">
  <g id="patch_1">
   <path d="M 0 432 
L 1080 432 
L 1080 0 
L 0 0 
z
" style="fill:#ffffff;"/>
  </g>
  <g id="axes_1">
   <g id="patch_2">
    <path d="M 135 378 
L 972 378 
L 972 51.84 
L 135 51.84 
z
" style="fill:#ffffff;"/>
   </g>
   <g id="matplotlib.axis_1">
    <g id="xtick_1">
     <g id="line2d_1">
      <defs>
       <path d="M 0 0 
L 0 3.5 
" id="m26facf9754" style="stroke:#000000;stroke-width:0.8;"/>
      </defs>
      <g>
       <use style="stroke:#000000;stroke-width:0.8;" x="173.045455" xlink:href="#m26facf9754" y="378"/>
      </g>
     </g>
     <g id="text_1">
      <!-- 0 -->
      <defs>
       <path d="M 31.78125 66.40625 
Q 24.171875 66.40625 20.328125 58.90625 
Q 16.5 51.421875 16.5 36.375 
Q 16.5 21.390625 20.328125 13.890625 
Q 24.171875 6.390625 31.78125 6.390625 
Q 39.453125 6.390625 43.28125 13.890625 
Q 47.125 21.390625 47.125 36.375 
Q 47.125 51.421875 43.28125 58.90625 
Q 39.453125 66.40625 31.78125 66.40625 
z
M 31.78125 74.21875 
Q 44.046875 74.21875 50.515625 64.515625 
Q 56.984375 54.828125 56.984375 36.375 
Q 56.984375 17.96875 50.515625 8.265625 
Q 44.046875 -1.421875 31.78125 -1.421875 
Q 19.53125 -1.421875 13.0625 8.265625 
Q 6.59375 17.96875 6.59375 36.375 
Q 6.59375 54.828125 13.0625 64.515625 
Q 19.53125 74.21875 31.78125 74.21875 
z
" id="DejaVuSans-48"/>
      </defs>
      <g transform="translate(169.864205 392.598437)scale(0.1 -0.1)">
       <use xlink:href="#DejaVuSans-48"/>
      </g>
     </g>
    </g>
    <g id="xtick_2">
     <g id="line2d_2">
      <g>
       <use style="stroke:#000000;stroke-width:0.8;" x="325.532246" xlink:href="#m26facf9754" y="378"/>
      </g>
     </g>
     <g id="text_2">
      <!-- 100 -->
      <defs>
       <path d="M 12.40625 8.296875 
L 28.515625 8.296875 
L 28.515625 63.921875 
L 10.984375 60.40625 
L 10.984375 69.390625 
L 28.421875 72.90625 
L 38.28125 72.90625 
L 38.28125 8.296875 
L 54.390625 8.296875 
L 54.390625 0 
L 12.40625 0 
z
" id="DejaVuSans-49"/>
      </defs>
      <g transform="translate(315.988496 392.598437)scale(0.1 -0.1)">
       <use xlink:href="#DejaVuSans-49"/>
       <use x="63.623047" xlink:href="#DejaVuSans-48"/>
       <use x="127.246094" xlink:href="#DejaVuSans-48"/>
      </g>
     </g>
    </g>
    <g id="xtick_3">
     <g id="line2d_3">
      <g>
       <use style="stroke:#000000;stroke-width:0.8;" x="478.019038" xlink:href="#m26facf9754" y="378"/>
      </g>
     </g>
     <g id="text_3">
      <!-- 200 -->
      <defs>
       <path d="M 19.1875 8.296875 
L 53.609375 8.296875 
L 53.609375 0 
L 7.328125 0 
L 7.328125 8.296875 
Q 12.9375 14.109375 22.625 23.890625 
Q 32.328125 33.6875 34.8125 36.53125 
Q 39.546875 41.84375 41.421875 45.53125 
Q 43.3125 49.21875 43.3125 52.78125 
Q 43.3125 58.59375 39.234375 62.25 
Q 35.15625 65.921875 28.609375 65.921875 
Q 23.96875 65.921875 18.8125 64.3125 
Q 13.671875 62.703125 7.8125 59.421875 
L 7.8125 69.390625 
Q 13.765625 71.78125 18.9375 73 
Q 24.125 74.21875 28.421875 74.21875 
Q 39.75 74.21875 46.484375 68.546875 
Q 53.21875 62.890625 53.21875 53.421875 
Q 53.21875 48.921875 51.53125 44.890625 
Q 49.859375 40.875 45.40625 35.40625 
Q 44.1875 33.984375 37.640625 27.21875 
Q 31.109375 20.453125 19.1875 8.296875 
z
" id="DejaVuSans-50"/>
      </defs>
      <g transform="translate(468.475288 392.598437)scale(0.1 -0.1)">
       <use xlink:href="#DejaVuSans-50"/>
       <use x="63.623047" xlink:href="#DejaVuSans-48"/>
       <use x="127.246094" xlink:href="#DejaVuSans-48"/>
      </g>
     </g>
    </g>
    <g id="xtick_4">
     <g id="line2d_4">
      <g>
       <use style="stroke:#000000;stroke-width:0.8;" x="630.50583" xlink:href="#m26facf9754" y="378"/>
      </g>
     </g>
     <g id="text_4">
      <!-- 300 -->
      <defs>
       <path d="M 40.578125 39.3125 
Q 47.65625 37.796875 51.625 33 
Q 55.609375 28.21875 55.609375 21.1875 
Q 55.609375 10.40625 48.1875 4.484375 
Q 40.765625 -1.421875 27.09375 -1.421875 
Q 22.515625 -1.421875 17.65625 -0.515625 
Q 12.796875 0.390625 7.625 2.203125 
L 7.625 11.71875 
Q 11.71875 9.328125 16.59375 8.109375 
Q 21.484375 6.890625 26.8125 6.890625 
Q 36.078125 6.890625 40.9375 10.546875 
Q 45.796875 14.203125 45.796875 21.1875 
Q 45.796875 27.640625 41.28125 31.265625 
Q 36.765625 34.90625 28.71875 34.90625 
L 20.21875 34.90625 
L 20.21875 43.015625 
L 29.109375 43.015625 
Q 36.375 43.015625 40.234375 45.921875 
Q 44.09375 48.828125 44.09375 54.296875 
Q 44.09375 59.90625 40.109375 62.90625 
Q 36.140625 65.921875 28.71875 65.921875 
Q 24.65625 65.921875 20.015625 65.03125 
Q 15.375 64.15625 9.8125 62.3125 
L 9.8125 71.09375 
Q 15.4375 72.65625 20.34375 73.4375 
Q 25.25 74.21875 29.59375 74.21875 
Q 40.828125 74.21875 47.359375 69.109375 
Q 53.90625 64.015625 53.90625 55.328125 
Q 53.90625 49.265625 50.4375 45.09375 
Q 46.96875 40.921875 40.578125 39.3125 
z
" id="DejaVuSans-51"/>
      </defs>
      <g transform="translate(620.96208 392.598437)scale(0.1 -0.1)">
       <use xlink:href="#DejaVuSans-51"/>
       <use x="63.623047" xlink:href="#DejaVuSans-48"/>
       <use x="127.246094" xlink:href="#DejaVuSans-48"/>
      </g>
     </g>
    </g>
    <g id="xtick_5">
     <g id="line2d_5">
      <g>
       <use style="stroke:#000000;stroke-width:0.8;" x="782.992622" xlink:href="#m26facf9754" y="378"/>
      </g>
     </g>
     <g id="text_5">
      <!-- 400 -->
      <defs>
       <path d="M 37.796875 64.3125 
L 12.890625 25.390625 
L 37.796875 25.390625 
z
M 35.203125 72.90625 
L 47.609375 72.90625 
L 47.609375 25.390625 
L 58.015625 25.390625 
L 58.015625 17.1875 
L 47.609375 17.1875 
L 47.609375 0 
L 37.796875 0 
L 37.796875 17.1875 
L 4.890625 17.1875 
L 4.890625 26.703125 
z
" id="DejaVuSans-52"/>
      </defs>
      <g transform="translate(773.448872 392.598437)scale(0.1 -0.1)">
       <use xlink:href="#DejaVuSans-52"/>
       <use x="63.623047" xlink:href="#DejaVuSans-48"/>
       <use x="127.246094" xlink:href="#DejaVuSans-48"/>
      </g>
     </g>
    </g>
    <g id="xtick_6">
     <g id="line2d_6">
      <g>
       <use style="stroke:#000000;stroke-width:0.8;" x="935.479413" xlink:href="#m26facf9754" y="378"/>
      </g>
     </g>
     <g id="text_6">
      <!-- 500 -->
      <defs>
       <path d="M 10.796875 72.90625 
L 49.515625 72.90625 
L 49.515625 64.59375 
L 19.828125 64.59375 
L 19.828125 46.734375 
Q 21.96875 47.46875 24.109375 47.828125 
Q 26.265625 48.1875 28.421875 48.1875 
Q 40.625 48.1875 47.75 41.5 
Q 54.890625 34.8125 54.890625 23.390625 
Q 54.890625 11.625 47.5625 5.09375 
Q 40.234375 -1.421875 26.90625 -1.421875 
Q 22.3125 -1.421875 17.546875 -0.640625 
Q 12.796875 0.140625 7.71875 1.703125 
L 7.71875 11.625 
Q 12.109375 9.234375 16.796875 8.0625 
Q 21.484375 6.890625 26.703125 6.890625 
Q 35.15625 6.890625 40.078125 11.328125 
Q 45.015625 15.765625 45.015625 23.390625 
Q 45.015625 31 40.078125 35.4375 
Q 35.15625 39.890625 26.703125 39.890625 
Q 22.75 39.890625 18.8125 39.015625 
Q 14.890625 38.140625 10.796875 36.28125 
z
" id="DejaVuSans-53"/>
      </defs>
      <g transform="translate(925.935663 392.598437)scale(0.1 -0.1)">
       <use xlink:href="#DejaVuSans-53"/>
       <use x="63.623047" xlink:href="#DejaVuSans-48"/>
       <use x="127.246094" xlink:href="#DejaVuSans-48"/>
      </g>
     </g>
    </g>
   </g>
   <g id="matplotlib.axis_2">
    <g id="ytick_1">
     <g id="line2d_7">
      <defs>
       <path d="M 0 0 
L -3.5 0 
" id="m37efc00c44" style="stroke:#000000;stroke-width:0.8;"/>
      </defs>
      <g>
       <use style="stroke:#000000;stroke-width:0.8;" x="135" xlink:href="#m37efc00c44" y="373.618403"/>
      </g>
     </g>
     <g id="text_7">
      <!-- 360 -->
      <defs>
       <path d="M 33.015625 40.375 
Q 26.375 40.375 22.484375 35.828125 
Q 18.609375 31.296875 18.609375 23.390625 
Q 18.609375 15.53125 22.484375 10.953125 
Q 26.375 6.390625 33.015625 6.390625 
Q 39.65625 6.390625 43.53125 10.953125 
Q 47.40625 15.53125 47.40625 23.390625 
Q 47.40625 31.296875 43.53125 35.828125 
Q 39.65625 40.375 33.015625 40.375 
z
M 52.59375 71.296875 
L 52.59375 62.3125 
Q 48.875 64.0625 45.09375 64.984375 
Q 41.3125 65.921875 37.59375 65.921875 
Q 27.828125 65.921875 22.671875 59.328125 
Q 17.53125 52.734375 16.796875 39.40625 
Q 19.671875 43.65625 24.015625 45.921875 
Q 28.375 48.1875 33.59375 48.1875 
Q 44.578125 48.1875 50.953125 41.515625 
Q 57.328125 34.859375 57.328125 23.390625 
Q 57.328125 12.15625 50.6875 5.359375 
Q 44.046875 -1.421875 33.015625 -1.421875 
Q 20.359375 -1.421875 13.671875 8.265625 
Q 6.984375 17.96875 6.984375 36.375 
Q 6.984375 53.65625 15.1875 63.9375 
Q 23.390625 74.21875 37.203125 74.21875 
Q 40.921875 74.21875 44.703125 73.484375 
Q 48.484375 72.75 52.59375 71.296875 
z
" id="DejaVuSans-54"/>
      </defs>
      <g transform="translate(108.9125 377.417622)scale(0.1 -0.1)">
       <use xlink:href="#DejaVuSans-51"/>
       <use x="63.623047" xlink:href="#DejaVuSans-54"/>
       <use x="127.246094" xlink:href="#DejaVuSans-48"/>
      </g>
     </g>
    </g>
    <g id="ytick_2">
     <g id="line2d_8">
      <g>
       <use style="stroke:#000000;stroke-width:0.8;" x="135" xlink:href="#m37efc00c44" y="329.258493"/>
      </g>
     </g>
     <g id="text_8">
      <!-- 370 -->
      <defs>
       <path d="M 8.203125 72.90625 
L 55.078125 72.90625 
L 55.078125 68.703125 
L 28.609375 0 
L 18.3125 0 
L 43.21875 64.59375 
L 8.203125 64.59375 
z
" id="DejaVuSans-55"/>
      </defs>
      <g transform="translate(108.9125 333.057712)scale(0.1 -0.1)">
       <use xlink:href="#DejaVuSans-51"/>
       <use x="63.623047" xlink:href="#DejaVuSans-55"/>
       <use x="127.246094" xlink:href="#DejaVuSans-48"/>
      </g>
     </g>
    </g>
    <g id="ytick_3">
     <g id="line2d_9">
      <g>
       <use style="stroke:#000000;stroke-width:0.8;" x="135" xlink:href="#m37efc00c44" y="284.898584"/>
      </g>
     </g>
     <g id="text_9">
      <!-- 380 -->
      <defs>
       <path d="M 31.78125 34.625 
Q 24.75 34.625 20.71875 30.859375 
Q 16.703125 27.09375 16.703125 20.515625 
Q 16.703125 13.921875 20.71875 10.15625 
Q 24.75 6.390625 31.78125 6.390625 
Q 38.8125 6.390625 42.859375 10.171875 
Q 46.921875 13.96875 46.921875 20.515625 
Q 46.921875 27.09375 42.890625 30.859375 
Q 38.875 34.625 31.78125 34.625 
z
M 21.921875 38.8125 
Q 15.578125 40.375 12.03125 44.71875 
Q 8.5 49.078125 8.5 55.328125 
Q 8.5 64.0625 14.71875 69.140625 
Q 20.953125 74.21875 31.78125 74.21875 
Q 42.671875 74.21875 48.875 69.140625 
Q 55.078125 64.0625 55.078125 55.328125 
Q 55.078125 49.078125 51.53125 44.71875 
Q 48 40.375 41.703125 38.8125 
Q 48.828125 37.15625 52.796875 32.3125 
Q 56.78125 27.484375 56.78125 20.515625 
Q 56.78125 9.90625 50.3125 4.234375 
Q 43.84375 -1.421875 31.78125 -1.421875 
Q 19.734375 -1.421875 13.25 4.234375 
Q 6.78125 9.90625 6.78125 20.515625 
Q 6.78125 27.484375 10.78125 32.3125 
Q 14.796875 37.15625 21.921875 38.8125 
z
M 18.3125 54.390625 
Q 18.3125 48.734375 21.84375 45.5625 
Q 25.390625 42.390625 31.78125 42.390625 
Q 38.140625 42.390625 41.71875 45.5625 
Q 45.3125 48.734375 45.3125 54.390625 
Q 45.3125 60.0625 41.71875 63.234375 
Q 38.140625 66.40625 31.78125 66.40625 
Q 25.390625 66.40625 21.84375 63.234375 
Q 18.3125 60.0625 18.3125 54.390625 
z
" id="DejaVuSans-56"/>
      </defs>
      <g transform="translate(108.9125 288.697803)scale(0.1 -0.1)">
       <use xlink:href="#DejaVuSans-51"/>
       <use x="63.623047" xlink:href="#DejaVuSans-56"/>
       <use x="127.246094" xlink:href="#DejaVuSans-48"/>
      </g>
     </g>
    </g>
    <g id="ytick_4">
     <g id="line2d_10">
      <g>
       <use style="stroke:#000000;stroke-width:0.8;" x="135" xlink:href="#m37efc00c44" y="240.538674"/>
      </g>
     </g>
     <g id="text_10">
      <!-- 390 -->
      <defs>
       <path d="M 10.984375 1.515625 
L 10.984375 10.5 
Q 14.703125 8.734375 18.5 7.8125 
Q 22.3125 6.890625 25.984375 6.890625 
Q 35.75 6.890625 40.890625 13.453125 
Q 46.046875 20.015625 46.78125 33.40625 
Q 43.953125 29.203125 39.59375 26.953125 
Q 35.25 24.703125 29.984375 24.703125 
Q 19.046875 24.703125 12.671875 31.3125 
Q 6.296875 37.9375 6.296875 49.421875 
Q 6.296875 60.640625 12.9375 67.421875 
Q 19.578125 74.21875 30.609375 74.21875 
Q 43.265625 74.21875 49.921875 64.515625 
Q 56.59375 54.828125 56.59375 36.375 
Q 56.59375 19.140625 48.40625 8.859375 
Q 40.234375 -1.421875 26.421875 -1.421875 
Q 22.703125 -1.421875 18.890625 -0.6875 
Q 15.09375 0.046875 10.984375 1.515625 
z
M 30.609375 32.421875 
Q 37.25 32.421875 41.125 36.953125 
Q 45.015625 41.5 45.015625 49.421875 
Q 45.015625 57.28125 41.125 61.84375 
Q 37.25 66.40625 30.609375 66.40625 
Q 23.96875 66.40625 20.09375 61.84375 
Q 16.21875 57.28125 16.21875 49.421875 
Q 16.21875 41.5 20.09375 36.953125 
Q 23.96875 32.421875 30.609375 32.421875 
z
" id="DejaVuSans-57"/>
      </defs>
      <g transform="translate(108.9125 244.337893)scale(0.1 -0.1)">
       <use xlink:href="#DejaVuSans-51"/>
       <use x="63.623047" xlink:href="#DejaVuSans-57"/>
       <use x="127.246094" xlink:href="#DejaVuSans-48"/>
      </g>
     </g>
    </g>
    <g id="ytick_5">
     <g id="line2d_11">
      <g>
       <use style="stroke:#000000;stroke-width:0.8;" x="135" xlink:href="#m37efc00c44" y="196.178765"/>
      </g>
     </g>
     <g id="text_11">
      <!-- 400 -->
      <g transform="translate(108.9125 199.977983)scale(0.1 -0.1)">
       <use xlink:href="#DejaVuSans-52"/>
       <use x="63.623047" xlink:href="#DejaVuSans-48"/>
       <use x="127.246094" xlink:href="#DejaVuSans-48"/>
      </g>
     </g>
    </g>
    <g id="ytick_6">
     <g id="line2d_12">
      <g>
       <use style="stroke:#000000;stroke-width:0.8;" x="135" xlink:href="#m37efc00c44" y="151.818855"/>
      </g>
     </g>
     <g id="text_12">
      <!-- 410 -->
      <g transform="translate(108.9125 155.618074)scale(0.1 -0.1)">
       <use xlink:href="#DejaVuSans-52"/>
       <use x="63.623047" xlink:href="#DejaVuSans-49"/>
       <use x="127.246094" xlink:href="#DejaVuSans-48"/>
      </g>
     </g>
    </g>
    <g id="ytick_7">
     <g id="line2d_13">
      <g>
       <use style="stroke:#000000;stroke-width:0.8;" x="135" xlink:href="#m37efc00c44" y="107.458945"/>
      </g>
     </g>
     <g id="text_13">
      <!-- 420 -->
      <g transform="translate(108.9125 111.258164)scale(0.1 -0.1)">
       <use xlink:href="#DejaVuSans-52"/>
       <use x="63.623047" xlink:href="#DejaVuSans-50"/>
       <use x="127.246094" xlink:href="#DejaVuSans-48"/>
      </g>
     </g>
    </g>
    <g id="ytick_8">
     <g id="line2d_14">
      <g>
       <use style="stroke:#000000;stroke-width:0.8;" x="135" xlink:href="#m37efc00c44" y="63.099036"/>
      </g>
     </g>
     <g id="text_14">
      <!-- 430 -->
      <g transform="translate(108.9125 66.898255)scale(0.1 -0.1)">
       <use xlink:href="#DejaVuSans-52"/>
       <use x="63.623047" xlink:href="#DejaVuSans-51"/>
       <use x="127.246094" xlink:href="#DejaVuSans-48"/>
      </g>
     </g>
    </g>
   </g>
   <g id="line2d_15">
    <path clip-path="url(#pa712df0b77)" d="M 173.045455 89.865188 
L 174.570322 83.556552 
L 176.09519 77.82622 
L 177.620058 73.013948 
L 179.144926 69.409848 
L 180.669794 67.259001 
L 182.194662 66.665455 
L 183.71953 67.610542 
L 185.244398 69.875213 
L 186.769266 73.055549 
L 189.819002 80.799215 
L 192.868737 88.837506 
L 195.918473 96.227733 
L 198.968209 102.463269 
L 202.017945 107.956729 
L 205.067681 112.772757 
L 208.117417 117.000073 
L 211.167152 120.567346 
L 214.216888 123.521623 
L 217.266624 126.598791 
L 220.31636 130.155794 
L 221.841228 132.147025 
L 223.366096 134.341604 
L 224.890964 136.792291 
L 226.415832 139.610491 
L 227.9407 142.87449 
L 229.465567 146.606675 
L 230.990435 150.798557 
L 234.040171 160.337651 
L 237.089907 170.280054 
L 238.614775 174.925601 
L 240.139643 179.158507 
L 241.664511 182.929435 
L 243.189379 186.218738 
L 244.714247 189.029743 
L 246.239115 191.402805 
L 247.763983 193.433075 
L 249.28885 195.236531 
L 252.338586 198.324174 
L 253.863454 199.669591 
L 255.388322 200.831411 
L 256.91319 201.731928 
L 258.438058 202.301263 
L 259.962926 202.441158 
L 261.487794 202.042591 
L 263.012662 201.074874 
L 264.53753 199.563178 
L 266.062398 197.545324 
L 267.587265 195.07274 
L 269.112133 192.23361 
L 276.736473 176.984279 
L 278.261341 174.615675 
L 279.786209 172.609953 
L 281.311077 170.975734 
L 282.835945 169.69922 
L 284.360813 168.731011 
L 285.88568 167.981974 
L 288.935416 166.868605 
L 291.985152 166.077571 
L 295.034888 165.571649 
L 298.084624 165.446947 
L 301.13436 165.726859 
L 307.233831 166.48818 
L 313.333303 167.187213 
L 316.383039 167.747256 
L 319.432775 168.567407 
L 322.48251 169.808207 
L 325.532246 171.390425 
L 328.581982 173.310972 
L 330.10685 174.450259 
L 331.631718 175.754667 
L 334.681454 178.848773 
L 337.73119 182.556884 
L 340.780925 186.92581 
L 343.830661 191.841345 
L 346.880397 197.411698 
L 349.930133 203.767039 
L 351.455001 207.295032 
L 354.504737 215.191297 
L 357.554473 224.102607 
L 362.129076 238.623451 
L 368.228548 258.109119 
L 380.427491 295.630946 
L 381.952359 299.690297 
L 383.477227 302.875641 
L 385.002095 304.825353 
L 386.526963 305.232768 
L 388.051831 303.740644 
L 389.576699 299.748499 
L 391.101567 292.54334 
L 392.626435 281.608804 
L 394.151303 266.740444 
L 395.676171 248.160609 
L 397.201038 226.604281 
L 401.775642 156.402665 
L 403.30051 135.741145 
L 404.825378 118.524488 
L 406.350246 105.688974 
L 407.875114 97.732044 
L 409.399982 94.596791 
L 410.92485 95.787041 
L 412.449718 100.430991 
L 413.974586 107.321032 
L 417.024321 122.391608 
L 418.549189 128.45767 
L 420.074057 132.910181 
L 421.598925 135.702189 
L 423.123793 137.046759 
L 424.648661 137.268143 
L 426.173529 136.667967 
L 430.748133 133.435857 
L 432.273001 133.026259 
L 433.797868 133.260594 
L 435.322736 134.019856 
L 436.847604 135.09185 
L 441.422208 138.647288 
L 442.947076 139.643456 
L 444.471944 140.431375 
L 445.996812 140.991319 
L 449.046548 141.692409 
L 452.096283 142.439426 
L 453.621151 142.991062 
L 455.146019 143.783323 
L 458.195755 145.967615 
L 461.245491 148.320958 
L 462.770359 149.359377 
L 464.295227 150.22953 
L 467.344963 151.604903 
L 470.394698 152.964762 
L 471.919566 153.858436 
L 473.444434 155.042412 
L 474.969302 156.610273 
L 476.49417 158.621844 
L 478.019038 161.127198 
L 479.543906 164.125431 
L 481.068774 167.597139 
L 482.593642 171.49666 
L 485.643378 180.331894 
L 493.267717 204.318475 
L 496.317453 213.020377 
L 505.466661 238.051283 
L 513.091 258.149834 
L 516.140736 267.1099 
L 520.71534 281.738042 
L 522.240208 285.981263 
L 523.765076 289.142706 
L 525.289944 290.527724 
L 526.814811 289.317537 
L 528.339679 284.739052 
L 529.864547 276.251857 
L 531.389415 263.65752 
L 532.914283 247.158909 
L 534.439151 227.417149 
L 540.538623 140.931672 
L 542.063491 123.916246 
L 543.588359 110.730447 
L 545.113226 101.793672 
L 546.638094 97.064366 
L 548.162962 96.13864 
L 549.68783 98.379684 
L 551.212698 102.860267 
L 554.262434 114.583013 
L 555.787302 120.417832 
L 557.31217 125.732731 
L 558.837038 130.401222 
L 560.361906 134.40241 
L 561.886774 137.80378 
L 563.411641 140.66571 
L 564.936509 142.922214 
L 566.461377 144.475761 
L 567.986245 145.321187 
L 569.511113 145.526904 
L 571.035981 145.151326 
L 572.560849 144.247552 
L 574.085717 142.943372 
L 578.660321 138.426677 
L 580.185189 137.293902 
L 581.710056 136.652651 
L 583.234924 136.627443 
L 584.759792 137.291597 
L 586.28466 138.671434 
L 587.809528 140.747852 
L 589.334396 143.496723 
L 590.859264 146.935282 
L 592.384132 151.05827 
L 593.909 155.808145 
L 595.433868 161.091184 
L 598.483604 172.828861 
L 607.632811 209.907875 
L 610.682547 220.785753 
L 613.732283 230.514452 
L 616.782019 239.109378 
L 619.831754 246.8896 
L 622.88149 253.885125 
L 625.931226 260.217766 
L 628.980962 265.978142 
L 632.030698 271.182653 
L 638.130169 281.036009 
L 639.655037 283.753464 
L 641.179905 286.722651 
L 642.704773 290.035222 
L 644.229641 293.773195 
L 645.754509 297.94466 
L 648.804245 307.387124 
L 651.853981 317.917392 
L 654.903717 328.725795 
L 656.428584 333.51244 
L 657.953452 337.281746 
L 659.47832 339.48319 
L 661.003188 339.488963 
L 662.528056 336.694771 
L 664.052924 330.531555 
L 665.577792 320.470864 
L 667.10266 306.254036 
L 668.627528 288.075321 
L 670.152396 266.522503 
L 673.202132 217.217342 
L 676.251867 168.681897 
L 677.776735 148.145776 
L 679.301603 131.555951 
L 680.826471 119.542319 
L 682.351339 112.287071 
L 683.876207 109.6121 
L 685.401075 110.9816 
L 686.925943 115.529519 
L 688.450811 122.134681 
L 691.500547 136.961735 
L 693.025414 143.382451 
L 694.550282 148.593158 
L 696.07515 152.561641 
L 697.600018 155.386002 
L 699.124886 157.262895 
L 700.649754 158.449527 
L 702.174622 159.201366 
L 703.69949 159.658952 
L 711.323829 161.136893 
L 714.373565 161.880739 
L 715.898433 162.365537 
L 717.423301 163.123503 
L 718.948169 164.331072 
L 720.473037 166.087239 
L 721.997905 168.438382 
L 723.522773 171.380951 
L 725.047641 174.903474 
L 726.572509 179.047887 
L 728.097377 183.8974 
L 729.622244 189.475891 
L 731.147112 195.737479 
L 734.196848 209.965853 
L 741.821188 248.374651 
L 743.346056 255.048199 
L 744.870924 261.082369 
L 746.395792 266.447047 
L 749.445527 275.677375 
L 752.495263 284.403517 
L 755.544999 294.067879 
L 758.594735 304.706776 
L 766.219075 332.064277 
L 767.743942 336.960242 
L 769.26881 341.479288 
L 770.793678 345.595084 
L 772.318546 349.293625 
L 773.843414 352.530473 
L 775.368282 355.067452 
L 776.89315 356.528946 
L 778.418018 356.630583 
L 779.942886 355.189306 
L 781.467754 352.125246 
L 782.992622 347.461144 
L 784.51749 341.075862 
L 786.042357 332.568493 
L 787.567225 321.474603 
L 789.092093 307.457361 
L 790.616961 290.31583 
L 792.141829 270.087192 
L 793.666697 247.207558 
L 799.766169 148.101052 
L 801.291037 127.112059 
L 802.815905 109.500367 
L 804.340772 95.92337 
L 805.86564 86.803137 
L 807.390508 82.052337 
L 808.915376 81.115585 
L 810.440244 83.107423 
L 811.965112 86.895367 
L 816.539716 100.416843 
L 818.064584 104.247968 
L 819.589452 107.605926 
L 821.11432 110.640683 
L 822.639187 113.41199 
L 824.164055 115.913903 
L 825.688923 118.058351 
L 827.213791 119.685183 
L 828.738659 120.62696 
L 830.263527 120.811481 
L 831.788395 120.283266 
L 833.313263 119.187096 
L 836.362999 116.564803 
L 837.887867 115.913612 
L 839.412735 116.140787 
L 840.937602 117.449667 
L 842.46247 120.007713 
L 843.987338 123.864603 
L 845.512206 128.980118 
L 847.037074 135.223695 
L 848.561942 142.392118 
L 850.08681 150.303136 
L 853.136546 167.807694 
L 856.186282 186.844466 
L 859.236017 206.992202 
L 871.434961 290.206126 
L 876.009565 319.473382 
L 879.0593 337.31037 
L 880.584168 345.151147 
L 882.109036 352.000891 
L 883.633904 357.507332 
L 885.158772 361.311966 
L 886.68364 363.174545 
L 888.208508 362.999492 
L 889.733376 360.851695 
L 891.258244 356.81501 
L 892.783112 350.569758 
L 894.30798 341.53844 
L 895.832848 329.259257 
L 897.357715 313.44299 
L 898.882583 294.128053 
L 900.407451 271.761347 
L 903.457187 221.499682 
L 906.506923 172.194162 
L 908.031791 151.194393 
L 909.556659 133.868999 
L 911.081527 120.751116 
L 912.606395 112.133744 
L 914.131263 107.970823 
L 915.65613 107.789371 
L 917.180998 110.661676 
L 918.705866 115.384892 
L 921.755602 125.949722 
L 923.28047 130.532242 
L 924.805338 134.197082 
L 926.330206 136.844126 
L 927.855074 138.482163 
L 929.379942 139.10889 
L 930.90481 138.696114 
L 932.429678 137.296408 
L 933.954545 135.046147 
L 933.954545 135.046147 
" style="fill:none;stroke:#0000ff;stroke-linecap:square;stroke-width:1.5;"/>
   </g>
   <g id="line2d_16">
    <path clip-path="url(#pa712df0b77)" d="M 173.045455 89.865188 
L 174.570322 83.556552 
L 176.09519 77.82622 
L 177.620058 73.013948 
L 179.144926 69.409848 
L 180.669794 67.259001 
L 182.194662 66.665455 
L 183.71953 67.610542 
L 185.244398 69.875213 
L 186.769266 73.055549 
L 189.819002 80.799215 
L 192.868737 88.837506 
L 195.918473 96.227733 
L 198.968209 102.463269 
L 202.017945 107.956729 
L 205.067681 112.772757 
L 208.117417 117.000073 
L 211.167152 120.567346 
L 214.216888 123.521623 
L 217.266624 126.598791 
L 220.31636 130.155794 
L 221.841228 132.147025 
L 223.366096 134.341604 
L 224.890964 136.792291 
L 226.415832 139.610491 
L 227.9407 142.87449 
L 229.465567 146.606675 
L 230.990435 150.798557 
L 234.040171 160.337651 
L 237.089907 170.280054 
L 238.614775 174.925601 
L 240.139643 179.158507 
L 241.664511 182.929435 
L 243.189379 186.218738 
L 244.714247 189.029743 
L 246.239115 191.402805 
L 247.763983 193.433075 
L 249.28885 195.236531 
L 252.338586 198.324174 
L 253.863454 199.669591 
L 255.388322 200.831411 
L 256.91319 201.731928 
L 258.438058 202.301263 
L 259.962926 202.441158 
L 261.487794 202.042591 
L 263.012662 201.074874 
L 264.53753 199.563178 
L 266.062398 197.545324 
L 267.587265 195.07274 
L 269.112133 192.23361 
L 276.736473 176.984279 
L 278.261341 174.615675 
L 279.786209 172.609953 
L 281.311077 170.975734 
L 282.835945 169.69922 
L 284.360813 168.731011 
L 285.88568 167.981974 
L 288.935416 166.868605 
L 291.985152 166.077571 
L 295.034888 165.571649 
L 298.084624 165.446947 
L 301.13436 165.726859 
L 307.233831 166.48818 
L 313.333303 167.187213 
L 316.383039 167.747256 
L 319.432775 168.567407 
L 322.48251 169.808207 
L 325.532246 171.390425 
L 328.581982 173.310972 
L 330.10685 174.450259 
L 331.631718 175.754667 
L 334.681454 178.848773 
L 337.73119 182.556884 
L 340.780925 186.92581 
L 343.830661 191.841345 
L 346.880397 197.411698 
L 349.930133 203.767039 
L 351.455001 207.295032 
L 354.504737 215.191297 
L 357.554473 224.102607 
L 362.129076 238.623451 
L 368.228548 258.109119 
L 380.427491 295.630946 
L 381.952359 299.690297 
L 383.477227 302.875641 
L 385.002095 304.825353 
L 386.526963 305.232768 
L 388.051831 303.740644 
L 389.576699 299.748499 
L 391.101567 292.54334 
L 392.626435 281.608804 
L 394.151303 266.740444 
L 395.676171 248.160609 
L 397.201038 226.604281 
L 401.775642 156.402665 
L 403.30051 135.741145 
L 404.825378 118.524488 
L 406.350246 105.688974 
L 407.875114 97.732044 
L 409.399982 94.596791 
L 410.92485 95.787041 
L 412.449718 100.430991 
L 413.974586 107.321032 
L 417.024321 122.391608 
L 418.549189 128.45767 
L 420.074057 132.910181 
L 421.598925 135.702189 
L 423.123793 137.046759 
L 424.648661 137.268143 
L 426.173529 136.667967 
L 430.748133 133.435857 
L 432.273001 133.026259 
L 433.797868 133.260594 
L 435.322736 134.019856 
L 436.847604 135.09185 
L 441.422208 138.647288 
L 442.947076 139.643456 
L 444.471944 140.431375 
L 445.996812 140.991319 
L 449.046548 141.692409 
L 452.096283 142.439426 
L 453.621151 142.991062 
L 455.146019 143.783323 
L 458.195755 145.967615 
L 461.245491 148.320958 
L 462.770359 149.359377 
L 464.295227 150.22953 
L 467.344963 151.604903 
L 470.394698 152.964762 
L 471.919566 153.858436 
L 473.444434 155.042412 
L 474.969302 156.610273 
L 476.49417 158.621844 
L 478.019038 161.127198 
L 479.543906 164.125431 
L 481.068774 167.597139 
L 482.593642 171.49666 
L 485.643378 180.331894 
L 493.267717 204.318475 
L 496.317453 213.020377 
L 505.466661 238.051283 
L 513.091 258.149834 
L 516.140736 267.1099 
L 520.71534 281.738042 
L 522.240208 285.981263 
L 523.765076 289.142706 
L 525.289944 290.527724 
L 526.814811 289.317537 
L 528.339679 284.739052 
L 529.864547 276.251857 
L 531.389415 263.65752 
L 532.914283 247.158909 
L 534.439151 227.417149 
L 540.538623 140.931672 
L 542.063491 123.916246 
L 543.588359 110.730447 
L 545.113226 101.793672 
L 546.638094 97.064366 
L 548.162962 96.13864 
L 549.68783 98.379684 
L 551.212698 102.860267 
L 554.262434 114.583013 
L 555.787302 120.417832 
L 557.31217 125.732731 
L 558.837038 130.401222 
L 560.361906 134.40241 
L 561.886774 137.80378 
L 563.411641 140.66571 
L 564.936509 142.922214 
L 566.461377 144.475761 
L 567.986245 145.321187 
L 569.511113 145.526904 
L 571.035981 145.151326 
L 572.560849 144.247552 
L 574.085717 142.943372 
L 578.660321 138.426677 
L 580.185189 137.293902 
L 581.710056 136.652651 
L 583.234924 136.627443 
L 584.759792 137.291597 
L 586.28466 138.671434 
L 587.809528 140.747852 
L 589.334396 143.496723 
L 590.859264 146.935282 
L 592.384132 151.05827 
L 593.909 155.808145 
L 595.433868 161.091184 
L 598.483604 172.828861 
L 607.632811 209.907875 
L 610.682547 220.785753 
L 613.732283 230.514452 
L 616.782019 239.109378 
L 619.831754 246.8896 
L 622.88149 253.885125 
L 625.931226 260.217766 
L 628.980962 265.978142 
L 632.030698 271.182653 
L 638.130169 281.036009 
L 639.655037 283.753464 
L 641.179905 286.722651 
L 642.704773 290.035222 
L 644.229641 293.773195 
L 645.754509 297.94466 
L 648.804245 307.387124 
L 651.853981 317.917392 
L 654.903717 328.725795 
L 656.428584 333.51244 
L 657.953452 337.281746 
L 659.47832 339.48319 
L 661.003188 339.488963 
L 662.528056 336.694771 
L 664.052924 330.531555 
L 665.577792 320.470864 
L 667.10266 306.254036 
L 668.627528 288.075321 
L 670.152396 266.522503 
L 673.202132 217.217342 
L 676.251867 168.681897 
L 677.776735 148.145776 
L 679.301603 131.555951 
L 680.826471 119.542319 
L 682.351339 112.287071 
L 683.876207 109.6121 
L 685.401075 110.9816 
L 686.925943 115.529519 
L 688.450811 122.134681 
L 691.500547 136.961735 
L 693.025414 143.382451 
L 694.550282 148.593158 
L 696.07515 152.561641 
L 697.600018 155.386002 
L 699.124886 157.262895 
L 700.649754 158.449527 
L 702.174622 159.201366 
L 703.69949 159.658952 
L 711.323829 161.136893 
L 714.373565 161.880739 
L 715.898433 162.365537 
L 717.423301 163.123503 
L 718.948169 164.331072 
L 720.473037 166.087239 
L 721.997905 168.438382 
L 723.522773 171.380951 
L 725.047641 174.903474 
L 726.572509 179.047887 
L 728.097377 183.8974 
L 729.622244 189.475891 
L 731.147112 195.737479 
L 734.196848 209.965853 
L 741.821188 248.374651 
L 743.346056 255.048199 
L 744.870924 261.082369 
L 746.395792 266.447047 
L 749.445527 275.677375 
L 752.495263 284.403517 
L 755.544999 294.067879 
L 758.594735 304.706776 
L 766.219075 332.064277 
L 767.743942 336.960242 
L 769.26881 341.479288 
L 770.793678 345.595084 
L 772.318546 349.293625 
L 773.843414 352.530473 
L 775.368282 355.067452 
L 776.89315 356.528946 
L 778.418018 356.630583 
L 779.942886 355.189306 
L 781.467754 352.125246 
L 782.992622 347.461144 
L 784.51749 341.075862 
L 786.042357 332.568493 
L 787.567225 321.474603 
L 789.092093 307.457361 
L 790.616961 290.31583 
L 792.141829 270.087192 
L 793.666697 247.207558 
L 799.766169 148.101052 
L 801.291037 127.112059 
L 802.815905 109.500367 
L 804.340772 95.92337 
L 805.86564 86.803137 
L 807.390508 82.052337 
L 808.915376 81.115585 
L 810.440244 83.107423 
L 811.965112 86.895367 
L 816.539716 100.416843 
L 818.064584 104.247968 
L 819.589452 107.605926 
L 821.11432 110.640683 
L 822.639187 113.41199 
L 824.164055 115.913903 
L 825.688923 118.058351 
L 827.213791 119.685183 
L 828.738659 120.62696 
L 830.263527 120.811481 
L 831.788395 120.283266 
L 833.313263 119.187096 
L 836.362999 116.564803 
L 837.887867 115.913612 
L 839.412735 116.140787 
L 840.937602 117.449667 
L 842.46247 120.007713 
L 843.987338 123.864603 
L 845.512206 128.980118 
L 847.037074 135.223695 
L 848.561942 142.392118 
L 850.08681 150.303136 
L 853.136546 167.807694 
L 856.186282 186.844466 
L 859.236017 206.992202 
L 871.434961 290.206126 
L 876.009565 319.473382 
L 879.0593 337.31037 
L 880.584168 345.151147 
L 882.109036 352.000891 
L 883.633904 357.507332 
L 885.158772 361.311966 
L 886.68364 363.174545 
L 888.208508 362.999492 
L 889.733376 360.851695 
L 891.258244 356.81501 
L 892.783112 350.569758 
L 894.30798 341.53844 
L 895.832848 329.259257 
L 897.357715 313.44299 
L 898.882583 294.128053 
L 900.407451 271.761347 
L 903.457187 221.499682 
L 906.506923 172.194162 
L 908.031791 151.194393 
L 909.556659 133.868999 
L 911.081527 120.751116 
L 912.606395 112.133744 
L 914.131263 107.970823 
L 915.65613 107.789371 
L 917.180998 110.661676 
L 918.705866 115.384892 
L 921.755602 125.949722 
L 923.28047 130.532242 
L 924.805338 134.197082 
L 926.330206 136.844126 
L 927.855074 138.482163 
L 929.379942 139.10889 
L 930.90481 138.696114 
L 932.429678 137.296408 
L 933.954545 135.046147 
L 933.954545 135.046147 
" style="fill:none;stroke:#0000ff;stroke-linecap:square;stroke-width:1.5;"/>
   </g>
   <g id="line2d_17">
    <path clip-path="url(#pa712df0b77)" d="M 173.045455 89.865188 
L 174.570322 83.556552 
L 176.09519 77.82622 
L 177.620058 73.013948 
L 179.144926 69.409848 
L 180.669794 67.259001 
L 182.194662 66.665455 
L 183.71953 67.610542 
L 185.244398 69.875213 
L 186.769266 73.055549 
L 189.819002 80.799215 
L 192.868737 88.837506 
L 195.918473 96.227733 
L 198.968209 102.463269 
L 202.017945 107.956729 
L 205.067681 112.772757 
L 208.117417 117.000073 
L 211.167152 120.567346 
L 214.216888 123.521623 
L 217.266624 126.598791 
L 220.31636 130.155794 
L 221.841228 132.147025 
L 223.366096 134.341604 
L 224.890964 136.792291 
L 226.415832 139.610491 
L 227.9407 142.87449 
L 229.465567 146.606675 
L 230.990435 150.798557 
L 234.040171 160.337651 
L 237.089907 170.280054 
L 238.614775 174.925601 
L 240.139643 179.158507 
L 241.664511 182.929435 
L 243.189379 186.218738 
L 244.714247 189.029743 
L 246.239115 191.402805 
L 247.763983 193.433075 
L 249.28885 195.236531 
L 252.338586 198.324174 
L 253.863454 199.669591 
L 255.388322 200.831411 
L 256.91319 201.731928 
L 258.438058 202.301263 
L 259.962926 202.441158 
L 261.487794 202.042591 
L 263.012662 201.074874 
L 264.53753 199.563178 
L 266.062398 197.545324 
L 267.587265 195.07274 
L 269.112133 192.23361 
L 276.736473 176.984279 
L 278.261341 174.615675 
L 279.786209 172.609953 
L 281.311077 170.975734 
L 282.835945 169.69922 
L 284.360813 168.731011 
L 285.88568 167.981974 
L 288.935416 166.868605 
L 291.985152 166.077571 
L 295.034888 165.571649 
L 298.084624 165.446947 
L 301.13436 165.726859 
L 307.233831 166.48818 
L 313.333303 167.187213 
L 316.383039 167.747256 
L 319.432775 168.567407 
L 322.48251 169.808207 
L 325.532246 171.390425 
L 328.581982 173.310972 
L 330.10685 174.450259 
L 331.631718 175.754667 
L 334.681454 178.848773 
L 337.73119 182.556884 
L 340.780925 186.92581 
L 343.830661 191.841345 
L 346.880397 197.411698 
L 349.930133 203.767039 
L 351.455001 207.295032 
L 354.504737 215.191297 
L 357.554473 224.102607 
L 362.129076 238.623451 
L 368.228548 258.109119 
L 380.427491 295.630946 
L 381.952359 299.690297 
L 383.477227 302.875641 
L 385.002095 304.825353 
L 386.526963 305.232768 
L 388.051831 303.740644 
L 389.576699 299.748499 
L 391.101567 292.54334 
L 392.626435 281.608804 
L 394.151303 266.740444 
L 395.676171 248.160609 
L 397.201038 226.604281 
L 401.775642 156.402665 
L 403.30051 135.741145 
L 404.825378 118.524488 
L 406.350246 105.688974 
L 407.875114 97.732044 
L 409.399982 94.596791 
L 410.92485 95.787041 
L 412.449718 100.430991 
L 413.974586 107.321032 
L 417.024321 122.391608 
L 418.549189 128.45767 
L 420.074057 132.910181 
L 421.598925 135.702189 
L 423.123793 137.046759 
L 424.648661 137.268143 
L 426.173529 136.667967 
L 430.748133 133.435857 
L 432.273001 133.026259 
L 433.797868 133.260594 
L 435.322736 134.019856 
L 436.847604 135.09185 
L 441.422208 138.647288 
L 442.947076 139.643456 
L 444.471944 140.431375 
L 445.996812 140.991319 
L 449.046548 141.692409 
L 452.096283 142.439426 
L 453.621151 142.991062 
L 455.146019 143.783323 
L 458.195755 145.967615 
L 461.245491 148.320958 
L 462.770359 149.359377 
L 464.295227 150.22953 
L 467.344963 151.604903 
L 470.394698 152.964762 
L 471.919566 153.858436 
L 473.444434 155.042412 
L 474.969302 156.610273 
L 476.49417 158.621844 
L 478.019038 161.127198 
L 479.543906 164.125431 
L 481.068774 167.597139 
L 482.593642 171.49666 
L 485.643378 180.331894 
L 493.267717 204.318475 
L 496.317453 213.020377 
L 505.466661 238.051283 
L 513.091 258.149834 
L 516.140736 267.1099 
L 520.71534 281.738042 
L 522.240208 285.981263 
L 523.765076 289.142706 
L 525.289944 290.527724 
L 526.814811 289.317537 
L 528.339679 284.739052 
L 529.864547 276.251857 
L 531.389415 263.65752 
L 532.914283 247.158909 
L 534.439151 227.417149 
L 540.538623 140.931672 
L 542.063491 123.916246 
L 543.588359 110.730447 
L 545.113226 101.793672 
L 546.638094 97.064366 
L 548.162962 96.13864 
L 549.68783 98.379684 
L 551.212698 102.860267 
L 554.262434 114.583013 
L 555.787302 120.417832 
L 557.31217 125.732731 
L 558.837038 130.401222 
L 560.361906 134.40241 
L 561.886774 137.80378 
L 563.411641 140.66571 
L 564.936509 142.922214 
L 566.461377 144.475761 
L 567.986245 145.321187 
L 569.511113 145.526904 
L 571.035981 145.151326 
L 572.560849 144.247552 
L 574.085717 142.943372 
L 578.660321 138.426677 
L 580.185189 137.293902 
L 581.710056 136.652651 
L 583.234924 136.627443 
L 584.759792 137.291597 
L 586.28466 138.671434 
L 587.809528 140.747852 
L 589.334396 143.496723 
L 590.859264 146.935282 
L 592.384132 151.05827 
L 593.909 155.808145 
L 595.433868 161.091184 
L 598.483604 172.828861 
L 607.632811 209.907875 
L 610.682547 220.785753 
L 613.732283 230.514452 
L 616.782019 239.109378 
L 619.831754 246.8896 
L 622.88149 253.885125 
L 625.931226 260.217766 
L 628.980962 265.978142 
L 632.030698 271.182653 
L 638.130169 281.036009 
L 639.655037 283.753464 
L 641.179905 286.722651 
L 642.704773 290.035222 
L 644.229641 293.773195 
L 645.754509 297.94466 
L 648.804245 307.387124 
L 651.853981 317.917392 
L 654.903717 328.725795 
L 656.428584 333.51244 
L 657.953452 337.281746 
L 659.47832 339.48319 
L 661.003188 339.488963 
L 662.528056 336.694771 
L 664.052924 330.531555 
L 665.577792 320.470864 
L 667.10266 306.254036 
L 668.627528 288.075321 
L 670.152396 266.522503 
L 673.202132 217.217342 
L 676.251867 168.681897 
L 677.776735 148.145776 
L 679.301603 131.555951 
L 680.826471 119.542319 
L 682.351339 112.287071 
L 683.876207 109.6121 
L 685.401075 110.9816 
L 686.925943 115.529519 
L 688.450811 122.134681 
L 691.500547 136.961735 
L 693.025414 143.382451 
L 694.550282 148.593158 
L 696.07515 152.561641 
L 697.600018 155.386002 
L 699.124886 157.262895 
L 700.649754 158.449527 
L 702.174622 159.201366 
L 703.69949 159.658952 
L 711.323829 161.136893 
L 714.373565 161.880739 
L 715.898433 162.365537 
L 717.423301 163.123503 
L 718.948169 164.331072 
L 720.473037 166.087239 
L 721.997905 168.438382 
L 723.522773 171.380951 
L 725.047641 174.903474 
L 726.572509 179.047887 
L 728.097377 183.8974 
L 729.622244 189.475891 
L 731.147112 195.737479 
L 734.196848 209.965853 
L 741.821188 248.374651 
L 743.346056 255.048199 
L 744.870924 261.082369 
L 746.395792 266.447047 
L 749.445527 275.677375 
L 752.495263 284.403517 
L 755.544999 294.067879 
L 758.594735 304.706776 
L 766.219075 332.064277 
L 767.743942 336.960242 
L 769.26881 341.479288 
L 770.793678 345.595084 
L 772.318546 349.293625 
L 773.843414 352.530473 
L 775.368282 355.067452 
L 776.89315 356.528946 
L 778.418018 356.630583 
L 779.942886 355.189306 
L 781.467754 352.125246 
L 782.992622 347.461144 
L 784.51749 341.075862 
L 786.042357 332.568493 
L 787.567225 321.474603 
L 789.092093 307.457361 
L 790.616961 290.31583 
L 792.141829 270.087192 
L 793.666697 247.207558 
L 799.766169 148.101052 
L 801.291037 127.112059 
L 802.815905 109.500367 
L 804.340772 95.92337 
L 805.86564 86.803137 
L 807.390508 82.052337 
L 808.915376 81.115585 
L 810.440244 83.107423 
L 811.965112 86.895367 
L 816.539716 100.416843 
L 818.064584 104.247968 
L 819.589452 107.605926 
L 821.11432 110.640683 
L 822.639187 113.41199 
L 824.164055 115.913903 
L 825.688923 118.058351 
L 827.213791 119.685183 
L 828.738659 120.62696 
L 830.263527 120.811481 
L 831.788395 120.283266 
L 833.313263 119.187096 
L 836.362999 116.564803 
L 837.887867 115.913612 
L 839.412735 116.140787 
L 840.937602 117.449667 
L 842.46247 120.007713 
L 843.987338 123.864603 
L 845.512206 128.980118 
L 847.037074 135.223695 
L 848.561942 142.392118 
L 850.08681 150.303136 
L 853.136546 167.807694 
L 856.186282 186.844466 
L 859.236017 206.992202 
L 871.434961 290.206126 
L 876.009565 319.473382 
L 879.0593 337.31037 
L 880.584168 345.151147 
L 882.109036 352.000891 
L 883.633904 357.507332 
L 885.158772 361.311966 
L 886.68364 363.174545 
L 888.208508 362.999492 
L 889.733376 360.851695 
L 891.258244 356.81501 
L 892.783112 350.569758 
L 894.30798 341.53844 
L 895.832848 329.259257 
L 897.357715 313.44299 
L 898.882583 294.128053 
L 900.407451 271.761347 
L 903.457187 221.499682 
L 906.506923 172.194162 
L 908.031791 151.194393 
L 909.556659 133.868999 
L 911.081527 120.751116 
L 912.606395 112.133744 
L 914.131263 107.970823 
L 915.65613 107.789371 
L 917.180998 110.661676 
L 918.705866 115.384892 
L 921.755602 125.949722 
L 923.28047 130.532242 
L 924.805338 134.197082 
L 926.330206 136.844126 
L 927.855074 138.482163 
L 929.379942 139.10889 
L 930.90481 138.696114 
L 932.429678 137.296408 
L 933.954545 135.046147 
L 933.954545 135.046147 
" style="fill:none;stroke:#0000ff;stroke-linecap:square;stroke-width:1.5;"/>
   </g>
   <g id="line2d_18">
    <path clip-path="url(#pa712df0b77)" d="M 173.045455 89.865188 
L 174.570322 83.556552 
L 176.09519 77.82622 
L 177.620058 73.013948 
L 179.144926 69.409848 
L 180.669794 67.259001 
L 182.194662 66.665455 
L 183.71953 67.610542 
L 185.244398 69.875213 
L 186.769266 73.055549 
L 189.819002 80.799215 
L 192.868737 88.837506 
L 195.918473 96.227733 
L 198.968209 102.463269 
L 202.017945 107.956729 
L 205.067681 112.772757 
L 208.117417 117.000073 
L 211.167152 120.567346 
L 214.216888 123.521623 
L 217.266624 126.598791 
L 220.31636 130.155794 
L 221.841228 132.147025 
L 223.366096 134.341604 
L 224.890964 136.792291 
L 226.415832 139.610491 
L 227.9407 142.87449 
L 229.465567 146.606675 
L 230.990435 150.798557 
L 234.040171 160.337651 
L 237.089907 170.280054 
L 238.614775 174.925601 
L 240.139643 179.158507 
L 241.664511 182.929435 
L 243.189379 186.218738 
L 244.714247 189.029743 
L 246.239115 191.402805 
L 247.763983 193.433075 
L 249.28885 195.236531 
L 252.338586 198.324174 
L 253.863454 199.669591 
L 255.388322 200.831411 
L 256.91319 201.731928 
L 258.438058 202.301263 
L 259.962926 202.441158 
L 261.487794 202.042591 
L 263.012662 201.074874 
L 264.53753 199.563178 
L 266.062398 197.545324 
L 267.587265 195.07274 
L 269.112133 192.23361 
L 276.736473 176.984279 
L 278.261341 174.615675 
L 279.786209 172.609953 
L 281.311077 170.975734 
L 282.835945 169.69922 
L 284.360813 168.731011 
L 285.88568 167.981974 
L 288.935416 166.868605 
L 291.985152 166.077571 
L 295.034888 165.571649 
L 298.084624 165.446947 
L 301.13436 165.726859 
L 307.233831 166.48818 
L 313.333303 167.187213 
L 316.383039 167.747256 
L 319.432775 168.567407 
L 322.48251 169.808207 
L 325.532246 171.390425 
L 328.581982 173.310972 
L 330.10685 174.450259 
L 331.631718 175.754667 
L 334.681454 178.848773 
L 337.73119 182.556884 
L 340.780925 186.92581 
L 343.830661 191.841345 
L 346.880397 197.411698 
L 349.930133 203.767039 
L 351.455001 207.295032 
L 354.504737 215.191297 
L 357.554473 224.102607 
L 362.129076 238.623451 
L 368.228548 258.109119 
L 380.427491 295.630946 
L 381.952359 299.690297 
L 383.477227 302.875641 
L 385.002095 304.825353 
L 386.526963 305.232768 
L 388.051831 303.740644 
L 389.576699 299.748499 
L 391.101567 292.54334 
L 392.626435 281.608804 
L 394.151303 266.740444 
L 395.676171 248.160609 
L 397.201038 226.604281 
L 401.775642 156.402665 
L 403.30051 135.741145 
L 404.825378 118.524488 
L 406.350246 105.688974 
L 407.875114 97.732044 
L 409.399982 94.596791 
L 410.92485 95.787041 
L 412.449718 100.430991 
L 413.974586 107.321032 
L 417.024321 122.391608 
L 418.549189 128.45767 
L 420.074057 132.910181 
L 421.598925 135.702189 
L 423.123793 137.046759 
L 424.648661 137.268143 
L 426.173529 136.667967 
L 430.748133 133.435857 
L 432.273001 133.026259 
L 433.797868 133.260594 
L 435.322736 134.019856 
L 436.847604 135.09185 
L 441.422208 138.647288 
L 442.947076 139.643456 
L 444.471944 140.431375 
L 445.996812 140.991319 
L 449.046548 141.692409 
L 452.096283 142.439426 
L 453.621151 142.991062 
L 455.146019 143.783323 
L 458.195755 145.967615 
L 461.245491 148.320958 
L 462.770359 149.359377 
L 464.295227 150.22953 
L 467.344963 151.604903 
L 470.394698 152.964762 
L 471.919566 153.858436 
L 473.444434 155.042412 
L 474.969302 156.610273 
L 476.49417 158.621844 
L 478.019038 161.127198 
L 479.543906 164.125431 
L 481.068774 167.597139 
L 482.593642 171.49666 
L 485.643378 180.331894 
L 493.267717 204.318475 
L 496.317453 213.020377 
L 505.466661 238.051283 
L 513.091 258.149834 
L 516.140736 267.1099 
L 520.71534 281.738042 
L 522.240208 285.981263 
L 523.765076 289.142706 
L 525.289944 290.527724 
L 526.814811 289.317537 
L 528.339679 284.739052 
L 529.864547 276.251857 
L 531.389415 263.65752 
L 532.914283 247.158909 
L 534.439151 227.417149 
L 540.538623 140.931672 
L 542.063491 123.916246 
L 543.588359 110.730447 
L 545.113226 101.793672 
L 546.638094 97.064366 
L 548.162962 96.13864 
L 549.68783 98.379684 
L 551.212698 102.860267 
L 554.262434 114.583013 
L 555.787302 120.417832 
L 557.31217 125.732731 
L 558.837038 130.401222 
L 560.361906 134.40241 
L 561.886774 137.80378 
L 563.411641 140.66571 
L 564.936509 142.922214 
L 566.461377 144.475761 
L 567.986245 145.321187 
L 569.511113 145.526904 
L 571.035981 145.151326 
L 572.560849 144.247552 
L 574.085717 142.943372 
L 578.660321 138.426677 
L 580.185189 137.293902 
L 581.710056 136.652651 
L 583.234924 136.627443 
L 584.759792 137.291597 
L 586.28466 138.671434 
L 587.809528 140.747852 
L 589.334396 143.496723 
L 590.859264 146.935282 
L 592.384132 151.05827 
L 593.909 155.808145 
L 595.433868 161.091184 
L 598.483604 172.828861 
L 607.632811 209.907875 
L 610.682547 220.785753 
L 613.732283 230.514452 
L 616.782019 239.109378 
L 619.831754 246.8896 
L 622.88149 253.885125 
L 625.931226 260.217766 
L 628.980962 265.978142 
L 632.030698 271.182653 
L 638.130169 281.036009 
L 639.655037 283.753464 
L 641.179905 286.722651 
L 642.704773 290.035222 
L 644.229641 293.773195 
L 645.754509 297.94466 
L 648.804245 307.387124 
L 651.853981 317.917392 
L 654.903717 328.725795 
L 656.428584 333.51244 
L 657.953452 337.281746 
L 659.47832 339.48319 
L 661.003188 339.488963 
L 662.528056 336.694771 
L 664.052924 330.531555 
L 665.577792 320.470864 
L 667.10266 306.254036 
L 668.627528 288.075321 
L 670.152396 266.522503 
L 673.202132 217.217342 
L 676.251867 168.681897 
L 677.776735 148.145776 
L 679.301603 131.555951 
L 680.826471 119.542319 
L 682.351339 112.287071 
L 683.876207 109.6121 
L 685.401075 110.9816 
L 686.925943 115.529519 
L 688.450811 122.134681 
L 691.500547 136.961735 
L 693.025414 143.382451 
L 694.550282 148.593158 
L 696.07515 152.561641 
L 697.600018 155.386002 
L 699.124886 157.262895 
L 700.649754 158.449527 
L 702.174622 159.201366 
L 703.69949 159.658952 
L 711.323829 161.136893 
L 714.373565 161.880739 
L 715.898433 162.365537 
L 717.423301 163.123503 
L 718.948169 164.331072 
L 720.473037 166.087239 
L 721.997905 168.438382 
L 723.522773 171.380951 
L 725.047641 174.903474 
L 726.572509 179.047887 
L 728.097377 183.8974 
L 729.622244 189.475891 
L 731.147112 195.737479 
L 734.196848 209.965853 
L 741.821188 248.374651 
L 743.346056 255.048199 
L 744.870924 261.082369 
L 746.395792 266.447047 
L 749.445527 275.677375 
L 752.495263 284.403517 
L 755.544999 294.067879 
L 758.594735 304.706776 
L 766.219075 332.064277 
L 767.743942 336.960242 
L 769.26881 341.479288 
L 770.793678 345.595084 
L 772.318546 349.293625 
L 773.843414 352.530473 
L 775.368282 355.067452 
L 776.89315 356.528946 
L 778.418018 356.630583 
L 779.942886 355.189306 
L 781.467754 352.125246 
L 782.992622 347.461144 
L 784.51749 341.075862 
L 786.042357 332.568493 
L 787.567225 321.474603 
L 789.092093 307.457361 
L 790.616961 290.31583 
L 792.141829 270.087192 
L 793.666697 247.207558 
L 799.766169 148.101052 
L 801.291037 127.112059 
L 802.815905 109.500367 
L 804.340772 95.92337 
L 805.86564 86.803137 
L 807.390508 82.052337 
L 808.915376 81.115585 
L 810.440244 83.107423 
L 811.965112 86.895367 
L 816.539716 100.416843 
L 818.064584 104.247968 
L 819.589452 107.605926 
L 821.11432 110.640683 
L 822.639187 113.41199 
L 824.164055 115.913903 
L 825.688923 118.058351 
L 827.213791 119.685183 
L 828.738659 120.62696 
L 830.263527 120.811481 
L 831.788395 120.283266 
L 833.313263 119.187096 
L 836.362999 116.564803 
L 837.887867 115.913612 
L 839.412735 116.140787 
L 840.937602 117.449667 
L 842.46247 120.007713 
L 843.987338 123.864603 
L 845.512206 128.980118 
L 847.037074 135.223695 
L 848.561942 142.392118 
L 850.08681 150.303136 
L 853.136546 167.807694 
L 856.186282 186.844466 
L 859.236017 206.992202 
L 871.434961 290.206126 
L 876.009565 319.473382 
L 879.0593 337.31037 
L 880.584168 345.151147 
L 882.109036 352.000891 
L 883.633904 357.507332 
L 885.158772 361.311966 
L 886.68364 363.174545 
L 888.208508 362.999492 
L 889.733376 360.851695 
L 891.258244 356.81501 
L 892.783112 350.569758 
L 894.30798 341.53844 
L 895.832848 329.259257 
L 897.357715 313.44299 
L 898.882583 294.128053 
L 900.407451 271.761347 
L 903.457187 221.499682 
L 906.506923 172.194162 
L 908.031791 151.194393 
L 909.556659 133.868999 
L 911.081527 120.751116 
L 912.606395 112.133744 
L 914.131263 107.970823 
L 915.65613 107.789371 
L 917.180998 110.661676 
L 918.705866 115.384892 
L 921.755602 125.949722 
L 923.28047 130.532242 
L 924.805338 134.197082 
L 926.330206 136.844126 
L 927.855074 138.482163 
L 929.379942 139.10889 
L 930.90481 138.696114 
L 932.429678 137.296408 
L 933.954545 135.046147 
L 933.954545 135.046147 
" style="fill:none;stroke:#0000ff;stroke-linecap:square;stroke-width:1.5;"/>
   </g>
   <g id="line2d_19">
    <path clip-path="url(#pa712df0b77)" d="M 173.045455 89.865188 
L 174.570322 83.556552 
L 176.09519 77.82622 
L 177.620058 73.013948 
L 179.144926 69.409848 
L 180.669794 67.259001 
L 182.194662 66.665455 
L 183.71953 67.610542 
L 185.244398 69.875213 
L 186.769266 73.055549 
L 189.819002 80.799215 
L 192.868737 88.837506 
L 195.918473 96.227733 
L 198.968209 102.463269 
L 202.017945 107.956729 
L 205.067681 112.772757 
L 208.117417 117.000073 
L 211.167152 120.567346 
L 214.216888 123.521623 
L 217.266624 126.598791 
L 220.31636 130.155794 
L 221.841228 132.147025 
L 223.366096 134.341604 
L 224.890964 136.792291 
L 226.415832 139.610491 
L 227.9407 142.87449 
L 229.465567 146.606675 
L 230.990435 150.798557 
L 234.040171 160.337651 
L 237.089907 170.280054 
L 238.614775 174.925601 
L 240.139643 179.158507 
L 241.664511 182.929435 
L 243.189379 186.218738 
L 244.714247 189.029743 
L 246.239115 191.402805 
L 247.763983 193.433075 
L 249.28885 195.236531 
L 252.338586 198.324174 
L 253.863454 199.669591 
L 255.388322 200.831411 
L 256.91319 201.731928 
L 258.438058 202.301263 
L 259.962926 202.441158 
L 261.487794 202.042591 
L 263.012662 201.074874 
L 264.53753 199.563178 
L 266.062398 197.545324 
L 267.587265 195.07274 
L 269.112133 192.23361 
L 276.736473 176.984279 
L 278.261341 174.615675 
L 279.786209 172.609953 
L 281.311077 170.975734 
L 282.835945 169.69922 
L 284.360813 168.731011 
L 285.88568 167.981974 
L 288.935416 166.868605 
L 291.985152 166.077571 
L 295.034888 165.571649 
L 298.084624 165.446947 
L 301.13436 165.726859 
L 307.233831 166.48818 
L 313.333303 167.187213 
L 316.383039 167.747256 
L 319.432775 168.567407 
L 322.48251 169.808207 
L 325.532246 171.390425 
L 328.581982 173.310972 
L 330.10685 174.450259 
L 331.631718 175.754667 
L 334.681454 178.848773 
L 337.73119 182.556884 
L 340.780925 186.92581 
L 343.830661 191.841345 
L 346.880397 197.411698 
L 349.930133 203.767039 
L 351.455001 207.295032 
L 354.504737 215.191297 
L 357.554473 224.102607 
L 362.129076 238.623451 
L 368.228548 258.109119 
L 380.427491 295.630946 
L 381.952359 299.690297 
L 383.477227 302.875641 
L 385.002095 304.825353 
L 386.526963 305.232768 
L 388.051831 303.740644 
L 389.576699 299.748499 
L 391.101567 292.54334 
L 392.626435 281.608804 
L 394.151303 266.740444 
L 395.676171 248.160609 
L 397.201038 226.604281 
L 401.775642 156.402665 
L 403.30051 135.741145 
L 404.825378 118.524488 
L 406.350246 105.688974 
L 407.875114 97.732044 
L 409.399982 94.596791 
L 410.92485 95.787041 
L 412.449718 100.430991 
L 413.974586 107.321032 
L 417.024321 122.391608 
L 418.549189 128.45767 
L 420.074057 132.910181 
L 421.598925 135.702189 
L 423.123793 137.046759 
L 424.648661 137.268143 
L 426.173529 136.667967 
L 430.748133 133.435857 
L 432.273001 133.026259 
L 433.797868 133.260594 
L 435.322736 134.019856 
L 436.847604 135.09185 
L 441.422208 138.647288 
L 442.947076 139.643456 
L 444.471944 140.431375 
L 445.996812 140.991319 
L 449.046548 141.692409 
L 452.096283 142.439426 
L 453.621151 142.991062 
L 455.146019 143.783323 
L 458.195755 145.967615 
L 461.245491 148.320958 
L 462.770359 149.359377 
L 464.295227 150.22953 
L 467.344963 151.604903 
L 470.394698 152.964762 
L 471.919566 153.858436 
L 473.444434 155.042412 
L 474.969302 156.610273 
L 476.49417 158.621844 
L 478.019038 161.127198 
L 479.543906 164.125431 
L 481.068774 167.597139 
L 482.593642 171.49666 
L 485.643378 180.331894 
L 493.267717 204.318475 
L 496.317453 213.020377 
L 505.466661 238.051283 
L 513.091 258.149834 
L 516.140736 267.1099 
L 520.71534 281.738042 
L 522.240208 285.981263 
L 523.765076 289.142706 
L 525.289944 290.527724 
L 526.814811 289.317537 
L 528.339679 284.739052 
L 529.864547 276.251857 
L 531.389415 263.65752 
L 532.914283 247.158909 
L 534.439151 227.417149 
L 540.538623 140.931672 
L 542.063491 123.916246 
L 543.588359 110.730447 
L 545.113226 101.793672 
L 546.638094 97.064366 
L 548.162962 96.13864 
L 549.68783 98.379684 
L 551.212698 102.860267 
L 554.262434 114.583013 
L 555.787302 120.417832 
L 557.31217 125.732731 
L 558.837038 130.401222 
L 560.361906 134.40241 
L 561.886774 137.80378 
L 563.411641 140.66571 
L 564.936509 142.922214 
L 566.461377 144.475761 
L 567.986245 145.321187 
L 569.511113 145.526904 
L 571.035981 145.151326 
L 572.560849 144.247552 
L 574.085717 142.943372 
L 578.660321 138.426677 
L 580.185189 137.293902 
L 581.710056 136.652651 
L 583.234924 136.627443 
L 584.759792 137.291597 
L 586.28466 138.671434 
L 587.809528 140.747852 
L 589.334396 143.496723 
L 590.859264 146.935282 
L 592.384132 151.05827 
L 593.909 155.808145 
L 595.433868 161.091184 
L 598.483604 172.828861 
L 607.632811 209.907875 
L 610.682547 220.785753 
L 613.732283 230.514452 
L 616.782019 239.109378 
L 619.831754 246.8896 
L 622.88149 253.885125 
L 625.931226 260.217766 
L 628.980962 265.978142 
L 632.030698 271.182653 
L 638.130169 281.036009 
L 639.655037 283.753464 
L 641.179905 286.722651 
L 642.704773 290.035222 
L 644.229641 293.773195 
L 645.754509 297.94466 
L 648.804245 307.387124 
L 651.853981 317.917392 
L 654.903717 328.725795 
L 656.428584 333.51244 
L 657.953452 337.281746 
L 659.47832 339.48319 
L 661.003188 339.488963 
L 662.528056 336.694771 
L 664.052924 330.531555 
L 665.577792 320.470864 
L 667.10266 306.254036 
L 668.627528 288.075321 
L 670.152396 266.522503 
L 673.202132 217.217342 
L 676.251867 168.681897 
L 677.776735 148.145776 
L 679.301603 131.555951 
L 680.826471 119.542319 
L 682.351339 112.287071 
L 683.876207 109.6121 
L 685.401075 110.9816 
L 686.925943 115.529519 
L 688.450811 122.134681 
L 691.500547 136.961735 
L 693.025414 143.382451 
L 694.550282 148.593158 
L 696.07515 152.561641 
L 697.600018 155.386002 
L 699.124886 157.262895 
L 700.649754 158.449527 
L 702.174622 159.201366 
L 703.69949 159.658952 
L 711.323829 161.136893 
L 714.373565 161.880739 
L 715.898433 162.365537 
L 717.423301 163.123503 
L 718.948169 164.331072 
L 720.473037 166.087239 
L 721.997905 168.438382 
L 723.522773 171.380951 
L 725.047641 174.903474 
L 726.572509 179.047887 
L 728.097377 183.8974 
L 729.622244 189.475891 
L 731.147112 195.737479 
L 734.196848 209.965853 
L 741.821188 248.374651 
L 743.346056 255.048199 
L 744.870924 261.082369 
L 746.395792 266.447047 
L 749.445527 275.677375 
L 752.495263 284.403517 
L 755.544999 294.067879 
L 758.594735 304.706776 
L 766.219075 332.064277 
L 767.743942 336.960242 
L 769.26881 341.479288 
L 770.793678 345.595084 
L 772.318546 349.293625 
L 773.843414 352.530473 
L 775.368282 355.067452 
L 776.89315 356.528946 
L 778.418018 356.630583 
L 779.942886 355.189306 
L 781.467754 352.125246 
L 782.992622 347.461144 
L 784.51749 341.075862 
L 786.042357 332.568493 
L 787.567225 321.474603 
L 789.092093 307.457361 
L 790.616961 290.31583 
L 792.141829 270.087192 
L 793.666697 247.207558 
L 799.766169 148.101052 
L 801.291037 127.112059 
L 802.815905 109.500367 
L 804.340772 95.92337 
L 805.86564 86.803137 
L 807.390508 82.052337 
L 808.915376 81.115585 
L 810.440244 83.107423 
L 811.965112 86.895367 
L 816.539716 100.416843 
L 818.064584 104.247968 
L 819.589452 107.605926 
L 821.11432 110.640683 
L 822.639187 113.41199 
L 824.164055 115.913903 
L 825.688923 118.058351 
L 827.213791 119.685183 
L 828.738659 120.62696 
L 830.263527 120.811481 
L 831.788395 120.283266 
L 833.313263 119.187096 
L 836.362999 116.564803 
L 837.887867 115.913612 
L 839.412735 116.140787 
L 840.937602 117.449667 
L 842.46247 120.007713 
L 843.987338 123.864603 
L 845.512206 128.980118 
L 847.037074 135.223695 
L 848.561942 142.392118 
L 850.08681 150.303136 
L 853.136546 167.807694 
L 856.186282 186.844466 
L 859.236017 206.992202 
L 871.434961 290.206126 
L 876.009565 319.473382 
L 879.0593 337.31037 
L 880.584168 345.151147 
L 882.109036 352.000891 
L 883.633904 357.507332 
L 885.158772 361.311966 
L 886.68364 363.174545 
L 888.208508 362.999492 
L 889.733376 360.851695 
L 891.258244 356.81501 
L 892.783112 350.569758 
L 894.30798 341.53844 
L 895.832848 329.259257 
L 897.357715 313.44299 
L 898.882583 294.128053 
L 900.407451 271.761347 
L 903.457187 221.499682 
L 906.506923 172.194162 
L 908.031791 151.194393 
L 909.556659 133.868999 
L 911.081527 120.751116 
L 912.606395 112.133744 
L 914.131263 107.970823 
L 915.65613 107.789371 
L 917.180998 110.661676 
L 918.705866 115.384892 
L 921.755602 125.949722 
L 923.28047 130.532242 
L 924.805338 134.197082 
L 926.330206 136.844126 
L 927.855074 138.482163 
L 929.379942 139.10889 
L 930.90481 138.696114 
L 932.429678 137.296408 
L 933.954545 135.046147 
L 933.954545 135.046147 
" style="fill:none;stroke:#0000ff;stroke-linecap:square;stroke-width:1.5;"/>
   </g>
   <g id="line2d_20">
    <path clip-path="url(#pa712df0b77)" d="M 173.045455 89.865188 
L 174.570322 83.556552 
L 176.09519 77.82622 
L 177.620058 73.013948 
L 179.144926 69.409848 
L 180.669794 67.259001 
L 182.194662 66.665455 
L 183.71953 67.610542 
L 185.244398 69.875213 
L 186.769266 73.055549 
L 189.819002 80.799215 
L 192.868737 88.837506 
L 195.918473 96.227733 
L 198.968209 102.463269 
L 202.017945 107.956729 
L 205.067681 112.772757 
L 208.117417 117.000073 
L 211.167152 120.567346 
L 214.216888 123.521623 
L 217.266624 126.598791 
L 220.31636 130.155794 
L 221.841228 132.147025 
L 223.366096 134.341604 
L 224.890964 136.792291 
L 226.415832 139.610491 
L 227.9407 142.87449 
L 229.465567 146.606675 
L 230.990435 150.798557 
L 234.040171 160.337651 
L 237.089907 170.280054 
L 238.614775 174.925601 
L 240.139643 179.158507 
L 241.664511 182.929435 
L 243.189379 186.218738 
L 244.714247 189.029743 
L 246.239115 191.402805 
L 247.763983 193.433075 
L 249.28885 195.236531 
L 252.338586 198.324174 
L 253.863454 199.669591 
L 255.388322 200.831411 
L 256.91319 201.731928 
L 258.438058 202.301263 
L 259.962926 202.441158 
L 261.487794 202.042591 
L 263.012662 201.074874 
L 264.53753 199.563178 
L 266.062398 197.545324 
L 267.587265 195.07274 
L 269.112133 192.23361 
L 276.736473 176.984279 
L 278.261341 174.615675 
L 279.786209 172.609953 
L 281.311077 170.975734 
L 282.835945 169.69922 
L 284.360813 168.731011 
L 285.88568 167.981974 
L 288.935416 166.868605 
L 291.985152 166.077571 
L 295.034888 165.571649 
L 298.084624 165.446947 
L 301.13436 165.726859 
L 307.233831 166.48818 
L 313.333303 167.187213 
L 316.383039 167.747256 
L 319.432775 168.567407 
L 322.48251 169.808207 
L 325.532246 171.390425 
L 328.581982 173.310972 
L 330.10685 174.450259 
L 331.631718 175.754667 
L 334.681454 178.848773 
L 337.73119 182.556884 
L 340.780925 186.92581 
L 343.830661 191.841345 
L 346.880397 197.411698 
L 349.930133 203.767039 
L 351.455001 207.295032 
L 354.504737 215.191297 
L 357.554473 224.102607 
L 362.129076 238.623451 
L 368.228548 258.109119 
L 380.427491 295.630946 
L 381.952359 299.690297 
L 383.477227 302.875641 
L 385.002095 304.825353 
L 386.526963 305.232768 
L 388.051831 303.740644 
L 389.576699 299.748499 
L 391.101567 292.54334 
L 392.626435 281.608804 
L 394.151303 266.740444 
L 395.676171 248.160609 
L 397.201038 226.604281 
L 401.775642 156.402665 
L 403.30051 135.741145 
L 404.825378 118.524488 
L 406.350246 105.688974 
L 407.875114 97.732044 
L 409.399982 94.596791 
L 410.92485 95.787041 
L 412.449718 100.430991 
L 413.974586 107.321032 
L 417.024321 122.391608 
L 418.549189 128.45767 
L 420.074057 132.910181 
L 421.598925 135.702189 
L 423.123793 137.046759 
L 424.648661 137.268143 
L 426.173529 136.667967 
L 430.748133 133.435857 
L 432.273001 133.026259 
L 433.797868 133.260594 
L 435.322736 134.019856 
L 436.847604 135.09185 
L 441.422208 138.647288 
L 442.947076 139.643456 
L 444.471944 140.431375 
L 445.996812 140.991319 
L 449.046548 141.692409 
L 452.096283 142.439426 
L 453.621151 142.991062 
L 455.146019 143.783323 
L 458.195755 145.967615 
L 461.245491 148.320958 
L 462.770359 149.359377 
L 464.295227 150.22953 
L 467.344963 151.604903 
L 470.394698 152.964762 
L 471.919566 153.858436 
L 473.444434 155.042412 
L 474.969302 156.610273 
L 476.49417 158.621844 
L 478.019038 161.127198 
L 479.543906 164.125431 
L 481.068774 167.597139 
L 482.593642 171.49666 
L 485.643378 180.331894 
L 493.267717 204.318475 
L 496.317453 213.020377 
L 505.466661 238.051283 
L 513.091 258.149834 
L 516.140736 267.1099 
L 520.71534 281.738042 
L 522.240208 285.981263 
L 523.765076 289.142706 
L 525.289944 290.527724 
L 526.814811 289.317537 
L 528.339679 284.739052 
L 529.864547 276.251857 
L 531.389415 263.65752 
L 532.914283 247.158909 
L 534.439151 227.417149 
L 540.538623 140.931672 
L 542.063491 123.916246 
L 543.588359 110.730447 
L 545.113226 101.793672 
L 546.638094 97.064366 
L 548.162962 96.13864 
L 549.68783 98.379684 
L 551.212698 102.860267 
L 554.262434 114.583013 
L 555.787302 120.417832 
L 557.31217 125.732731 
L 558.837038 130.401222 
L 560.361906 134.40241 
L 561.886774 137.80378 
L 563.411641 140.66571 
L 564.936509 142.922214 
L 566.461377 144.475761 
L 567.986245 145.321187 
L 569.511113 145.526904 
L 571.035981 145.151326 
L 572.560849 144.247552 
L 574.085717 142.943372 
L 578.660321 138.426677 
L 580.185189 137.293902 
L 581.710056 136.652651 
L 583.234924 136.627443 
L 584.759792 137.291597 
L 586.28466 138.671434 
L 587.809528 140.747852 
L 589.334396 143.496723 
L 590.859264 146.935282 
L 592.384132 151.05827 
L 593.909 155.808145 
L 595.433868 161.091184 
L 598.483604 172.828861 
L 607.632811 209.907875 
L 610.682547 220.785753 
L 613.732283 230.514452 
L 616.782019 239.109378 
L 619.831754 246.8896 
L 622.88149 253.885125 
L 625.931226 260.217766 
L 628.980962 265.978142 
L 632.030698 271.182653 
L 638.130169 281.036009 
L 639.655037 283.753464 
L 641.179905 286.722651 
L 642.704773 290.035222 
L 644.229641 293.773195 
L 645.754509 297.94466 
L 648.804245 307.387124 
L 651.853981 317.917392 
L 654.903717 328.725795 
L 656.428584 333.51244 
L 657.953452 337.281746 
L 659.47832 339.48319 
L 661.003188 339.488963 
L 662.528056 336.694771 
L 664.052924 330.531555 
L 665.577792 320.470864 
L 667.10266 306.254036 
L 668.627528 288.075321 
L 670.152396 266.522503 
L 673.202132 217.217342 
L 676.251867 168.681897 
L 677.776735 148.145776 
L 679.301603 131.555951 
L 680.826471 119.542319 
L 682.351339 112.287071 
L 683.876207 109.6121 
L 685.401075 110.9816 
L 686.925943 115.529519 
L 688.450811 122.134681 
L 691.500547 136.961735 
L 693.025414 143.382451 
L 694.550282 148.593158 
L 696.07515 152.561641 
L 697.600018 155.386002 
L 699.124886 157.262895 
L 700.649754 158.449527 
L 702.174622 159.201366 
L 703.69949 159.658952 
L 711.323829 161.136893 
L 714.373565 161.880739 
L 715.898433 162.365537 
L 717.423301 163.123503 
L 718.948169 164.331072 
L 720.473037 166.087239 
L 721.997905 168.438382 
L 723.522773 171.380951 
L 725.047641 174.903474 
L 726.572509 179.047887 
L 728.097377 183.8974 
L 729.622244 189.475891 
L 731.147112 195.737479 
L 734.196848 209.965853 
L 741.821188 248.374651 
L 743.346056 255.048199 
L 744.870924 261.082369 
L 746.395792 266.447047 
L 749.445527 275.677375 
L 752.495263 284.403517 
L 755.544999 294.067879 
L 758.594735 304.706776 
L 766.219075 332.064277 
L 767.743942 336.960242 
L 769.26881 341.479288 
L 770.793678 345.595084 
L 772.318546 349.293625 
L 773.843414 352.530473 
L 775.368282 355.067452 
L 776.89315 356.528946 
L 778.418018 356.630583 
L 779.942886 355.189306 
L 781.467754 352.125246 
L 782.992622 347.461144 
L 784.51749 341.075862 
L 786.042357 332.568493 
L 787.567225 321.474603 
L 789.092093 307.457361 
L 790.616961 290.31583 
L 792.141829 270.087192 
L 793.666697 247.207558 
L 799.766169 148.101052 
L 801.291037 127.112059 
L 802.815905 109.500367 
L 804.340772 95.92337 
L 805.86564 86.803137 
L 807.390508 82.052337 
L 808.915376 81.115585 
L 810.440244 83.107423 
L 811.965112 86.895367 
L 816.539716 100.416843 
L 818.064584 104.247968 
L 819.589452 107.605926 
L 821.11432 110.640683 
L 822.639187 113.41199 
L 824.164055 115.913903 
L 825.688923 118.058351 
L 827.213791 119.685183 
L 828.738659 120.62696 
L 830.263527 120.811481 
L 831.788395 120.283266 
L 833.313263 119.187096 
L 836.362999 116.564803 
L 837.887867 115.913612 
L 839.412735 116.140787 
L 840.937602 117.449667 
L 842.46247 120.007713 
L 843.987338 123.864603 
L 845.512206 128.980118 
L 847.037074 135.223695 
L 848.561942 142.392118 
L 850.08681 150.303136 
L 853.136546 167.807694 
L 856.186282 186.844466 
L 859.236017 206.992202 
L 871.434961 290.206126 
L 876.009565 319.473382 
L 879.0593 337.31037 
L 880.584168 345.151147 
L 882.109036 352.000891 
L 883.633904 357.507332 
L 885.158772 361.311966 
L 886.68364 363.174545 
L 888.208508 362.999492 
L 889.733376 360.851695 
L 891.258244 356.81501 
L 892.783112 350.569758 
L 894.30798 341.53844 
L 895.832848 329.259257 
L 897.357715 313.44299 
L 898.882583 294.128053 
L 900.407451 271.761347 
L 903.457187 221.499682 
L 906.506923 172.194162 
L 908.031791 151.194393 
L 909.556659 133.868999 
L 911.081527 120.751116 
L 912.606395 112.133744 
L 914.131263 107.970823 
L 915.65613 107.789371 
L 917.180998 110.661676 
L 918.705866 115.384892 
L 921.755602 125.949722 
L 923.28047 130.532242 
L 924.805338 134.197082 
L 926.330206 136.844126 
L 927.855074 138.482163 
L 929.379942 139.10889 
L 930.90481 138.696114 
L 932.429678 137.296408 
L 933.954545 135.046147 
L 933.954545 135.046147 
" style="fill:none;stroke:#0000ff;stroke-linecap:square;stroke-width:1.5;"/>
   </g>
   <g id="line2d_21">
    <path clip-path="url(#pa712df0b77)" d="M 173.045455 89.865188 
L 174.570322 83.556552 
L 176.09519 77.82622 
L 177.620058 73.013948 
L 179.144926 69.409848 
L 180.669794 67.259001 
L 182.194662 66.665455 
L 183.71953 67.610542 
L 185.244398 69.875213 
L 186.769266 73.055549 
L 189.819002 80.799215 
L 192.868737 88.837506 
L 195.918473 96.227733 
L 198.968209 102.463269 
L 202.017945 107.956729 
L 205.067681 112.772757 
L 208.117417 117.000073 
L 211.167152 120.567346 
L 214.216888 123.521623 
L 217.266624 126.598791 
L 220.31636 130.155794 
L 221.841228 132.147025 
L 223.366096 134.341604 
L 224.890964 136.792291 
L 226.415832 139.610491 
L 227.9407 142.87449 
L 229.465567 146.606675 
L 230.990435 150.798557 
L 234.040171 160.337651 
L 237.089907 170.280054 
L 238.614775 174.925601 
L 240.139643 179.158507 
L 241.664511 182.929435 
L 243.189379 186.218738 
L 244.714247 189.029743 
L 246.239115 191.402805 
L 247.763983 193.433075 
L 249.28885 195.236531 
L 252.338586 198.324174 
L 253.863454 199.669591 
L 255.388322 200.831411 
L 256.91319 201.731928 
L 258.438058 202.301263 
L 259.962926 202.441158 
L 261.487794 202.042591 
L 263.012662 201.074874 
L 264.53753 199.563178 
L 266.062398 197.545324 
L 267.587265 195.07274 
L 269.112133 192.23361 
L 276.736473 176.984279 
L 278.261341 174.615675 
L 279.786209 172.609953 
L 281.311077 170.975734 
L 282.835945 169.69922 
L 284.360813 168.731011 
L 285.88568 167.981974 
L 288.935416 166.868605 
L 291.985152 166.077571 
L 295.034888 165.571649 
L 298.084624 165.446947 
L 301.13436 165.726859 
L 307.233831 166.48818 
L 313.333303 167.187213 
L 316.383039 167.747256 
L 319.432775 168.567407 
L 322.48251 169.808207 
L 325.532246 171.390425 
L 328.581982 173.310972 
L 330.10685 174.450259 
L 331.631718 175.754667 
L 334.681454 178.848773 
L 337.73119 182.556884 
L 340.780925 186.92581 
L 343.830661 191.841345 
L 346.880397 197.411698 
L 349.930133 203.767039 
L 351.455001 207.295032 
L 354.504737 215.191297 
L 357.554473 224.102607 
L 362.129076 238.623451 
L 368.228548 258.109119 
L 380.427491 295.630946 
L 381.952359 299.690297 
L 383.477227 302.875641 
L 385.002095 304.825353 
L 386.526963 305.232768 
L 388.051831 303.740644 
L 389.576699 299.748499 
L 391.101567 292.54334 
L 392.626435 281.608804 
L 394.151303 266.740444 
L 395.676171 248.160609 
L 397.201038 226.604281 
L 401.775642 156.402665 
L 403.30051 135.741145 
L 404.825378 118.524488 
L 406.350246 105.688974 
L 407.875114 97.732044 
L 409.399982 94.596791 
L 410.92485 95.787041 
L 412.449718 100.430991 
L 413.974586 107.321032 
L 417.024321 122.391608 
L 418.549189 128.45767 
L 420.074057 132.910181 
L 421.598925 135.702189 
L 423.123793 137.046759 
L 424.648661 137.268143 
L 426.173529 136.667967 
L 430.748133 133.435857 
L 432.273001 133.026259 
L 433.797868 133.260594 
L 435.322736 134.019856 
L 436.847604 135.09185 
L 441.422208 138.647288 
L 442.947076 139.643456 
L 444.471944 140.431375 
L 445.996812 140.991319 
L 449.046548 141.692409 
L 452.096283 142.439426 
L 453.621151 142.991062 
L 455.146019 143.783323 
L 458.195755 145.967615 
L 461.245491 148.320958 
L 462.770359 149.359377 
L 464.295227 150.22953 
L 467.344963 151.604903 
L 470.394698 152.964762 
L 471.919566 153.858436 
L 473.444434 155.042412 
L 474.969302 156.610273 
L 476.49417 158.621844 
L 478.019038 161.127198 
L 479.543906 164.125431 
L 481.068774 167.597139 
L 482.593642 171.49666 
L 485.643378 180.331894 
L 493.267717 204.318475 
L 496.317453 213.020377 
L 505.466661 238.051283 
L 513.091 258.149834 
L 516.140736 267.1099 
L 520.71534 281.738042 
L 522.240208 285.981263 
L 523.765076 289.142706 
L 525.289944 290.527724 
L 526.814811 289.317537 
L 528.339679 284.739052 
L 529.864547 276.251857 
L 531.389415 263.65752 
L 532.914283 247.158909 
L 534.439151 227.417149 
L 540.538623 140.931672 
L 542.063491 123.916246 
L 543.588359 110.730447 
L 545.113226 101.793672 
L 546.638094 97.064366 
L 548.162962 96.13864 
L 549.68783 98.379684 
L 551.212698 102.860267 
L 554.262434 114.583013 
L 555.787302 120.417832 
L 557.31217 125.732731 
L 558.837038 130.401222 
L 560.361906 134.40241 
L 561.886774 137.80378 
L 563.411641 140.66571 
L 564.936509 142.922214 
L 566.461377 144.475761 
L 567.986245 145.321187 
L 569.511113 145.526904 
L 571.035981 145.151326 
L 572.560849 144.247552 
L 574.085717 142.943372 
L 578.660321 138.426677 
L 580.185189 137.293902 
L 581.710056 136.652651 
L 583.234924 136.627443 
L 584.759792 137.291597 
L 586.28466 138.671434 
L 587.809528 140.747852 
L 589.334396 143.496723 
L 590.859264 146.935282 
L 592.384132 151.05827 
L 593.909 155.808145 
L 595.433868 161.091184 
L 598.483604 172.828861 
L 607.632811 209.907875 
L 610.682547 220.785753 
L 613.732283 230.514452 
L 616.782019 239.109378 
L 619.831754 246.8896 
L 622.88149 253.885125 
L 625.931226 260.217766 
L 628.980962 265.978142 
L 632.030698 271.182653 
L 638.130169 281.036009 
L 639.655037 283.753464 
L 641.179905 286.722651 
L 642.704773 290.035222 
L 644.229641 293.773195 
L 645.754509 297.94466 
L 648.804245 307.387124 
L 651.853981 317.917392 
L 654.903717 328.725795 
L 656.428584 333.51244 
L 657.953452 337.281746 
L 659.47832 339.48319 
L 661.003188 339.488963 
L 662.528056 336.694771 
L 664.052924 330.531555 
L 665.577792 320.470864 
L 667.10266 306.254036 
L 668.627528 288.075321 
L 670.152396 266.522503 
L 673.202132 217.217342 
L 676.251867 168.681897 
L 677.776735 148.145776 
L 679.301603 131.555951 
L 680.826471 119.542319 
L 682.351339 112.287071 
L 683.876207 109.6121 
L 685.401075 110.9816 
L 686.925943 115.529519 
L 688.450811 122.134681 
L 691.500547 136.961735 
L 693.025414 143.382451 
L 694.550282 148.593158 
L 696.07515 152.561641 
L 697.600018 155.386002 
L 699.124886 157.262895 
L 700.649754 158.449527 
L 702.174622 159.201366 
L 703.69949 159.658952 
L 711.323829 161.136893 
L 714.373565 161.880739 
L 715.898433 162.365537 
L 717.423301 163.123503 
L 718.948169 164.331072 
L 720.473037 166.087239 
L 721.997905 168.438382 
L 723.522773 171.380951 
L 725.047641 174.903474 
L 726.572509 179.047887 
L 728.097377 183.8974 
L 729.622244 189.475891 
L 731.147112 195.737479 
L 734.196848 209.965853 
L 741.821188 248.374651 
L 743.346056 255.048199 
L 744.870924 261.082369 
L 746.395792 266.447047 
L 749.445527 275.677375 
L 752.495263 284.403517 
L 755.544999 294.067879 
L 758.594735 304.706776 
L 766.219075 332.064277 
L 767.743942 336.960242 
L 769.26881 341.479288 
L 770.793678 345.595084 
L 772.318546 349.293625 
L 773.843414 352.530473 
L 775.368282 355.067452 
L 776.89315 356.528946 
L 778.418018 356.630583 
L 779.942886 355.189306 
L 781.467754 352.125246 
L 782.992622 347.461144 
L 784.51749 341.075862 
L 786.042357 332.568493 
L 787.567225 321.474603 
L 789.092093 307.457361 
L 790.616961 290.31583 
L 792.141829 270.087192 
L 793.666697 247.207558 
L 799.766169 148.101052 
L 801.291037 127.112059 
L 802.815905 109.500367 
L 804.340772 95.92337 
L 805.86564 86.803137 
L 807.390508 82.052337 
L 808.915376 81.115585 
L 810.440244 83.107423 
L 811.965112 86.895367 
L 816.539716 100.416843 
L 818.064584 104.247968 
L 819.589452 107.605926 
L 821.11432 110.640683 
L 822.639187 113.41199 
L 824.164055 115.913903 
L 825.688923 118.058351 
L 827.213791 119.685183 
L 828.738659 120.62696 
L 830.263527 120.811481 
L 831.788395 120.283266 
L 833.313263 119.187096 
L 836.362999 116.564803 
L 837.887867 115.913612 
L 839.412735 116.140787 
L 840.937602 117.449667 
L 842.46247 120.007713 
L 843.987338 123.864603 
L 845.512206 128.980118 
L 847.037074 135.223695 
L 848.561942 142.392118 
L 850.08681 150.303136 
L 853.136546 167.807694 
L 856.186282 186.844466 
L 859.236017 206.992202 
L 871.434961 290.206126 
L 876.009565 319.473382 
L 879.0593 337.31037 
L 880.584168 345.151147 
L 882.109036 352.000891 
L 883.633904 357.507332 
L 885.158772 361.311966 
L 886.68364 363.174545 
L 888.208508 362.999492 
L 889.733376 360.851695 
L 891.258244 356.81501 
L 892.783112 350.569758 
L 894.30798 341.53844 
L 895.832848 329.259257 
L 897.357715 313.44299 
L 898.882583 294.128053 
L 900.407451 271.761347 
L 903.457187 221.499682 
L 906.506923 172.194162 
L 908.031791 151.194393 
L 909.556659 133.868999 
L 911.081527 120.751116 
L 912.606395 112.133744 
L 914.131263 107.970823 
L 915.65613 107.789371 
L 917.180998 110.661676 
L 918.705866 115.384892 
L 921.755602 125.949722 
L 923.28047 130.532242 
L 924.805338 134.197082 
L 926.330206 136.844126 
L 927.855074 138.482163 
L 929.379942 139.10889 
L 930.90481 138.696114 
L 932.429678 137.296408 
L 933.954545 135.046147 
L 933.954545 135.046147 
" style="fill:none;stroke:#0000ff;stroke-linecap:square;stroke-width:1.5;"/>
   </g>
   <g id="patch_3">
    <path d="M 135 378 
L 135 51.84 
" style="fill:none;stroke:#000000;stroke-linecap:square;stroke-linejoin:miter;stroke-width:0.8;"/>
   </g>
   <g id="patch_4">
    <path d="M 972 378 
L 972 51.84 
" style="fill:none;stroke:#000000;stroke-linecap:square;stroke-linejoin:miter;stroke-width:0.8;"/>
   </g>
   <g id="patch_5">
    <path d="M 135 378 
L 972 378 
" style="fill:none;stroke:#000000;stroke-linecap:square;stroke-linejoin:miter;stroke-width:0.8;"/>
   </g>
   <g id="patch_6">
    <path d="M 135 51.84 
L 972 51.84 
" style="fill:none;stroke:#000000;stroke-linecap:square;stroke-linejoin:miter;stroke-width:0.8;"/>
   </g>
  </g>
 </g>
 <defs>
  <clipPath id="pa712df0b77">
   <rect height="326.16" width="837" x="135" y="51.84"/>
  </clipPath>
 </defs>
</svg>
