<?xml version="1.0" encoding="utf-8" standalone="no"?>
<!DOCTYPE svg PUBLIC "-//W3C//DTD SVG 1.1//EN"
  "http://www.w3.org/Graphics/SVG/1.1/DTD/svg11.dtd">
<!-- Created with matplotlib (https://matplotlib.org/) -->
<svg height="576pt" version="1.1" viewBox="0 0 864 576" width="864pt" xmlns="http://www.w3.org/2000/svg" xmlns:xlink="http://www.w3.org/1999/xlink">
 <defs>
  <style type="text/css">
*{stroke-linecap:butt;stroke-linejoin:round;}
  </style>
 </defs>
 <g id="figure_1">
  <g id="patch_1">
   <path d="M 0 576 
L 864 576 
L 864 0 
L 0 0 
z
" style="fill:#ffffff;"/>
  </g>
  <g id="axes_1">
   <g id="patch_2">
    <path d="M 108 504 
L 777.6 504 
L 777.6 69.12 
L 108 69.12 
z
" style="fill:#ffffff;"/>
   </g>
   <g id="PolyCollection_1">
    <defs>
     <path d="M 138.436364 -461.302623 
L 138.436364 -433.575039 
L 142.663636 -436.078456 
L 146.890909 -440.109201 
L 151.118182 -444.525743 
L 155.345455 -447.939192 
L 159.572727 -449.340411 
L 163.8 -448.410156 
L 168.027273 -445.501601 
L 172.254545 -441.54876 
L 176.481818 -437.767574 
L 180.709091 -434.970911 
L 184.936364 -433.14104 
L 189.163636 -431.79408 
L 193.390909 -430.673855 
L 197.618182 -430.051255 
L 201.845455 -430.656213 
L 206.072727 -433.407802 
L 210.3 -438.646645 
L 214.527273 -445.317054 
L 218.754545 -451.340352 
L 222.981818 -455.176543 
L 227.209091 -456.471906 
L 231.436364 -455.424295 
L 235.663636 -452.374545 
L 239.890909 -448.072318 
L 244.118182 -443.871091 
L 248.345455 -440.860504 
L 252.572727 -439.223271 
L 256.8 -438.768316 
L 261.027273 -439.531676 
L 265.254545 -441.717928 
L 269.481818 -445.277675 
L 273.709091 -449.646566 
L 277.936364 -453.913068 
L 282.163636 -457.247696 
L 286.390909 -459.190464 
L 290.618182 -459.687351 
L 294.845455 -459.014481 
L 299.072727 -457.621864 
L 303.3 -455.821164 
L 307.527273 -453.474066 
L 311.754545 -450.090925 
L 315.981818 -445.292366 
L 320.209091 -439.006094 
L 324.436364 -431.236237 
L 328.663636 -421.894706 
L 332.890909 -410.982258 
L 337.118182 -398.751764 
L 341.345455 -385.473231 
L 345.572727 -371.233738 
L 349.8 -356.149949 
L 354.027273 -340.659343 
L 358.254545 -325.439983 
L 362.481818 -310.988936 
L 366.709091 -297.225186 
L 370.936364 -283.440124 
L 375.163636 -268.732248 
L 379.390909 -252.646386 
L 383.618182 -235.436031 
L 387.845455 -217.880769 
L 392.072727 -201.149635 
L 396.3 -186.609499 
L 400.527273 -175.026243 
L 404.754545 -165.890211 
L 408.981818 -157.849954 
L 413.209091 -149.736133 
L 417.436364 -140.983748 
L 421.663636 -131.446898 
L 425.890909 -121.488082 
L 430.118182 -112.123149 
L 434.345455 -104.43629 
L 438.572727 -98.880722 
L 442.8 -95.256429 
L 447.027273 -93.124483 
L 451.254545 -92.073128 
L 455.481818 -91.767273 
L 459.709091 -92.082966 
L 463.936364 -93.214859 
L 468.163636 -95.428 
L 472.390909 -98.614545 
L 476.618182 -102.11563 
L 480.845455 -104.967002 
L 485.072727 -106.387161 
L 489.3 -106.210494 
L 493.527273 -104.988729 
L 497.754545 -103.684635 
L 501.981818 -103.218124 
L 506.209091 -104.180272 
L 510.436364 -106.782561 
L 514.663636 -110.923689 
L 518.890909 -116.236121 
L 523.118182 -122.077341 
L 527.345455 -127.603939 
L 531.572727 -132.076332 
L 535.8 -135.260309 
L 540.027273 -137.59021 
L 544.254545 -139.956778 
L 548.481818 -143.250885 
L 552.709091 -147.875124 
L 556.936364 -153.506795 
L 561.163636 -159.362284 
L 565.390909 -164.814264 
L 569.618182 -169.83828 
L 573.845455 -174.932961 
L 578.072727 -180.630059 
L 582.3 -186.978539 
L 586.527273 -193.370242 
L 590.754545 -198.847232 
L 594.981818 -202.698362 
L 599.209091 -204.915663 
L 603.436364 -206.171681 
L 607.663636 -207.405721 
L 611.890909 -209.386069 
L 616.118182 -212.488346 
L 620.345455 -216.696475 
L 624.572727 -221.745364 
L 628.8 -227.310243 
L 633.027273 -233.106561 
L 637.254545 -238.851739 
L 641.481818 -244.231191 
L 645.709091 -248.996317 
L 649.936364 -253.109362 
L 654.163636 -256.780352 
L 658.390909 -260.389829 
L 662.618182 -264.377894 
L 666.845455 -269.129037 
L 671.072727 -274.868716 
L 675.3 -281.607035 
L 679.527273 -289.093187 
L 683.754545 -296.730656 
L 687.981818 -303.606193 
L 692.209091 -308.830591 
L 696.436364 -312.048943 
L 700.663636 -313.683045 
L 704.890909 -314.658898 
L 709.118182 -315.895823 
L 713.345455 -317.970609 
L 717.572727 -320.9678 
L 721.8 -324.457285 
L 726.027273 -327.707267 
L 730.254545 -330.073137 
L 734.481818 -331.357472 
L 738.709091 -331.847992 
L 742.936364 -331.914157 
L 747.163636 -331.637185 
L 747.163636 -359.07592 
L 747.163636 -359.07592 
L 742.936364 -359.308989 
L 738.709091 -359.35722 
L 734.481818 -359.157995 
L 730.254545 -358.687086 
L 726.027273 -357.724065 
L 721.8 -355.860015 
L 717.572727 -352.980715 
L 713.345455 -349.666955 
L 709.118182 -346.955185 
L 704.890909 -345.53152 
L 700.663636 -345.032324 
L 696.436364 -344.168415 
L 692.209091 -341.539625 
L 687.981818 -336.403821 
L 683.754545 -328.982899 
L 679.527273 -320.296699 
L 675.3 -311.67367 
L 671.072727 -304.177856 
L 666.845455 -298.243004 
L 662.618182 -293.690175 
L 658.390909 -289.997188 
L 654.163636 -286.541823 
L 649.936364 -282.742039 
L 645.709091 -278.169689 
L 641.481818 -272.634634 
L 637.254545 -266.18463 
L 633.027273 -259.058105 
L 628.8 -251.652049 
L 624.572727 -244.476111 
L 620.345455 -238.059274 
L 616.118182 -232.848738 
L 611.890909 -229.109699 
L 607.663636 -226.777469 
L 603.436364 -225.338133 
L 599.209091 -223.928865 
L 594.981818 -221.678399 
L 590.754545 -218.064414 
L 586.527273 -213.074555 
L 582.3 -207.150476 
L 578.072727 -200.960168 
L 573.845455 -195.050325 
L 569.618182 -189.568502 
L 565.390909 -184.284178 
L 561.163636 -178.919017 
L 556.936364 -173.510901 
L 552.709091 -168.502027 
L 548.481818 -164.476644 
L 544.254545 -161.702155 
L 540.027273 -159.789 
L 535.8 -157.809919 
L 531.572727 -154.864261 
L 527.345455 -150.599372 
L 523.118182 -145.278974 
L 518.890909 -139.509976 
L 514.663636 -133.961253 
L 510.436364 -129.213415 
L 506.209091 -125.703734 
L 501.981818 -123.678656 
L 497.754545 -123.08727 
L 493.527273 -123.486314 
L 489.3 -124.125475 
L 485.072727 -124.230968 
L 480.845455 -123.305658 
L 476.618182 -121.296256 
L 472.390909 -118.5739 
L 468.163636 -115.727903 
L 463.936364 -113.308685 
L 459.709091 -111.680264 
L 455.481818 -110.986676 
L 451.254545 -111.204405 
L 447.027273 -112.359445 
L 442.8 -114.765939 
L 438.572727 -118.896117 
L 434.345455 -124.946021 
L 430.118182 -132.681834 
L 425.890909 -141.717732 
L 421.663636 -151.700537 
L 417.436364 -162.086178 
L 413.209091 -172.1564 
L 408.981818 -181.701192 
L 404.754545 -191.3359 
L 400.527273 -201.999545 
L 396.3 -214.487671 
L 392.072727 -229.368337 
L 387.845455 -246.7194 
L 383.618182 -265.653457 
L 379.390909 -284.561699 
L 375.163636 -302.209111 
L 370.936364 -318.37091 
L 366.709091 -333.501548 
L 362.481818 -348.137117 
L 358.254545 -362.59141 
L 354.027273 -376.911389 
L 349.8 -390.942941 
L 345.572727 -404.414985 
L 341.345455 -417.016759 
L 337.118182 -428.55088 
L 332.890909 -439.098395 
L 328.663636 -448.899006 
L 324.436364 -457.905696 
L 320.209091 -465.597305 
L 315.981818 -471.459369 
L 311.754545 -475.534782 
L 307.527273 -478.397547 
L 303.3 -480.665646 
L 299.072727 -482.632586 
L 294.845455 -484.211 
L 290.618182 -484.950269 
L 286.390909 -484.197508 
L 282.163636 -481.550822 
L 277.936364 -477.297614 
L 273.709091 -472.390817 
L 269.481818 -467.943872 
L 265.254545 -464.70139 
L 261.027273 -462.886416 
L 256.8 -462.386479 
L 252.572727 -463.046847 
L 248.345455 -464.842222 
L 244.118182 -467.870987 
L 239.890909 -472.298348 
L 235.663636 -478.01642 
L 231.436364 -483.761353 
L 227.209091 -487.112727 
L 222.981818 -486.254875 
L 218.754545 -481.470545 
L 214.527273 -474.773975 
L 210.3 -468.122299 
L 206.072727 -462.488945 
L 201.845455 -458.363642 
L 197.618182 -456.025146 
L 193.390909 -455.375767 
L 189.163636 -456.039783 
L 184.936364 -457.714285 
L 180.709091 -460.23956 
L 176.481818 -463.507271 
L 172.254545 -467.42431 
L 168.027273 -471.677282 
L 163.8 -475.351759 
L 159.572727 -477.088143 
L 155.345455 -475.994523 
L 151.118182 -472.387726 
L 146.890909 -467.66174 
L 142.663636 -463.543371 
L 138.436364 -461.302623 
z
" id="me0dda69311" style="stroke:#ffffff;stroke-opacity:0.1;"/>
    </defs>
    <g clip-path="url(#p38dfc67cb3)">
     <use style="fill-opacity:0.1;stroke:#ffffff;stroke-opacity:0.1;" x="0" xlink:href="#me0dda69311" y="576"/>
    </g>
   </g>
   <g id="matplotlib.axis_1">
    <g id="xtick_1">
     <g id="line2d_1">
      <defs>
       <path d="M 0 0 
L 0 3.5 
" id="m0e906de262" style="stroke:#000000;stroke-width:0.8;"/>
      </defs>
      <g>
       <use style="stroke:#000000;stroke-width:0.8;" x="138.436364" xlink:href="#m0e906de262" y="504"/>
      </g>
     </g>
     <g id="text_1">
      <!-- 0 -->
      <defs>
       <path d="M 31.78125 66.40625 
Q 24.171875 66.40625 20.328125 58.90625 
Q 16.5 51.421875 16.5 36.375 
Q 16.5 21.390625 20.328125 13.890625 
Q 24.171875 6.390625 31.78125 6.390625 
Q 39.453125 6.390625 43.28125 13.890625 
Q 47.125 21.390625 47.125 36.375 
Q 47.125 51.421875 43.28125 58.90625 
Q 39.453125 66.40625 31.78125 66.40625 
z
M 31.78125 74.21875 
Q 44.046875 74.21875 50.515625 64.515625 
Q 56.984375 54.828125 56.984375 36.375 
Q 56.984375 17.96875 50.515625 8.265625 
Q 44.046875 -1.421875 31.78125 -1.421875 
Q 19.53125 -1.421875 13.0625 8.265625 
Q 6.59375 17.96875 6.59375 36.375 
Q 6.59375 54.828125 13.0625 64.515625 
Q 19.53125 74.21875 31.78125 74.21875 
z
" id="DejaVuSans-48"/>
      </defs>
      <g transform="translate(133.982614 521.637812)scale(0.14 -0.14)">
       <use xlink:href="#DejaVuSans-48"/>
      </g>
     </g>
    </g>
    <g id="xtick_2">
     <g id="line2d_2">
      <g>
       <use style="stroke:#000000;stroke-width:0.8;" x="222.398746" xlink:href="#m0e906de262" y="504"/>
      </g>
     </g>
     <g id="text_2">
      <!-- 20 -->
      <defs>
       <path d="M 19.1875 8.296875 
L 53.609375 8.296875 
L 53.609375 0 
L 7.328125 0 
L 7.328125 8.296875 
Q 12.9375 14.109375 22.625 23.890625 
Q 32.328125 33.6875 34.8125 36.53125 
Q 39.546875 41.84375 41.421875 45.53125 
Q 43.3125 49.21875 43.3125 52.78125 
Q 43.3125 58.59375 39.234375 62.25 
Q 35.15625 65.921875 28.609375 65.921875 
Q 23.96875 65.921875 18.8125 64.3125 
Q 13.671875 62.703125 7.8125 59.421875 
L 7.8125 69.390625 
Q 13.765625 71.78125 18.9375 73 
Q 24.125 74.21875 28.421875 74.21875 
Q 39.75 74.21875 46.484375 68.546875 
Q 53.21875 62.890625 53.21875 53.421875 
Q 53.21875 48.921875 51.53125 44.890625 
Q 49.859375 40.875 45.40625 35.40625 
Q 44.1875 33.984375 37.640625 27.21875 
Q 31.109375 20.453125 19.1875 8.296875 
z
" id="DejaVuSans-50"/>
      </defs>
      <g transform="translate(213.491246 521.637812)scale(0.14 -0.14)">
       <use xlink:href="#DejaVuSans-50"/>
       <use x="63.623047" xlink:href="#DejaVuSans-48"/>
      </g>
     </g>
    </g>
    <g id="xtick_3">
     <g id="line2d_3">
      <g>
       <use style="stroke:#000000;stroke-width:0.8;" x="306.361129" xlink:href="#m0e906de262" y="504"/>
      </g>
     </g>
     <g id="text_3">
      <!-- 40 -->
      <defs>
       <path d="M 37.796875 64.3125 
L 12.890625 25.390625 
L 37.796875 25.390625 
z
M 35.203125 72.90625 
L 47.609375 72.90625 
L 47.609375 25.390625 
L 58.015625 25.390625 
L 58.015625 17.1875 
L 47.609375 17.1875 
L 47.609375 0 
L 37.796875 0 
L 37.796875 17.1875 
L 4.890625 17.1875 
L 4.890625 26.703125 
z
" id="DejaVuSans-52"/>
      </defs>
      <g transform="translate(297.453629 521.637812)scale(0.14 -0.14)">
       <use xlink:href="#DejaVuSans-52"/>
       <use x="63.623047" xlink:href="#DejaVuSans-48"/>
      </g>
     </g>
    </g>
    <g id="xtick_4">
     <g id="line2d_4">
      <g>
       <use style="stroke:#000000;stroke-width:0.8;" x="390.323511" xlink:href="#m0e906de262" y="504"/>
      </g>
     </g>
     <g id="text_4">
      <!-- 60 -->
      <defs>
       <path d="M 33.015625 40.375 
Q 26.375 40.375 22.484375 35.828125 
Q 18.609375 31.296875 18.609375 23.390625 
Q 18.609375 15.53125 22.484375 10.953125 
Q 26.375 6.390625 33.015625 6.390625 
Q 39.65625 6.390625 43.53125 10.953125 
Q 47.40625 15.53125 47.40625 23.390625 
Q 47.40625 31.296875 43.53125 35.828125 
Q 39.65625 40.375 33.015625 40.375 
z
M 52.59375 71.296875 
L 52.59375 62.3125 
Q 48.875 64.0625 45.09375 64.984375 
Q 41.3125 65.921875 37.59375 65.921875 
Q 27.828125 65.921875 22.671875 59.328125 
Q 17.53125 52.734375 16.796875 39.40625 
Q 19.671875 43.65625 24.015625 45.921875 
Q 28.375 48.1875 33.59375 48.1875 
Q 44.578125 48.1875 50.953125 41.515625 
Q 57.328125 34.859375 57.328125 23.390625 
Q 57.328125 12.15625 50.6875 5.359375 
Q 44.046875 -1.421875 33.015625 -1.421875 
Q 20.359375 -1.421875 13.671875 8.265625 
Q 6.984375 17.96875 6.984375 36.375 
Q 6.984375 53.65625 15.1875 63.9375 
Q 23.390625 74.21875 37.203125 74.21875 
Q 40.921875 74.21875 44.703125 73.484375 
Q 48.484375 72.75 52.59375 71.296875 
z
" id="DejaVuSans-54"/>
      </defs>
      <g transform="translate(381.416011 521.637812)scale(0.14 -0.14)">
       <use xlink:href="#DejaVuSans-54"/>
       <use x="63.623047" xlink:href="#DejaVuSans-48"/>
      </g>
     </g>
    </g>
    <g id="xtick_5">
     <g id="line2d_5">
      <g>
       <use style="stroke:#000000;stroke-width:0.8;" x="474.285893" xlink:href="#m0e906de262" y="504"/>
      </g>
     </g>
     <g id="text_5">
      <!-- 80 -->
      <defs>
       <path d="M 31.78125 34.625 
Q 24.75 34.625 20.71875 30.859375 
Q 16.703125 27.09375 16.703125 20.515625 
Q 16.703125 13.921875 20.71875 10.15625 
Q 24.75 6.390625 31.78125 6.390625 
Q 38.8125 6.390625 42.859375 10.171875 
Q 46.921875 13.96875 46.921875 20.515625 
Q 46.921875 27.09375 42.890625 30.859375 
Q 38.875 34.625 31.78125 34.625 
z
M 21.921875 38.8125 
Q 15.578125 40.375 12.03125 44.71875 
Q 8.5 49.078125 8.5 55.328125 
Q 8.5 64.0625 14.71875 69.140625 
Q 20.953125 74.21875 31.78125 74.21875 
Q 42.671875 74.21875 48.875 69.140625 
Q 55.078125 64.0625 55.078125 55.328125 
Q 55.078125 49.078125 51.53125 44.71875 
Q 48 40.375 41.703125 38.8125 
Q 48.828125 37.15625 52.796875 32.3125 
Q 56.78125 27.484375 56.78125 20.515625 
Q 56.78125 9.90625 50.3125 4.234375 
Q 43.84375 -1.421875 31.78125 -1.421875 
Q 19.734375 -1.421875 13.25 4.234375 
Q 6.78125 9.90625 6.78125 20.515625 
Q 6.78125 27.484375 10.78125 32.3125 
Q 14.796875 37.15625 21.921875 38.8125 
z
M 18.3125 54.390625 
Q 18.3125 48.734375 21.84375 45.5625 
Q 25.390625 42.390625 31.78125 42.390625 
Q 38.140625 42.390625 41.71875 45.5625 
Q 45.3125 48.734375 45.3125 54.390625 
Q 45.3125 60.0625 41.71875 63.234375 
Q 38.140625 66.40625 31.78125 66.40625 
Q 25.390625 66.40625 21.84375 63.234375 
Q 18.3125 60.0625 18.3125 54.390625 
z
" id="DejaVuSans-56"/>
      </defs>
      <g transform="translate(465.378393 521.637812)scale(0.14 -0.14)">
       <use xlink:href="#DejaVuSans-56"/>
       <use x="63.623047" xlink:href="#DejaVuSans-48"/>
      </g>
     </g>
    </g>
    <g id="xtick_6">
     <g id="line2d_6">
      <g>
       <use style="stroke:#000000;stroke-width:0.8;" x="558.248276" xlink:href="#m0e906de262" y="504"/>
      </g>
     </g>
     <g id="text_6">
      <!-- 100 -->
      <defs>
       <path d="M 12.40625 8.296875 
L 28.515625 8.296875 
L 28.515625 63.921875 
L 10.984375 60.40625 
L 10.984375 69.390625 
L 28.421875 72.90625 
L 38.28125 72.90625 
L 38.28125 8.296875 
L 54.390625 8.296875 
L 54.390625 0 
L 12.40625 0 
z
" id="DejaVuSans-49"/>
      </defs>
      <g transform="translate(544.887026 521.637812)scale(0.14 -0.14)">
       <use xlink:href="#DejaVuSans-49"/>
       <use x="63.623047" xlink:href="#DejaVuSans-48"/>
       <use x="127.246094" xlink:href="#DejaVuSans-48"/>
      </g>
     </g>
    </g>
    <g id="xtick_7">
     <g id="line2d_7">
      <g>
       <use style="stroke:#000000;stroke-width:0.8;" x="642.210658" xlink:href="#m0e906de262" y="504"/>
      </g>
     </g>
     <g id="text_7">
      <!-- 120 -->
      <g transform="translate(628.849408 521.637812)scale(0.14 -0.14)">
       <use xlink:href="#DejaVuSans-49"/>
       <use x="63.623047" xlink:href="#DejaVuSans-50"/>
       <use x="127.246094" xlink:href="#DejaVuSans-48"/>
      </g>
     </g>
    </g>
    <g id="xtick_8">
     <g id="line2d_8">
      <g>
       <use style="stroke:#000000;stroke-width:0.8;" x="726.173041" xlink:href="#m0e906de262" y="504"/>
      </g>
     </g>
     <g id="text_8">
      <!-- 140 -->
      <g transform="translate(712.811791 521.637812)scale(0.14 -0.14)">
       <use xlink:href="#DejaVuSans-49"/>
       <use x="63.623047" xlink:href="#DejaVuSans-52"/>
       <use x="127.246094" xlink:href="#DejaVuSans-48"/>
      </g>
     </g>
    </g>
    <g id="text_9">
     <!-- Time (ms) -->
     <defs>
      <path d="M -0.296875 72.90625 
L 61.375 72.90625 
L 61.375 64.59375 
L 35.5 64.59375 
L 35.5 0 
L 25.59375 0 
L 25.59375 64.59375 
L -0.296875 64.59375 
z
" id="DejaVuSans-84"/>
      <path d="M 9.421875 54.6875 
L 18.40625 54.6875 
L 18.40625 0 
L 9.421875 0 
z
M 9.421875 75.984375 
L 18.40625 75.984375 
L 18.40625 64.59375 
L 9.421875 64.59375 
z
" id="DejaVuSans-105"/>
      <path d="M 52 44.1875 
Q 55.375 50.25 60.0625 53.125 
Q 64.75 56 71.09375 56 
Q 79.640625 56 84.28125 50.015625 
Q 88.921875 44.046875 88.921875 33.015625 
L 88.921875 0 
L 79.890625 0 
L 79.890625 32.71875 
Q 79.890625 40.578125 77.09375 44.375 
Q 74.3125 48.1875 68.609375 48.1875 
Q 61.625 48.1875 57.5625 43.546875 
Q 53.515625 38.921875 53.515625 30.90625 
L 53.515625 0 
L 44.484375 0 
L 44.484375 32.71875 
Q 44.484375 40.625 41.703125 44.40625 
Q 38.921875 48.1875 33.109375 48.1875 
Q 26.21875 48.1875 22.15625 43.53125 
Q 18.109375 38.875 18.109375 30.90625 
L 18.109375 0 
L 9.078125 0 
L 9.078125 54.6875 
L 18.109375 54.6875 
L 18.109375 46.1875 
Q 21.1875 51.21875 25.484375 53.609375 
Q 29.78125 56 35.6875 56 
Q 41.65625 56 45.828125 52.96875 
Q 50 49.953125 52 44.1875 
z
" id="DejaVuSans-109"/>
      <path d="M 56.203125 29.59375 
L 56.203125 25.203125 
L 14.890625 25.203125 
Q 15.484375 15.921875 20.484375 11.0625 
Q 25.484375 6.203125 34.421875 6.203125 
Q 39.59375 6.203125 44.453125 7.46875 
Q 49.3125 8.734375 54.109375 11.28125 
L 54.109375 2.78125 
Q 49.265625 0.734375 44.1875 -0.34375 
Q 39.109375 -1.421875 33.890625 -1.421875 
Q 20.796875 -1.421875 13.15625 6.1875 
Q 5.515625 13.8125 5.515625 26.8125 
Q 5.515625 40.234375 12.765625 48.109375 
Q 20.015625 56 32.328125 56 
Q 43.359375 56 49.78125 48.890625 
Q 56.203125 41.796875 56.203125 29.59375 
z
M 47.21875 32.234375 
Q 47.125 39.59375 43.09375 43.984375 
Q 39.0625 48.390625 32.421875 48.390625 
Q 24.90625 48.390625 20.390625 44.140625 
Q 15.875 39.890625 15.1875 32.171875 
z
" id="DejaVuSans-101"/>
      <path id="DejaVuSans-32"/>
      <path d="M 31 75.875 
Q 24.46875 64.65625 21.28125 53.65625 
Q 18.109375 42.671875 18.109375 31.390625 
Q 18.109375 20.125 21.3125 9.0625 
Q 24.515625 -2 31 -13.1875 
L 23.1875 -13.1875 
Q 15.875 -1.703125 12.234375 9.375 
Q 8.59375 20.453125 8.59375 31.390625 
Q 8.59375 42.28125 12.203125 53.3125 
Q 15.828125 64.359375 23.1875 75.875 
z
" id="DejaVuSans-40"/>
      <path d="M 44.28125 53.078125 
L 44.28125 44.578125 
Q 40.484375 46.53125 36.375 47.5 
Q 32.28125 48.484375 27.875 48.484375 
Q 21.1875 48.484375 17.84375 46.4375 
Q 14.5 44.390625 14.5 40.28125 
Q 14.5 37.15625 16.890625 35.375 
Q 19.28125 33.59375 26.515625 31.984375 
L 29.59375 31.296875 
Q 39.15625 29.25 43.1875 25.515625 
Q 47.21875 21.78125 47.21875 15.09375 
Q 47.21875 7.46875 41.1875 3.015625 
Q 35.15625 -1.421875 24.609375 -1.421875 
Q 20.21875 -1.421875 15.453125 -0.5625 
Q 10.6875 0.296875 5.421875 2 
L 5.421875 11.28125 
Q 10.40625 8.6875 15.234375 7.390625 
Q 20.0625 6.109375 24.8125 6.109375 
Q 31.15625 6.109375 34.5625 8.28125 
Q 37.984375 10.453125 37.984375 14.40625 
Q 37.984375 18.0625 35.515625 20.015625 
Q 33.0625 21.96875 24.703125 23.78125 
L 21.578125 24.515625 
Q 13.234375 26.265625 9.515625 29.90625 
Q 5.8125 33.546875 5.8125 39.890625 
Q 5.8125 47.609375 11.28125 51.796875 
Q 16.75 56 26.8125 56 
Q 31.78125 56 36.171875 55.265625 
Q 40.578125 54.546875 44.28125 53.078125 
z
" id="DejaVuSans-115"/>
      <path d="M 8.015625 75.875 
L 15.828125 75.875 
Q 23.140625 64.359375 26.78125 53.3125 
Q 30.421875 42.28125 30.421875 31.390625 
Q 30.421875 20.453125 26.78125 9.375 
Q 23.140625 -1.703125 15.828125 -13.1875 
L 8.015625 -13.1875 
Q 14.5 -2 17.703125 9.0625 
Q 20.90625 20.125 20.90625 31.390625 
Q 20.90625 42.671875 17.703125 53.65625 
Q 14.5 64.65625 8.015625 75.875 
z
" id="DejaVuSans-41"/>
     </defs>
     <g transform="translate(397.164375 542.226562)scale(0.18 -0.18)">
      <use xlink:href="#DejaVuSans-84"/>
      <use x="61.037109" xlink:href="#DejaVuSans-105"/>
      <use x="88.820312" xlink:href="#DejaVuSans-109"/>
      <use x="186.232422" xlink:href="#DejaVuSans-101"/>
      <use x="247.755859" xlink:href="#DejaVuSans-32"/>
      <use x="279.542969" xlink:href="#DejaVuSans-40"/>
      <use x="318.556641" xlink:href="#DejaVuSans-109"/>
      <use x="415.96875" xlink:href="#DejaVuSans-115"/>
      <use x="468.068359" xlink:href="#DejaVuSans-41"/>
     </g>
    </g>
   </g>
   <g id="matplotlib.axis_2">
    <g id="ytick_1">
     <g id="line2d_9">
      <defs>
       <path d="M 0 0 
L -3.5 0 
" id="m5c97abda06" style="stroke:#000000;stroke-width:0.8;"/>
      </defs>
      <g>
       <use style="stroke:#000000;stroke-width:0.8;" x="108" xlink:href="#m5c97abda06" y="489.677585"/>
      </g>
     </g>
     <g id="text_10">
      <!-- 0.0 -->
      <defs>
       <path d="M 10.6875 12.40625 
L 21 12.40625 
L 21 0 
L 10.6875 0 
z
" id="DejaVuSans-46"/>
      </defs>
      <g transform="translate(78.735625 494.996491)scale(0.14 -0.14)">
       <use xlink:href="#DejaVuSans-48"/>
       <use x="63.623047" xlink:href="#DejaVuSans-46"/>
       <use x="95.410156" xlink:href="#DejaVuSans-48"/>
      </g>
     </g>
    </g>
    <g id="ytick_2">
     <g id="line2d_10">
      <g>
       <use style="stroke:#000000;stroke-width:0.8;" x="108" xlink:href="#m5c97abda06" y="401.498183"/>
      </g>
     </g>
     <g id="text_11">
      <!-- 0.2 -->
      <g transform="translate(78.735625 406.81709)scale(0.14 -0.14)">
       <use xlink:href="#DejaVuSans-48"/>
       <use x="63.623047" xlink:href="#DejaVuSans-46"/>
       <use x="95.410156" xlink:href="#DejaVuSans-50"/>
      </g>
     </g>
    </g>
    <g id="ytick_3">
     <g id="line2d_11">
      <g>
       <use style="stroke:#000000;stroke-width:0.8;" x="108" xlink:href="#m5c97abda06" y="313.318782"/>
      </g>
     </g>
     <g id="text_12">
      <!-- 0.4 -->
      <g transform="translate(78.735625 318.637688)scale(0.14 -0.14)">
       <use xlink:href="#DejaVuSans-48"/>
       <use x="63.623047" xlink:href="#DejaVuSans-46"/>
       <use x="95.410156" xlink:href="#DejaVuSans-52"/>
      </g>
     </g>
    </g>
    <g id="ytick_4">
     <g id="line2d_12">
      <g>
       <use style="stroke:#000000;stroke-width:0.8;" x="108" xlink:href="#m5c97abda06" y="225.139381"/>
      </g>
     </g>
     <g id="text_13">
      <!-- 0.6 -->
      <g transform="translate(78.735625 230.458287)scale(0.14 -0.14)">
       <use xlink:href="#DejaVuSans-48"/>
       <use x="63.623047" xlink:href="#DejaVuSans-46"/>
       <use x="95.410156" xlink:href="#DejaVuSans-54"/>
      </g>
     </g>
    </g>
    <g id="ytick_5">
     <g id="line2d_13">
      <g>
       <use style="stroke:#000000;stroke-width:0.8;" x="108" xlink:href="#m5c97abda06" y="136.959979"/>
      </g>
     </g>
     <g id="text_14">
      <!-- 0.8 -->
      <g transform="translate(78.735625 142.278885)scale(0.14 -0.14)">
       <use xlink:href="#DejaVuSans-48"/>
       <use x="63.623047" xlink:href="#DejaVuSans-46"/>
       <use x="95.410156" xlink:href="#DejaVuSans-56"/>
      </g>
     </g>
    </g>
    <g id="text_15">
     <!-- Angular Momentum (g-cm2/s) -->
     <defs>
      <path d="M 34.1875 63.1875 
L 20.796875 26.90625 
L 47.609375 26.90625 
z
M 28.609375 72.90625 
L 39.796875 72.90625 
L 67.578125 0 
L 57.328125 0 
L 50.6875 18.703125 
L 17.828125 18.703125 
L 11.1875 0 
L 0.78125 0 
z
" id="DejaVuSans-65"/>
      <path d="M 54.890625 33.015625 
L 54.890625 0 
L 45.90625 0 
L 45.90625 32.71875 
Q 45.90625 40.484375 42.875 44.328125 
Q 39.84375 48.1875 33.796875 48.1875 
Q 26.515625 48.1875 22.3125 43.546875 
Q 18.109375 38.921875 18.109375 30.90625 
L 18.109375 0 
L 9.078125 0 
L 9.078125 54.6875 
L 18.109375 54.6875 
L 18.109375 46.1875 
Q 21.34375 51.125 25.703125 53.5625 
Q 30.078125 56 35.796875 56 
Q 45.21875 56 50.046875 50.171875 
Q 54.890625 44.34375 54.890625 33.015625 
z
" id="DejaVuSans-110"/>
      <path d="M 45.40625 27.984375 
Q 45.40625 37.75 41.375 43.109375 
Q 37.359375 48.484375 30.078125 48.484375 
Q 22.859375 48.484375 18.828125 43.109375 
Q 14.796875 37.75 14.796875 27.984375 
Q 14.796875 18.265625 18.828125 12.890625 
Q 22.859375 7.515625 30.078125 7.515625 
Q 37.359375 7.515625 41.375 12.890625 
Q 45.40625 18.265625 45.40625 27.984375 
z
M 54.390625 6.78125 
Q 54.390625 -7.171875 48.1875 -13.984375 
Q 42 -20.796875 29.203125 -20.796875 
Q 24.46875 -20.796875 20.265625 -20.09375 
Q 16.0625 -19.390625 12.109375 -17.921875 
L 12.109375 -9.1875 
Q 16.0625 -11.328125 19.921875 -12.34375 
Q 23.78125 -13.375 27.78125 -13.375 
Q 36.625 -13.375 41.015625 -8.765625 
Q 45.40625 -4.15625 45.40625 5.171875 
L 45.40625 9.625 
Q 42.625 4.78125 38.28125 2.390625 
Q 33.9375 0 27.875 0 
Q 17.828125 0 11.671875 7.65625 
Q 5.515625 15.328125 5.515625 27.984375 
Q 5.515625 40.671875 11.671875 48.328125 
Q 17.828125 56 27.875 56 
Q 33.9375 56 38.28125 53.609375 
Q 42.625 51.21875 45.40625 46.390625 
L 45.40625 54.6875 
L 54.390625 54.6875 
z
" id="DejaVuSans-103"/>
      <path d="M 8.5 21.578125 
L 8.5 54.6875 
L 17.484375 54.6875 
L 17.484375 21.921875 
Q 17.484375 14.15625 20.5 10.265625 
Q 23.53125 6.390625 29.59375 6.390625 
Q 36.859375 6.390625 41.078125 11.03125 
Q 45.3125 15.671875 45.3125 23.6875 
L 45.3125 54.6875 
L 54.296875 54.6875 
L 54.296875 0 
L 45.3125 0 
L 45.3125 8.40625 
Q 42.046875 3.421875 37.71875 1 
Q 33.40625 -1.421875 27.6875 -1.421875 
Q 18.265625 -1.421875 13.375 4.4375 
Q 8.5 10.296875 8.5 21.578125 
z
M 31.109375 56 
z
" id="DejaVuSans-117"/>
      <path d="M 9.421875 75.984375 
L 18.40625 75.984375 
L 18.40625 0 
L 9.421875 0 
z
" id="DejaVuSans-108"/>
      <path d="M 34.28125 27.484375 
Q 23.390625 27.484375 19.1875 25 
Q 14.984375 22.515625 14.984375 16.5 
Q 14.984375 11.71875 18.140625 8.90625 
Q 21.296875 6.109375 26.703125 6.109375 
Q 34.1875 6.109375 38.703125 11.40625 
Q 43.21875 16.703125 43.21875 25.484375 
L 43.21875 27.484375 
z
M 52.203125 31.203125 
L 52.203125 0 
L 43.21875 0 
L 43.21875 8.296875 
Q 40.140625 3.328125 35.546875 0.953125 
Q 30.953125 -1.421875 24.3125 -1.421875 
Q 15.921875 -1.421875 10.953125 3.296875 
Q 6 8.015625 6 15.921875 
Q 6 25.140625 12.171875 29.828125 
Q 18.359375 34.515625 30.609375 34.515625 
L 43.21875 34.515625 
L 43.21875 35.40625 
Q 43.21875 41.609375 39.140625 45 
Q 35.0625 48.390625 27.6875 48.390625 
Q 23 48.390625 18.546875 47.265625 
Q 14.109375 46.140625 10.015625 43.890625 
L 10.015625 52.203125 
Q 14.9375 54.109375 19.578125 55.046875 
Q 24.21875 56 28.609375 56 
Q 40.484375 56 46.34375 49.84375 
Q 52.203125 43.703125 52.203125 31.203125 
z
" id="DejaVuSans-97"/>
      <path d="M 41.109375 46.296875 
Q 39.59375 47.171875 37.8125 47.578125 
Q 36.03125 48 33.890625 48 
Q 26.265625 48 22.1875 43.046875 
Q 18.109375 38.09375 18.109375 28.8125 
L 18.109375 0 
L 9.078125 0 
L 9.078125 54.6875 
L 18.109375 54.6875 
L 18.109375 46.1875 
Q 20.953125 51.171875 25.484375 53.578125 
Q 30.03125 56 36.53125 56 
Q 37.453125 56 38.578125 55.875 
Q 39.703125 55.765625 41.0625 55.515625 
z
" id="DejaVuSans-114"/>
      <path d="M 9.8125 72.90625 
L 24.515625 72.90625 
L 43.109375 23.296875 
L 61.8125 72.90625 
L 76.515625 72.90625 
L 76.515625 0 
L 66.890625 0 
L 66.890625 64.015625 
L 48.09375 14.015625 
L 38.1875 14.015625 
L 19.390625 64.015625 
L 19.390625 0 
L 9.8125 0 
z
" id="DejaVuSans-77"/>
      <path d="M 30.609375 48.390625 
Q 23.390625 48.390625 19.1875 42.75 
Q 14.984375 37.109375 14.984375 27.296875 
Q 14.984375 17.484375 19.15625 11.84375 
Q 23.34375 6.203125 30.609375 6.203125 
Q 37.796875 6.203125 41.984375 11.859375 
Q 46.1875 17.53125 46.1875 27.296875 
Q 46.1875 37.015625 41.984375 42.703125 
Q 37.796875 48.390625 30.609375 48.390625 
z
M 30.609375 56 
Q 42.328125 56 49.015625 48.375 
Q 55.71875 40.765625 55.71875 27.296875 
Q 55.71875 13.875 49.015625 6.21875 
Q 42.328125 -1.421875 30.609375 -1.421875 
Q 18.84375 -1.421875 12.171875 6.21875 
Q 5.515625 13.875 5.515625 27.296875 
Q 5.515625 40.765625 12.171875 48.375 
Q 18.84375 56 30.609375 56 
z
" id="DejaVuSans-111"/>
      <path d="M 18.3125 70.21875 
L 18.3125 54.6875 
L 36.8125 54.6875 
L 36.8125 47.703125 
L 18.3125 47.703125 
L 18.3125 18.015625 
Q 18.3125 11.328125 20.140625 9.421875 
Q 21.96875 7.515625 27.59375 7.515625 
L 36.8125 7.515625 
L 36.8125 0 
L 27.59375 0 
Q 17.1875 0 13.234375 3.875 
Q 9.28125 7.765625 9.28125 18.015625 
L 9.28125 47.703125 
L 2.6875 47.703125 
L 2.6875 54.6875 
L 9.28125 54.6875 
L 9.28125 70.21875 
z
" id="DejaVuSans-116"/>
      <path d="M 4.890625 31.390625 
L 31.203125 31.390625 
L 31.203125 23.390625 
L 4.890625 23.390625 
z
" id="DejaVuSans-45"/>
      <path d="M 48.78125 52.59375 
L 48.78125 44.1875 
Q 44.96875 46.296875 41.140625 47.34375 
Q 37.3125 48.390625 33.40625 48.390625 
Q 24.65625 48.390625 19.8125 42.84375 
Q 14.984375 37.3125 14.984375 27.296875 
Q 14.984375 17.28125 19.8125 11.734375 
Q 24.65625 6.203125 33.40625 6.203125 
Q 37.3125 6.203125 41.140625 7.25 
Q 44.96875 8.296875 48.78125 10.40625 
L 48.78125 2.09375 
Q 45.015625 0.34375 40.984375 -0.53125 
Q 36.96875 -1.421875 32.421875 -1.421875 
Q 20.0625 -1.421875 12.78125 6.34375 
Q 5.515625 14.109375 5.515625 27.296875 
Q 5.515625 40.671875 12.859375 48.328125 
Q 20.21875 56 33.015625 56 
Q 37.15625 56 41.109375 55.140625 
Q 45.0625 54.296875 48.78125 52.59375 
z
" id="DejaVuSans-99"/>
      <path d="M 25.390625 72.90625 
L 33.6875 72.90625 
L 8.296875 -9.28125 
L 0 -9.28125 
z
" id="DejaVuSans-47"/>
     </defs>
     <g transform="translate(70.992188 421.697812)rotate(-90)scale(0.18 -0.18)">
      <use xlink:href="#DejaVuSans-65"/>
      <use x="68.408203" xlink:href="#DejaVuSans-110"/>
      <use x="131.787109" xlink:href="#DejaVuSans-103"/>
      <use x="195.263672" xlink:href="#DejaVuSans-117"/>
      <use x="258.642578" xlink:href="#DejaVuSans-108"/>
      <use x="286.425781" xlink:href="#DejaVuSans-97"/>
      <use x="347.705078" xlink:href="#DejaVuSans-114"/>
      <use x="388.818359" xlink:href="#DejaVuSans-32"/>
      <use x="420.605469" xlink:href="#DejaVuSans-77"/>
      <use x="506.884766" xlink:href="#DejaVuSans-111"/>
      <use x="568.066406" xlink:href="#DejaVuSans-109"/>
      <use x="665.478516" xlink:href="#DejaVuSans-101"/>
      <use x="727.001953" xlink:href="#DejaVuSans-110"/>
      <use x="790.380859" xlink:href="#DejaVuSans-116"/>
      <use x="829.589844" xlink:href="#DejaVuSans-117"/>
      <use x="892.96875" xlink:href="#DejaVuSans-109"/>
      <use x="990.380859" xlink:href="#DejaVuSans-32"/>
      <use x="1022.167969" xlink:href="#DejaVuSans-40"/>
      <use x="1061.181641" xlink:href="#DejaVuSans-103"/>
      <use x="1124.658203" xlink:href="#DejaVuSans-45"/>
      <use x="1160.742188" xlink:href="#DejaVuSans-99"/>
      <use x="1215.722656" xlink:href="#DejaVuSans-109"/>
      <use x="1313.134766" xlink:href="#DejaVuSans-50"/>
      <use x="1376.757812" xlink:href="#DejaVuSans-47"/>
      <use x="1410.449219" xlink:href="#DejaVuSans-115"/>
      <use x="1462.548828" xlink:href="#DejaVuSans-41"/>
     </g>
    </g>
   </g>
   <g id="line2d_14">
    <path clip-path="url(#p38dfc67cb3)" d="M 138.436364 128.561169 
L 142.663636 126.189087 
L 146.890909 122.114529 
L 151.118182 117.543265 
L 155.345455 114.033142 
L 159.572727 112.785723 
L 163.8 114.119042 
L 168.027273 117.410558 
L 172.254545 121.513465 
L 176.481818 125.362578 
L 180.709091 128.394764 
L 184.936364 130.572337 
L 189.163636 132.083069 
L 193.390909 132.975189 
L 197.618182 132.961799 
L 201.845455 131.490072 
L 206.072727 128.051627 
L 210.3 122.615528 
L 214.527273 115.954485 
L 218.754545 109.594552 
L 222.981818 105.284291 
L 227.209091 104.207683 
L 231.436364 106.407176 
L 235.663636 110.804518 
L 239.890909 115.814667 
L 244.118182 120.128961 
L 248.345455 123.148637 
L 252.572727 124.864941 
L 256.8 125.422603 
L 261.027273 124.790954 
L 265.254545 122.790341 
L 269.481818 119.389227 
L 273.709091 114.981308 
L 277.936364 110.394659 
L 282.163636 106.600741 
L 286.390909 104.306014 
L 290.618182 103.68119 
L 294.845455 104.387259 
L 299.072727 105.872775 
L 303.3 107.756595 
L 307.527273 110.064193 
L 311.754545 113.187147 
L 315.981818 117.624133 
L 320.209091 123.6983 
L 324.436364 131.429034 
L 328.663636 140.603144 
L 332.890909 150.959674 
L 337.118182 162.348678 
L 341.345455 174.755005 
L 345.572727 188.175639 
L 349.8 202.453555 
L 362.481818 246.436974 
L 370.936364 275.094483 
L 375.163636 290.52932 
L 379.390909 307.395957 
L 387.845455 343.699915 
L 392.072727 360.741014 
L 396.3 375.451415 
L 400.527273 387.487106 
L 404.754545 397.386944 
L 413.209091 415.053734 
L 417.436364 424.465037 
L 425.890909 444.397093 
L 430.118182 453.597509 
L 434.345455 461.308845 
L 438.572727 467.11158 
L 442.8 470.988816 
L 447.027273 473.258036 
L 451.254545 474.361234 
L 455.481818 474.623026 
L 459.709091 474.118385 
L 463.936364 472.738228 
L 468.163636 470.422049 
L 476.618182 464.294057 
L 480.845455 461.86367 
L 485.072727 460.690935 
L 489.3 460.832015 
L 497.754545 462.614048 
L 501.981818 462.55161 
L 506.209091 461.057997 
L 510.436364 458.002012 
L 514.663636 453.557529 
L 518.890909 448.126952 
L 523.118182 442.321842 
L 527.345455 436.898344 
L 531.572727 432.529703 
L 535.8 429.464886 
L 544.254545 425.170533 
L 548.481818 422.136236 
L 552.709091 417.811425 
L 556.936364 412.491152 
L 561.163636 406.859349 
L 565.390909 401.450779 
L 573.845455 391.008357 
L 578.072727 385.204886 
L 586.527273 372.777601 
L 590.754545 367.544177 
L 594.981818 363.81162 
L 599.209091 361.577736 
L 607.663636 358.908405 
L 611.890909 356.752116 
L 616.118182 353.331458 
L 620.345455 348.622126 
L 624.572727 342.889262 
L 628.8 336.518854 
L 637.254545 323.481815 
L 641.481818 317.567088 
L 645.709091 312.416997 
L 649.936364 308.0743 
L 654.163636 304.338912 
L 658.390909 300.806492 
L 662.618182 296.965965 
L 666.845455 292.31398 
L 671.072727 286.476714 
L 675.3 279.359648 
L 683.754545 263.143223 
L 687.981818 255.994993 
L 692.209091 250.814892 
L 696.436364 247.891321 
L 700.663636 246.642316 
L 704.890909 245.904791 
L 709.118182 244.574496 
L 713.345455 242.181218 
L 721.8 235.84135 
L 726.027273 233.284334 
L 730.254545 231.619889 
L 734.481818 230.742267 
L 738.709091 230.397394 
L 742.936364 230.388427 
L 747.163636 230.643447 
L 747.163636 230.643447 
" style="fill:none;stroke:#000000;stroke-linecap:round;stroke-opacity:0.1;stroke-width:1.5;"/>
   </g>
   <g id="patch_3">
    <path d="M 108 504 
L 108 69.12 
" style="fill:none;stroke:#000000;stroke-linecap:square;stroke-linejoin:miter;stroke-width:0.8;"/>
   </g>
   <g id="patch_4">
    <path d="M 777.6 504 
L 777.6 69.12 
" style="fill:none;stroke:#000000;stroke-linecap:square;stroke-linejoin:miter;stroke-width:0.8;"/>
   </g>
   <g id="patch_5">
    <path d="M 108 504 
L 777.6 504 
" style="fill:none;stroke:#000000;stroke-linecap:square;stroke-linejoin:miter;stroke-width:0.8;"/>
   </g>
   <g id="patch_6">
    <path d="M 108 69.12 
L 777.6 69.12 
" style="fill:none;stroke:#000000;stroke-linecap:square;stroke-linejoin:miter;stroke-width:0.8;"/>
   </g>
  </g>
 </g>
 <defs>
  <clipPath id="p38dfc67cb3">
   <rect height="434.88" width="669.6" x="108" y="69.12"/>
  </clipPath>
 </defs>
</svg>
